<svg viewBox="0 0 330 200" xmlns="http://www.w3.org/2000/svg"><g><g><g><g><g><line x1="53.1875" y1="177" x2="48.1875" y2="177" style="visibility: inherit;" fill="rgb(0, 0, 0)" stroke="rgb(204, 204, 204)" stroke-width="1px"></line><line x1="53.1875" y1="157.33333333333334" x2="48.1875" y2="157.33333333333334" style="visibility: inherit;" fill="rgb(0, 0, 0)" stroke="rgb(204, 204, 204)" stroke-width="1px"></line><line x1="53.1875" y1="137.66666666666666" x2="48.1875" y2="137.66666666666666" style="visibility: inherit;" fill="rgb(0, 0, 0)" stroke="rgb(204, 204, 204)" stroke-width="1px"></line><line x1="53.1875" y1="118" x2="48.1875" y2="118" style="visibility: inherit;" fill="rgb(0, 0, 0)" stroke="rgb(204, 204, 204)" stroke-width="1px"></line><line x1="53.1875" y1="98.33333333333333" x2="48.1875" y2="98.33333333333333" style="visibility: inherit;" fill="rgb(0, 0, 0)" stroke="rgb(204, 204, 204)" stroke-width="1px"></line><line x1="53.1875" y1="78.66666666666666" x2="48.1875" y2="78.66666666666666" style="visibility: inherit;" fill="rgb(0, 0, 0)" stroke="rgb(204, 204, 204)" stroke-width="1px"></line><line x1="53.1875" y1="59" x2="48.1875" y2="59" style="visibility: inherit;" fill="rgb(0, 0, 0)" stroke="rgb(204, 204, 204)" stroke-width="1px"></line><line x1="53.1875" y1="39.33333333333334" x2="48.1875" y2="39.33333333333334" style="visibility: inherit;" fill="rgb(0, 0, 0)" stroke="rgb(204, 204, 204)" stroke-width="1px"></line><line x1="53.1875" y1="19.666666666666686" x2="48.1875" y2="19.666666666666686" style="visibility: inherit;" fill="rgb(0, 0, 0)" stroke="rgb(204, 204, 204)" stroke-width="1px"></line><line x1="53.1875" y1="0" x2="48.1875" y2="0" style="visibility: inherit;" fill="rgb(0, 0, 0)" stroke="rgb(204, 204, 204)" stroke-width="1px"></line></g><g transform="translate(43.1875, 0)"><text x="0" y="177" dx="0em" dy="0.3em" style="text-anchor: end; visibility: hidden; font-family: &quot;Helvetica Neue&quot;, sans-serif; font-size: 12px; font-weight: 200;" fill="rgb(50, 49, 63)" stroke="none" stroke-width="1px">-0.1</text><text x="0" y="157.33333333333334" dx="0em" dy="0.3em" style="text-anchor: end; visibility: inherit; font-family: &quot;Helvetica Neue&quot;, sans-serif; font-size: 12px; font-weight: 200;" fill="rgb(50, 49, 63)" stroke="none" stroke-width="1px">0</text><text x="0" y="137.66666666666666" dx="0em" dy="0.3em" style="text-anchor: end; visibility: hidden; font-family: &quot;Helvetica Neue&quot;, sans-serif; font-size: 12px; font-weight: 200;" fill="rgb(50, 49, 63)" stroke="none" stroke-width="1px">0.1</text><text x="0" y="118" dx="0em" dy="0.3em" style="text-anchor: end; visibility: inherit; font-family: &quot;Helvetica Neue&quot;, sans-serif; font-size: 12px; font-weight: 200;" fill="rgb(50, 49, 63)" stroke="none" stroke-width="1px">0.2</text><text x="0" y="98.33333333333333" dx="0em" dy="0.3em" style="text-anchor: end; visibility: hidden; font-family: &quot;Helvetica Neue&quot;, sans-serif; font-size: 12px; font-weight: 200;" fill="rgb(50, 49, 63)" stroke="none" stroke-width="1px">0.3</text><text x="0" y="78.66666666666666" dx="0em" dy="0.3em" style="text-anchor: end; visibility: inherit; font-family: &quot;Helvetica Neue&quot;, sans-serif; font-size: 12px; font-weight: 200;" fill="rgb(50, 49, 63)" stroke="none" stroke-width="1px">0.4</text><text x="0" y="59" dx="0em" dy="0.3em" style="text-anchor: end; visibility: hidden; font-family: &quot;Helvetica Neue&quot;, sans-serif; font-size: 12px; font-weight: 200;" fill="rgb(50, 49, 63)" stroke="none" stroke-width="1px">0.5</text><text x="0" y="39.33333333333334" dx="0em" dy="0.3em" style="text-anchor: end; visibility: inherit; font-family: &quot;Helvetica Neue&quot;, sans-serif; font-size: 12px; font-weight: 200;" fill="rgb(50, 49, 63)" stroke="none" stroke-width="1px">0.6</text><text x="0" y="19.666666666666686" dx="0em" dy="0.3em" style="text-anchor: end; visibility: hidden; font-family: &quot;Helvetica Neue&quot;, sans-serif; font-size: 12px; font-weight: 200;" fill="rgb(50, 49, 63)" stroke="none" stroke-width="1px">0.7</text><text x="0" y="0" dx="0em" dy="0.3em" style="text-anchor: end; visibility: hidden; font-family: &quot;Helvetica Neue&quot;, sans-serif; font-size: 12px; font-weight: 200;" fill="rgb(50, 49, 63)" stroke="none" stroke-width="1px">0.8</text></g><line x1="53.1875" y1="0" x2="53.1875" y2="177" fill="rgb(0, 0, 0)" stroke="rgb(204, 204, 204)" stroke-width="1px"></line></g></g><g transform="translate(53, 0)" clip-path="url(#clip_0)"><clipPath id="clip_0"><rect width="276" height="176"></rect></clipPath><g><g><g><line x1="0" y1="0" x2="0" y2="177" fill="rgb(0, 0, 0)" stroke="rgb(60, 60, 60)" stroke-width="1px" opacity="0.25"></line><line x1="23.067708333333332" y1="0" x2="23.067708333333332" y2="177" fill="rgb(0, 0, 0)" stroke="rgb(60, 60, 60)" stroke-width="1px" opacity="0.25"></line><line x1="46.135416666666664" y1="0" x2="46.135416666666664" y2="177" fill="rgb(0, 0, 0)" stroke="rgb(60, 60, 60)" stroke-width="1px" opacity="0.25"></line><line x1="69.203125" y1="0" x2="69.203125" y2="177" fill="rgb(0, 0, 0)" stroke="rgb(60, 60, 60)" stroke-width="1px" opacity="0.25"></line><line x1="92.27083333333333" y1="0" x2="92.27083333333333" y2="177" fill="rgb(0, 0, 0)" stroke="rgb(60, 60, 60)" stroke-width="1px" opacity="0.25"></line><line x1="115.33854166666667" y1="0" x2="115.33854166666667" y2="177" fill="rgb(0, 0, 0)" stroke="rgb(60, 60, 60)" stroke-width="1px" opacity="0.25"></line><line x1="138.40625" y1="0" x2="138.40625" y2="177" fill="rgb(0, 0, 0)" stroke="rgb(60, 60, 60)" stroke-width="1px" opacity="0.25"></line><line x1="161.47395833333334" y1="0" x2="161.47395833333334" y2="177" fill="rgb(0, 0, 0)" stroke="rgb(60, 60, 60)" stroke-width="1px" opacity="0.25"></line><line x1="184.54166666666666" y1="0" x2="184.54166666666666" y2="177" fill="rgb(0, 0, 0)" stroke="rgb(60, 60, 60)" stroke-width="1px" opacity="0.25"></line><line x1="207.609375" y1="0" x2="207.609375" y2="177" fill="rgb(0, 0, 0)" stroke="rgb(60, 60, 60)" stroke-width="1px" opacity="0.25"></line><line x1="230.67708333333334" y1="0" x2="230.67708333333334" y2="177" fill="rgb(0, 0, 0)" stroke="rgb(60, 60, 60)" stroke-width="1px" opacity="0.25"></line><line x1="253.74479166666666" y1="0" x2="253.74479166666666" y2="177" fill="rgb(0, 0, 0)" stroke="rgb(60, 60, 60)" stroke-width="1px" opacity="0.25"></line><line x1="276.8125" y1="0" x2="276.8125" y2="177" fill="rgb(0, 0, 0)" stroke="rgb(60, 60, 60)" stroke-width="1px" opacity="0.25"></line></g><g><line x1="0" y1="177" x2="276.8125" y2="177" fill="rgb(0, 0, 0)" stroke="rgb(60, 60, 60)" stroke-width="1px" opacity="0.25"></line><line x1="0" y1="157.33333333333334" x2="276.8125" y2="157.33333333333334" fill="rgb(0, 0, 0)" stroke="rgb(60, 60, 60)" stroke-width="1px" opacity="0.25"></line><line x1="0" y1="137.66666666666666" x2="276.8125" y2="137.66666666666666" fill="rgb(0, 0, 0)" stroke="rgb(60, 60, 60)" stroke-width="1px" opacity="0.25"></line><line x1="0" y1="118" x2="276.8125" y2="118" fill="rgb(0, 0, 0)" stroke="rgb(60, 60, 60)" stroke-width="1px" opacity="0.25"></line><line x1="0" y1="98.33333333333333" x2="276.8125" y2="98.33333333333333" fill="rgb(0, 0, 0)" stroke="rgb(60, 60, 60)" stroke-width="1px" opacity="0.25"></line><line x1="0" y1="78.66666666666666" x2="276.8125" y2="78.66666666666666" fill="rgb(0, 0, 0)" stroke="rgb(60, 60, 60)" stroke-width="1px" opacity="0.25"></line><line x1="0" y1="59" x2="276.8125" y2="59" fill="rgb(0, 0, 0)" stroke="rgb(60, 60, 60)" stroke-width="1px" opacity="0.25"></line><line x1="0" y1="39.33333333333334" x2="276.8125" y2="39.33333333333334" fill="rgb(0, 0, 0)" stroke="rgb(60, 60, 60)" stroke-width="1px" opacity="0.25"></line><line x1="0" y1="19.666666666666686" x2="276.8125" y2="19.666666666666686" fill="rgb(0, 0, 0)" stroke="rgb(60, 60, 60)" stroke-width="1px" opacity="0.25"></line><line x1="0" y1="0" x2="276.8125" y2="0" fill="rgb(0, 0, 0)" stroke="rgb(60, 60, 60)" stroke-width="1px" opacity="0.25"></line></g></g></g><g><g><line x1="0" y1="157.33333333333334" x2="276.8125" y2="157.33333333333334" fill="rgb(0, 0, 0)" stroke="rgb(153, 153, 153)" stroke-width="1.5px"></line></g></g><g><g><line x1="23.067708333333332" y1="0" x2="23.067708333333332" y2="177" fill="rgb(0, 0, 0)" stroke="rgb(153, 153, 153)" stroke-width="1.5px"></line></g></g><g><g><g><g><g><path stroke="rgb(51, 187, 238)" stroke-width="2px" d="M32.29479166666667,-20.081594347953796L36.90833333333333,16.407164318220964L41.521875,38.99857318861518L46.135416666666664,45.34645901377377L50.74895833333333,52.71774638715213L55.362500000000004,67.52750039233192L59.97604166666667,62.275196240186034L64.58958333333334,67.58712872680168L69.203125,74.00188911415576L73.81666666666666,72.11477875126833L78.43020833333333,81.36522099809655L83.04375,80.96974661508553L87.65729166666667,73.56767502712361L92.27083333333333,79.51321620382551L96.88437499999999,82.35967225903323L101.49791666666665,71.45896936948076L106.11145833333335,77.81313230387404L110.72500000000001,79.76665407825526L115.33854166666667,76.82012823644716L119.95208333333333,79.96168743956925L124.565625,89.09859071522982L129.17916666666667,93.77168300520437L133.79270833333334,95.65700438147053L138.40625,96.04654861488241L143.0197916666667,98.56161512205077L147.63333333333333,98.56853859300169L152.24687500000002,98.32762957327206L156.86041666666665,96.47261557206535L161.47395833333334,99.78870246540814L166.0875,103.06452625571642L170.70104166666667,94.04249252346948L175.31458333333333,93.58028582989084L179.928125,96.27427717770284L184.54166666666666,98.03892788379162L189.15520833333335,90.507791718183L193.76874999999998,92.57463319806119L198.38229166666667,95.62869247760644L202.9958333333333,96.03270192812253L207.609375,90.01211977712394L212.2229166666667,91.27941596239377L216.83645833333333,94.05498856675818L221.45000000000002,99.16208929192778L226.06354166666665,95.69335636856718L230.67708333333334,96.7536506258312L235.290625,100.15833350855662L239.90416666666667,105.45942144913576L244.51770833333333,109.87839243813204L249.13125,106.01337451534536L253.74479166666666,102.60604457930195L258.35833333333335,90.66287501374335L262.971875,90.31645599833698L267.5854166666667,95.65371497372666" style="fill: none;" fill="none"></path></g><g><path stroke="rgb(0, 119, 187)" stroke-width="2px" d="M32.29479166666667,-104.5420412818591L36.90833333333333,11.82541147705652L41.521875,70.35695895892295L46.135416666666664,103.16668552970815L50.74895833333333,121.4866214814515L55.362500000000004,131.76691983701758L59.97604166666667,139.10071178406713L64.58958333333334,143.56864100871735L69.203125,146.94672939345196L73.81666666666666,148.65912335986874L78.43020833333333,150.23129777819827L83.04375,151.3394464680268L87.65729166666667,151.5872546057616L92.27083333333333,152.8924490852881L96.88437499999999,153.17640892035618L101.49791666666665,153.36940981894284L106.11145833333335,153.44589365811697L110.72500000000001,153.94014540014683L115.33854166666667,153.65356162163738L119.95208333333333,154.2440271524278L124.565625,154.68046803645655L129.17916666666667,154.3487211266665L133.79270833333334,154.29080194652772L138.40625,154.6352154577241L143.0197916666667,154.29892644277746L147.63333333333333,154.99199422573298L152.24687500000002,155.53846006026754L156.86041666666665,154.7321659063602L161.47395833333334,155.14122286180648L166.0875,155.84022558501482L170.70104166666667,155.36710999779234L175.31458333333333,154.47486086671026L179.928125,155.1800090610923L184.54166666666666,155.50771151328317L189.15520833333335,155.16453065326033L193.76874999999998,155.28620809451672L198.38229166666667,155.43596934018075L202.9958333333333,155.8143084204681L207.609375,155.972224132321L212.2229166666667,155.15040228912983L216.83645833333333,155.56868669226878L221.45000000000002,156.12412868314448L226.06354166666665,156.3000837248032L230.67708333333334,155.45474819868747L235.290625,155.382015916134L239.90416666666667,156.0519117336214L244.51770833333333,156.5116748340631L249.13125,155.98106369490927L253.74479166666666,155.7313930409064L258.35833333333335,155.89115265795627L262.971875,155.821325056239L267.5854166666667,156.11828154212827" style="fill: none;" fill="none"></path></g></g></g></g><g opacity="0.2"><g><g><g><path stroke="rgb(51, 187, 238)" stroke-width="2px" d="M27.681250000000002,-90.61534976959229L32.29479166666667,22.238658905029297L36.90833333333333,51.43637263774872L41.521875,65.56607002019882L46.135416666666664,53.63425874710083L50.74895833333333,62.914890487988785L55.362500000000004,88.70568557580313L59.97604166666667,54.61728636423747L64.58958333333334,75.42119735479356L69.203125,83.52706068754196L73.81666666666666,69.30122915903728L78.43020833333333,95.19054387013118L83.04375,80.37782633304596L87.65729166666667,62.47906907399495L92.27083333333333,88.42453920841217L96.88437499999999,86.62734880050024L101.49791666666665,55.11252784729004L106.11145833333335,87.34276338418326L110.72500000000001,82.69663914044699L115.33854166666667,72.4006087978681L119.95208333333333,84.67385395367941L124.565625,102.80364497502646L129.17916666666667,100.78122917811076L133.79270833333334,98.48496411244075L138.40625,96.63086219628653L143.0197916666667,102.33420415719351L147.63333333333333,98.57892378171286L152.24687500000002,97.96626641352972L156.86041666666665,93.69009627898535L161.47395833333334,104.76283097267151L166.0875,107.97826085488002L170.70104166666667,80.50944372018179L175.31458333333333,92.88697584470114L179.928125,100.31526400645575L184.54166666666666,100.68590386708578L189.15520833333335,79.2110876639684L193.76874999999998,95.67489538590114L198.38229166666667,100.20978136857352L202.9958333333333,96.63871610164642L207.609375,80.98124657074612L212.2229166666667,93.18036023775737L216.83645833333333,98.21834746996562L221.45000000000002,106.82274037599565L226.06354166666665,90.4902569850286L230.67708333333334,98.34409201145172L235.290625,105.2653578321139L239.90416666666667,113.41105335950851L244.51770833333333,116.50684892137846L249.13125,100.21584763129553L253.74479166666666,97.4950496753057L258.35833333333335,72.74812066555023L262.971875,89.7968274752299L267.5854166666667,103.65960343678793" style="fill: none;" fill="none"></path></g><g><path stroke="rgb(0, 119, 187)" stroke-width="2px" d="M27.681250000000002,-363.8853519757589L32.29479166666667,51.06394513448079L36.90833333333333,123.53816612561545L41.521875,139.19005879759789L46.135416666666664,146.0030645405253L50.74895833333333,146.82968807965517L55.362500000000004,146.46791097025076L59.97604166666667,149.7934508472681L64.58958333333334,150.1579687645038L69.203125,151.96279694885015L73.81666666666666,151.21218302225074L78.43020833333333,152.5810037019352L83.04375,152.9980512050291L87.65729166666667,151.95848133042455L92.27083333333333,154.8487065974623L96.88437499999999,153.60214840248227L101.49791666666665,153.65882949531078L106.11145833333335,153.56059999763966L110.72500000000001,154.68144771891335L115.33854166666667,153.2237121487657L119.95208333333333,155.12969306608042L124.565625,155.33511500122646L129.17916666666667,153.8511073117455L133.79270833333334,154.20392386242747L138.40625,155.15183327657482L143.0197916666667,153.79449435447654L147.63333333333333,156.03159412679574L152.24687500000002,156.35815797311565L156.86041666666665,153.52272541821003L161.47395833333334,155.75480806889632L166.0875,156.88872943803048L170.70104166666667,154.6574367110928L175.31458333333333,153.1364872766038L179.928125,156.23773130215704L184.54166666666666,155.99926517748585L189.15520833333335,154.6497593720754L193.76874999999998,155.46872425451875L198.38229166666667,155.6606112072865L202.9958333333333,156.38181703879187L207.609375,156.20909769957265L212.2229166666667,153.91766952599087L216.83645833333333,156.196113296474L221.45000000000002,156.95729166905707L226.06354166666665,156.56401628721505L230.67708333333334,154.18674490973353L235.290625,155.27291749231517L239.90416666666667,157.0567554597898L244.51770833333333,157.20131948469984L249.13125,155.18514698619643L253.74479166666666,155.3568870599071L258.35833333333335,156.13079208352914L262.971875,155.7165836536636L267.5854166666667,156.56371627096087" style="fill: none;" fill="none"></path></g></g></g></g></g></g><g transform="translate(53, 177)" clip-path="url(#clip_1)"><clipPath id="clip_1"><rect width="276" height="22"></rect></clipPath><g><g><line x1="0" y1="0" x2="0" y2="5" style="visibility: inherit;" fill="rgb(0, 0, 0)" stroke="rgb(204, 204, 204)" stroke-width="1px"></line><line x1="23.067708333333332" y1="0" x2="23.067708333333332" y2="5" style="visibility: inherit;" fill="rgb(0, 0, 0)" stroke="rgb(204, 204, 204)" stroke-width="1px"></line><line x1="46.135416666666664" y1="0" x2="46.135416666666664" y2="5" style="visibility: inherit;" fill="rgb(0, 0, 0)" stroke="rgb(204, 204, 204)" stroke-width="1px"></line><line x1="69.203125" y1="0" x2="69.203125" y2="5" style="visibility: inherit;" fill="rgb(0, 0, 0)" stroke="rgb(204, 204, 204)" stroke-width="1px"></line><line x1="92.27083333333333" y1="0" x2="92.27083333333333" y2="5" style="visibility: inherit;" fill="rgb(0, 0, 0)" stroke="rgb(204, 204, 204)" stroke-width="1px"></line><line x1="115.33854166666667" y1="0" x2="115.33854166666667" y2="5" style="visibility: inherit;" fill="rgb(0, 0, 0)" stroke="rgb(204, 204, 204)" stroke-width="1px"></line><line x1="138.40625" y1="0" x2="138.40625" y2="5" style="visibility: inherit;" fill="rgb(0, 0, 0)" stroke="rgb(204, 204, 204)" stroke-width="1px"></line><line x1="161.47395833333334" y1="0" x2="161.47395833333334" y2="5" style="visibility: inherit;" fill="rgb(0, 0, 0)" stroke="rgb(204, 204, 204)" stroke-width="1px"></line><line x1="184.54166666666666" y1="0" x2="184.54166666666666" y2="5" style="visibility: inherit;" fill="rgb(0, 0, 0)" stroke="rgb(204, 204, 204)" stroke-width="1px"></line><line x1="207.609375" y1="0" x2="207.609375" y2="5" style="visibility: inherit;" fill="rgb(0, 0, 0)" stroke="rgb(204, 204, 204)" stroke-width="1px"></line><line x1="230.67708333333334" y1="0" x2="230.67708333333334" y2="5" style="visibility: inherit;" fill="rgb(0, 0, 0)" stroke="rgb(204, 204, 204)" stroke-width="1px"></line><line x1="253.74479166666666" y1="0" x2="253.74479166666666" y2="5" style="visibility: inherit;" fill="rgb(0, 0, 0)" stroke="rgb(204, 204, 204)" stroke-width="1px"></line><line x1="276.8125" y1="0" x2="276.8125" y2="5" style="visibility: inherit;" fill="rgb(0, 0, 0)" stroke="rgb(204, 204, 204)" stroke-width="1px"></line></g><g transform="translate(0, 8)"><text x="0" y="0" dx="0em" dy="0.95em" style="text-anchor: middle; visibility: hidden; font-family: &quot;Helvetica Neue&quot;, sans-serif; font-size: 12px; font-weight: 200;" fill="rgb(50, 49, 63)" stroke="none" stroke-width="1px">-5</text><text x="23.067708333333332" y="0" dx="0em" dy="0.95em" style="text-anchor: middle; visibility: inherit; font-family: &quot;Helvetica Neue&quot;, sans-serif; font-size: 12px; font-weight: 200;" fill="rgb(50, 49, 63)" stroke="none" stroke-width="1px">0</text><text x="46.135416666666664" y="0" dx="0em" dy="0.95em" style="text-anchor: middle; visibility: inherit; font-family: &quot;Helvetica Neue&quot;, sans-serif; font-size: 12px; font-weight: 200;" fill="rgb(50, 49, 63)" stroke="none" stroke-width="1px">5</text><text x="69.203125" y="0" dx="0em" dy="0.95em" style="text-anchor: middle; visibility: inherit; font-family: &quot;Helvetica Neue&quot;, sans-serif; font-size: 12px; font-weight: 200;" fill="rgb(50, 49, 63)" stroke="none" stroke-width="1px">10</text><text x="92.27083333333333" y="0" dx="0em" dy="0.95em" style="text-anchor: middle; visibility: inherit; font-family: &quot;Helvetica Neue&quot;, sans-serif; font-size: 12px; font-weight: 200;" fill="rgb(50, 49, 63)" stroke="none" stroke-width="1px">15</text><text x="115.33854166666667" y="0" dx="0em" dy="0.95em" style="text-anchor: middle; visibility: inherit; font-family: &quot;Helvetica Neue&quot;, sans-serif; font-size: 12px; font-weight: 200;" fill="rgb(50, 49, 63)" stroke="none" stroke-width="1px">20</text><text x="138.40625" y="0" dx="0em" dy="0.95em" style="text-anchor: middle; visibility: inherit; font-family: &quot;Helvetica Neue&quot;, sans-serif; font-size: 12px; font-weight: 200;" fill="rgb(50, 49, 63)" stroke="none" stroke-width="1px">25</text><text x="161.47395833333334" y="0" dx="0em" dy="0.95em" style="text-anchor: middle; visibility: inherit; font-family: &quot;Helvetica Neue&quot;, sans-serif; font-size: 12px; font-weight: 200;" fill="rgb(50, 49, 63)" stroke="none" stroke-width="1px">30</text><text x="184.54166666666666" y="0" dx="0em" dy="0.95em" style="text-anchor: middle; visibility: inherit; font-family: &quot;Helvetica Neue&quot;, sans-serif; font-size: 12px; font-weight: 200;" fill="rgb(50, 49, 63)" stroke="none" stroke-width="1px">35</text><text x="207.609375" y="0" dx="0em" dy="0.95em" style="text-anchor: middle; visibility: inherit; font-family: &quot;Helvetica Neue&quot;, sans-serif; font-size: 12px; font-weight: 200;" fill="rgb(50, 49, 63)" stroke="none" stroke-width="1px">40</text><text x="230.67708333333334" y="0" dx="0em" dy="0.95em" style="text-anchor: middle; visibility: inherit; font-family: &quot;Helvetica Neue&quot;, sans-serif; font-size: 12px; font-weight: 200;" fill="rgb(50, 49, 63)" stroke="none" stroke-width="1px">45</text><text x="253.74479166666666" y="0" dx="0em" dy="0.95em" style="text-anchor: middle; visibility: inherit; font-family: &quot;Helvetica Neue&quot;, sans-serif; font-size: 12px; font-weight: 200;" fill="rgb(50, 49, 63)" stroke="none" stroke-width="1px">50</text><text x="276.8125" y="0" dx="0em" dy="0.95em" style="text-anchor: middle; visibility: hidden; font-family: &quot;Helvetica Neue&quot;, sans-serif; font-size: 12px; font-weight: 200;" fill="rgb(50, 49, 63)" stroke="none" stroke-width="1px">55</text></g><line x1="0" y1="0" x2="276.8125" y2="0" fill="rgb(0, 0, 0)" stroke="rgb(204, 204, 204)" stroke-width="1px"></line></g></g></g></g></svg>