<svg viewBox="0 0 330 200" xmlns="http://www.w3.org/2000/svg"><g><g><g><g><g><line x1="53.1875" y1="177" x2="48.1875" y2="177" style="visibility: inherit;" fill="rgb(0, 0, 0)" stroke="rgb(204, 204, 204)" stroke-width="1px"></line><line x1="53.1875" y1="159.29999999999998" x2="48.1875" y2="159.29999999999998" style="visibility: inherit;" fill="rgb(0, 0, 0)" stroke="rgb(204, 204, 204)" stroke-width="1px"></line><line x1="53.1875" y1="141.59999999999997" x2="48.1875" y2="141.59999999999997" style="visibility: inherit;" fill="rgb(0, 0, 0)" stroke="rgb(204, 204, 204)" stroke-width="1px"></line><line x1="53.1875" y1="123.89999999999998" x2="48.1875" y2="123.89999999999998" style="visibility: inherit;" fill="rgb(0, 0, 0)" stroke="rgb(204, 204, 204)" stroke-width="1px"></line><line x1="53.1875" y1="106.19999999999996" x2="48.1875" y2="106.19999999999996" style="visibility: inherit;" fill="rgb(0, 0, 0)" stroke="rgb(204, 204, 204)" stroke-width="1px"></line><line x1="53.1875" y1="88.50000000000004" x2="48.1875" y2="88.50000000000004" style="visibility: inherit;" fill="rgb(0, 0, 0)" stroke="rgb(204, 204, 204)" stroke-width="1px"></line><line x1="53.1875" y1="70.80000000000004" x2="48.1875" y2="70.80000000000004" style="visibility: inherit;" fill="rgb(0, 0, 0)" stroke="rgb(204, 204, 204)" stroke-width="1px"></line><line x1="53.1875" y1="53.10000000000002" x2="48.1875" y2="53.10000000000002" style="visibility: inherit;" fill="rgb(0, 0, 0)" stroke="rgb(204, 204, 204)" stroke-width="1px"></line><line x1="53.1875" y1="35.400000000000006" x2="48.1875" y2="35.400000000000006" style="visibility: inherit;" fill="rgb(0, 0, 0)" stroke="rgb(204, 204, 204)" stroke-width="1px"></line><line x1="53.1875" y1="17.700000000000017" x2="48.1875" y2="17.700000000000017" style="visibility: inherit;" fill="rgb(0, 0, 0)" stroke="rgb(204, 204, 204)" stroke-width="1px"></line><line x1="53.1875" y1="0" x2="48.1875" y2="0" style="visibility: inherit;" fill="rgb(0, 0, 0)" stroke="rgb(204, 204, 204)" stroke-width="1px"></line></g><g transform="translate(43.1875, 0)"><text x="0" y="177" dx="0em" dy="0.3em" style="text-anchor: end; visibility: hidden; font-family: &quot;Helvetica Neue&quot;, sans-serif; font-size: 12px; font-weight: 200;" fill="rgb(50, 49, 63)" stroke="none" stroke-width="1px">0.84</text><text x="0" y="159.29999999999998" dx="0em" dy="0.3em" style="text-anchor: end; visibility: inherit; font-family: &quot;Helvetica Neue&quot;, sans-serif; font-size: 12px; font-weight: 200;" fill="rgb(50, 49, 63)" stroke="none" stroke-width="1px">0.86</text><text x="0" y="141.59999999999997" dx="0em" dy="0.3em" style="text-anchor: end; visibility: hidden; font-family: &quot;Helvetica Neue&quot;, sans-serif; font-size: 12px; font-weight: 200;" fill="rgb(50, 49, 63)" stroke="none" stroke-width="1px">0.88</text><text x="0" y="123.89999999999998" dx="0em" dy="0.3em" style="text-anchor: end; visibility: inherit; font-family: &quot;Helvetica Neue&quot;, sans-serif; font-size: 12px; font-weight: 200;" fill="rgb(50, 49, 63)" stroke="none" stroke-width="1px">0.9</text><text x="0" y="106.19999999999996" dx="0em" dy="0.3em" style="text-anchor: end; visibility: hidden; font-family: &quot;Helvetica Neue&quot;, sans-serif; font-size: 12px; font-weight: 200;" fill="rgb(50, 49, 63)" stroke="none" stroke-width="1px">0.92</text><text x="0" y="88.50000000000004" dx="0em" dy="0.3em" style="text-anchor: end; visibility: inherit; font-family: &quot;Helvetica Neue&quot;, sans-serif; font-size: 12px; font-weight: 200;" fill="rgb(50, 49, 63)" stroke="none" stroke-width="1px">0.94</text><text x="0" y="70.80000000000004" dx="0em" dy="0.3em" style="text-anchor: end; visibility: hidden; font-family: &quot;Helvetica Neue&quot;, sans-serif; font-size: 12px; font-weight: 200;" fill="rgb(50, 49, 63)" stroke="none" stroke-width="1px">0.96</text><text x="0" y="53.10000000000002" dx="0em" dy="0.3em" style="text-anchor: end; visibility: inherit; font-family: &quot;Helvetica Neue&quot;, sans-serif; font-size: 12px; font-weight: 200;" fill="rgb(50, 49, 63)" stroke="none" stroke-width="1px">0.98</text><text x="0" y="35.400000000000006" dx="0em" dy="0.3em" style="text-anchor: end; visibility: hidden; font-family: &quot;Helvetica Neue&quot;, sans-serif; font-size: 12px; font-weight: 200;" fill="rgb(50, 49, 63)" stroke="none" stroke-width="1px">1</text><text x="0" y="17.700000000000017" dx="0em" dy="0.3em" style="text-anchor: end; visibility: inherit; font-family: &quot;Helvetica Neue&quot;, sans-serif; font-size: 12px; font-weight: 200;" fill="rgb(50, 49, 63)" stroke="none" stroke-width="1px">1.02</text><text x="0" y="0" dx="0em" dy="0.3em" style="text-anchor: end; visibility: hidden; font-family: &quot;Helvetica Neue&quot;, sans-serif; font-size: 12px; font-weight: 200;" fill="rgb(50, 49, 63)" stroke="none" stroke-width="1px">1.04</text></g><line x1="53.1875" y1="0" x2="53.1875" y2="177" fill="rgb(0, 0, 0)" stroke="rgb(204, 204, 204)" stroke-width="1px"></line></g></g><g transform="translate(53, 0)" clip-path="url(#clip_0)"><clipPath id="clip_0"><rect width="276" height="176"></rect></clipPath><g><g><g><line x1="0" y1="0" x2="0" y2="177" fill="rgb(0, 0, 0)" stroke="rgb(60, 60, 60)" stroke-width="1px" opacity="0.25"></line><line x1="30.756944444444443" y1="0" x2="30.756944444444443" y2="177" fill="rgb(0, 0, 0)" stroke="rgb(60, 60, 60)" stroke-width="1px" opacity="0.25"></line><line x1="61.513888888888886" y1="0" x2="61.513888888888886" y2="177" fill="rgb(0, 0, 0)" stroke="rgb(60, 60, 60)" stroke-width="1px" opacity="0.25"></line><line x1="92.27083333333333" y1="0" x2="92.27083333333333" y2="177" fill="rgb(0, 0, 0)" stroke="rgb(60, 60, 60)" stroke-width="1px" opacity="0.25"></line><line x1="123.02777777777777" y1="0" x2="123.02777777777777" y2="177" fill="rgb(0, 0, 0)" stroke="rgb(60, 60, 60)" stroke-width="1px" opacity="0.25"></line><line x1="153.78472222222223" y1="0" x2="153.78472222222223" y2="177" fill="rgb(0, 0, 0)" stroke="rgb(60, 60, 60)" stroke-width="1px" opacity="0.25"></line><line x1="184.54166666666666" y1="0" x2="184.54166666666666" y2="177" fill="rgb(0, 0, 0)" stroke="rgb(60, 60, 60)" stroke-width="1px" opacity="0.25"></line><line x1="215.29861111111111" y1="0" x2="215.29861111111111" y2="177" fill="rgb(0, 0, 0)" stroke="rgb(60, 60, 60)" stroke-width="1px" opacity="0.25"></line><line x1="246.05555555555554" y1="0" x2="246.05555555555554" y2="177" fill="rgb(0, 0, 0)" stroke="rgb(60, 60, 60)" stroke-width="1px" opacity="0.25"></line><line x1="276.8125" y1="0" x2="276.8125" y2="177" fill="rgb(0, 0, 0)" stroke="rgb(60, 60, 60)" stroke-width="1px" opacity="0.25"></line></g><g><line x1="0" y1="177" x2="276.8125" y2="177" fill="rgb(0, 0, 0)" stroke="rgb(60, 60, 60)" stroke-width="1px" opacity="0.25"></line><line x1="0" y1="159.29999999999998" x2="276.8125" y2="159.29999999999998" fill="rgb(0, 0, 0)" stroke="rgb(60, 60, 60)" stroke-width="1px" opacity="0.25"></line><line x1="0" y1="141.59999999999997" x2="276.8125" y2="141.59999999999997" fill="rgb(0, 0, 0)" stroke="rgb(60, 60, 60)" stroke-width="1px" opacity="0.25"></line><line x1="0" y1="123.89999999999998" x2="276.8125" y2="123.89999999999998" fill="rgb(0, 0, 0)" stroke="rgb(60, 60, 60)" stroke-width="1px" opacity="0.25"></line><line x1="0" y1="106.19999999999996" x2="276.8125" y2="106.19999999999996" fill="rgb(0, 0, 0)" stroke="rgb(60, 60, 60)" stroke-width="1px" opacity="0.25"></line><line x1="0" y1="88.50000000000004" x2="276.8125" y2="88.50000000000004" fill="rgb(0, 0, 0)" stroke="rgb(60, 60, 60)" stroke-width="1px" opacity="0.25"></line><line x1="0" y1="70.80000000000004" x2="276.8125" y2="70.80000000000004" fill="rgb(0, 0, 0)" stroke="rgb(60, 60, 60)" stroke-width="1px" opacity="0.25"></line><line x1="0" y1="53.10000000000002" x2="276.8125" y2="53.10000000000002" fill="rgb(0, 0, 0)" stroke="rgb(60, 60, 60)" stroke-width="1px" opacity="0.25"></line><line x1="0" y1="35.400000000000006" x2="276.8125" y2="35.400000000000006" fill="rgb(0, 0, 0)" stroke="rgb(60, 60, 60)" stroke-width="1px" opacity="0.25"></line><line x1="0" y1="17.700000000000017" x2="276.8125" y2="17.700000000000017" fill="rgb(0, 0, 0)" stroke="rgb(60, 60, 60)" stroke-width="1px" opacity="0.25"></line><line x1="0" y1="0" x2="276.8125" y2="0" fill="rgb(0, 0, 0)" stroke="rgb(60, 60, 60)" stroke-width="1px" opacity="0.25"></line></g></g></g><g><g><line x1="0" y1="920.3999999999997" x2="276.8125" y2="920.3999999999997" fill="rgb(0, 0, 0)" stroke="rgb(153, 153, 153)" stroke-width="1.5px"></line></g></g><g><g><line x1="30.756944444444443" y1="0" x2="30.756944444444443" y2="177" fill="rgb(0, 0, 0)" stroke="rgb(153, 153, 153)" stroke-width="1.5px"></line></g></g><g><g><g><g><g><path stroke="rgb(238, 51, 119)" stroke-width="2px" d="M39.984027777777776,179.25404835550154L43.05972222222222,162.03113129927837L46.135416666666664,149.40789135388422L49.211111111111116,143.08703420135316L52.28680555555555,135.19119602526345L55.362500000000004,137.2224265888443L58.43819444444444,132.98354430193305L61.513888888888886,131.74987403715886L64.58958333333334,136.05955695543983L67.66527777777777,132.4623126680996L70.74097222222221,133.42824752457625L73.81666666666666,130.81850057251577L76.89236111111111,121.6039621342041L79.96805555555555,117.35277277422935L83.04375,114.66120047524487L86.11944444444444,110.78072243659764L89.19513888888889,135.712356712825L92.27083333333333,127.30551607934133L95.34652777777778,124.45644096949177L98.42222222222223,122.53464006310568L101.49791666666665,120.60276692447356L104.5736111111111,117.31964898682847L107.64930555555556,113.50897288654326L110.72500000000001,111.08097152154241L113.80069444444445,108.27898085535664L116.87638888888888,143.62621538503726L119.95208333333333,138.7801346701075L123.02777777777777,128.3676852859177L126.10347222222222,124.73980906984998L129.17916666666667,116.5450762484211L132.25486111111113,129.3990537900708L135.33055555555555,130.59783497543464L138.40625,123.24589349918023L141.48194444444442,114.8699459385759L144.5576388888889,110.48157769776873L147.63333333333333,115.56575028362737L150.70902777777778,116.77544375845815L153.78472222222223,112.26207664714342L156.86041666666665,107.78403697075551L159.9361111111111,104.8848201216937L163.01180555555555,101.9417012886658L166.0875,109.66302178733925L169.16319444444446,108.7734050036541L172.23888888888888,107.31925100323858L175.31458333333333,103.8271459091627L178.39027777777778,110.01548592515306L181.46597222222223,113.58688753769158L184.54166666666666,112.96853451445409L187.6173611111111,112.17271550961766L190.69305555555556,109.0048207644636L193.76874999999998,108.44929613852487L196.84444444444446,105.85038521160811L199.92013888888889,108.32663311881052L202.9958333333333,107.121978520883L206.0715277777778,102.15117715330788L209.1472222222222,106.67349677164529L212.2229166666667,105.06808928536861L215.29861111111111,104.31725893907237L218.37430555555554,102.80475330407917L221.45000000000002,105.01246045622534L224.52569444444444,103.92988619919593L227.6013888888889,112.62593104431625L230.67708333333334,109.48916423076153L233.75277777777777,106.04949887605761L236.82847222222222,103.06529463298475L239.90416666666667,105.02718285660364L242.97986111111112,102.80590046370271L246.05555555555554,108.19914993360177L249.13125,107.89508189150413L252.20694444444445,112.173042720489L255.2826388888889,117.64261560555238L258.35833333333335,110.2335788161513L261.43402777777777,114.5673576540325" style="fill: none;" fill="none"></path></g><g><path stroke="rgb(204, 51, 17)" stroke-width="2px" d="M36.90833333333333,260.3172041751444L39.984027777777776,153.3298520057786L43.05972222222222,100.67963408159427L46.135416666666664,73.11463518224203L49.211111111111116,57.661809517522514L52.28680555555555,48.937672910897476L55.362500000000004,43.86216184142907L58.43819444444444,41.12229163642479L61.513888888888886,39.531748460273235L64.58958333333334,38.672437090223184L67.66527777777777,37.80408216248699L70.74097222222221,37.62101282952355L73.81666666666666,37.74160081131521L76.89236111111111,37.10556916531576L79.96805555555555,36.4585648464124L83.04375,36.035067223847136L86.11944444444444,35.78101453272808L89.19513888888889,37.85892561627222L92.27083333333333,37.38863895181922L95.34652777777778,36.78786030013927L98.42222222222223,37.25932393853145L101.49791666666665,36.60408277406793L104.5736111111111,36.2286444081833L107.64930555555556,35.89718570256332L110.72500000000001,35.69831108229434L113.80069444444445,35.57898652724896L116.87638888888888,36.92339561154918L119.95208333333333,37.57073514096092L123.02777777777777,36.861746261928744L126.10347222222222,36.5071436926728L129.17916666666667,36.06428618035818L132.25486111111113,36.54196849005831L135.33055555555555,36.75778721079118L138.40625,36.692567227582856L141.48194444444442,36.24633098040749L144.5576388888889,35.96090739785643L147.63333333333333,36.39144761375911L150.70902777777778,36.543575219328346L153.78472222222223,36.192341653840316L156.86041666666665,35.87540499205002L159.9361111111111,35.68524299513845L163.01180555555555,35.57114579705009L166.0875,36.98948099654217L169.16319444444446,36.97318589711793L172.23888888888888,36.3793174124861L175.31458333333333,36.09378697019372L178.39027777777778,35.86938099348973L181.46597222222223,37.079928528590045L184.54166666666666,36.70886484820724L187.6173611111111,36.39771195434824L190.69305555555556,36.05173598398633L193.76874999999998,36.07424638432181L196.84444444444446,35.8399537048453L199.92013888888889,36.12416418801055L202.9958333333333,36.36550222641418L206.0715277777778,36.067794921434995L209.1472222222222,36.43787718918145L212.2229166666667,36.07583512488742L215.29861111111111,36.10640880598868L218.37430555555554,36.12475301464943L221.45000000000002,36.24195606255856L224.52569444444444,35.95828244891351L227.6013888888889,35.947362514773545L230.67708333333334,36.365617745184664L233.75277777777777,36.58116500917893L236.82847222222222,36.25030140247242L239.90416666666667,36.19338563541356L242.97986111111112,36.05303965246543L246.05555555555554,36.07502858540926L249.13125,36.15901259363591L252.20694444444445,36.244808872824336L255.2826388888889,36.06619065778577L258.35833333333335,35.941316791636524L261.43402777777777,35.919480183281166" style="fill: none;" fill="none"></path></g></g></g></g><g opacity="0.2"><g><g><g><path stroke="rgb(238, 51, 119)" stroke-width="2px" d="M33.83263888888889,286.03202261924736L36.90833333333333,173.81402202844617L39.984027777777776,144.07799341678617L43.05972222222222,141.7769808411598L46.135416666666664,132.9269892811775L49.211111111111116,134.34301325082777L52.28680555555555,123.90002110004424L55.362500000000004,140.18398025035856L58.43819444444444,126.73201628923415L61.513888888888886,129.91801747083662L64.58958333333334,142.48499282598493L67.66527777777777,127.08602228164672L70.74097222222221,134.8739958643913L73.81666666666666,126.90899291038512L76.89236111111111,107.79298582077026L79.96805555555555,110.97898700237273L83.04375,110.62498100996017L86.11944444444444,104.96099063158034L89.19513888888889,173.10601004362104L92.27083333333333,114.69602354764938L95.34652777777778,120.1829845547676L98.42222222222223,119.65200194120406L101.49791666666665,117.70499535799026L104.5736111111111,112.395010972023L107.64930555555556,107.79298582077026L110.72500000000001,107.43897982835769L113.80069444444445,104.07600202560424L116.87638888888888,196.64701291322706L119.95208333333333,131.51101806163786L123.02777777777777,112.74901696443557L126.10347222222222,119.2979959487915L129.17916666666667,104.25297864675521L132.25486111111113,148.68001856803892L135.33055555555555,132.39600666761396L138.40625,112.2179816007614L141.48194444444442,102.30602481365204L144.5576388888889,103.89902540445327L147.63333333333333,123.19200911521911L150.70902777777778,118.58998396396636L153.78472222222223,105.49202599525451L156.86041666666665,101.06697746515275L159.9361111111111,100.53599485158921L163.01180555555555,97.52702304124833L166.0875,121.2450025320053L169.16319444444446,107.43897982835769L172.23888888888888,105.13802000284194L175.31458333333333,98.5889882683754L178.39027777777778,119.2979959487915L181.46597222222223,118.94398995637893L184.54166666666666,112.04100497961043L187.6173611111111,110.97898700237273L190.69305555555556,104.25297864675521L193.76874999999998,107.61600919961928L196.84444444444446,101.95201882123948L199.92013888888889,112.04100497961043L202.9958333333333,105.31499662399291L206.0715277777778,94.69497510194779L209.1472222222222,113.45697619915008L212.2229166666667,102.65997805595399L215.29861111111111,103.19101341962815L218.37430555555554,100.53599485158921L221.45000000000002,108.32402118444442L224.52569444444444,102.30602481365204L227.6013888888889,125.66999831199645L230.67708333333334,104.78401401042937L233.75277777777777,100.89000084400178L236.82847222222222,98.5889882683754L239.90416666666667,107.97001519203185L242.97986111111112,99.47397687435151L246.05555555555554,116.28902413845061L249.13125,107.43897982835769L252.20694444444445,118.58998396396636L255.2826388888889,125.84697493314742L258.35833333333335,99.12002363204957L261.43402777777777,121.06802591085433" style="fill: none;" fill="none"></path></g><g><path stroke="rgb(204, 51, 17)" stroke-width="2px" d="M33.83263888888889,509.80424278378473L36.90833333333333,110.62498100996017L39.984027777777776,50.62199392318726L43.05972222222222,38.762977802753454L46.135416666666664,37.12577261924744L49.211111111111116,36.28498860597611L52.28680555555555,36.46201797723771L55.362500000000004,36.46201797723771L58.43819444444444,37.08151527643204L61.513888888888886,37.169977211952215L64.58958333333334,37.39126392602921L67.66527777777777,36.506275320053106L70.74097222222221,37.34700658321381L73.81666666666666,37.92224653959275L76.89236111111111,36.15226932764054L79.96805555555555,35.488514685630804L83.04375,35.400000000000006L86.11944444444444,35.400000000000006L89.19513888888889,40.97547569274903L92.27083333333333,36.68325194120408L95.34652777777778,35.886725270748144L98.42222222222223,37.96650388240815L101.49791666666665,35.621233963966375L104.5736111111111,35.665491306781774L107.64930555555556,35.400000000000006L110.72500000000001,35.400000000000006L113.80069444444445,35.400000000000006L116.87638888888888,38.94000717401505L119.95208333333333,38.541743838787085L123.02777777777777,35.79826333522797L126.10347222222222,35.97523995637894L129.17916666666667,35.400000000000006L132.25486111111113,37.25849189758301L135.33055555555555,37.08151527643204L138.40625,36.59473725557328L141.48194444444442,35.576976621150976L144.5576388888889,35.5327720284462L147.63333333333333,37.037257933616644L150.70902777777778,36.771766626834875L153.78472222222223,35.665491306781774L156.86041666666665,35.400000000000006L159.9361111111111,35.400000000000006L163.01180555555555,35.400000000000006L166.0875,39.11698379516602L169.16319444444446,36.948743247985846L172.23888888888888,35.488514685630804L175.31458333333333,35.665491306781774L178.39027777777778,35.5327720284462L181.46597222222223,38.89574983119965L184.54166666666666,36.15226932764054L187.6173611111111,35.93098261356354L190.69305555555556,35.5327720284462L193.76874999999998,36.10801198482514L196.84444444444446,35.488514685630804L199.92013888888889,36.55047991275788L202.9958333333333,36.727509284019476L206.0715277777778,35.621233963966375L209.1472222222222,36.993000590801245L212.2229166666667,35.5327720284462L215.29861111111111,36.15226932764054L218.37430555555554,36.15226932764054L221.45000000000002,36.41776063442231L224.52569444444444,35.5327720284462L227.6013888888889,35.93098261356354L230.67708333333334,36.993000590801245L233.75277777777777,36.904485905170446L236.82847222222222,35.75400599241257L239.90416666666667,36.10801198482514L242.97986111111112,35.84252067804337L246.05555555555554,36.10801198482514L249.13125,36.28498860597611L252.20694444444445,36.37350329160691L255.2826388888889,35.79826333522797L258.35833333333335,35.75400599241257L261.43402777777777,35.886725270748144" style="fill: none;" fill="none"></path></g></g></g></g></g></g><g transform="translate(53, 177)" clip-path="url(#clip_1)"><clipPath id="clip_1"><rect width="276" height="22"></rect></clipPath><g><g><line x1="0" y1="0" x2="0" y2="5" style="visibility: inherit;" fill="rgb(0, 0, 0)" stroke="rgb(204, 204, 204)" stroke-width="1px"></line><line x1="30.756944444444443" y1="0" x2="30.756944444444443" y2="5" style="visibility: inherit;" fill="rgb(0, 0, 0)" stroke="rgb(204, 204, 204)" stroke-width="1px"></line><line x1="61.513888888888886" y1="0" x2="61.513888888888886" y2="5" style="visibility: inherit;" fill="rgb(0, 0, 0)" stroke="rgb(204, 204, 204)" stroke-width="1px"></line><line x1="92.27083333333333" y1="0" x2="92.27083333333333" y2="5" style="visibility: inherit;" fill="rgb(0, 0, 0)" stroke="rgb(204, 204, 204)" stroke-width="1px"></line><line x1="123.02777777777777" y1="0" x2="123.02777777777777" y2="5" style="visibility: inherit;" fill="rgb(0, 0, 0)" stroke="rgb(204, 204, 204)" stroke-width="1px"></line><line x1="153.78472222222223" y1="0" x2="153.78472222222223" y2="5" style="visibility: inherit;" fill="rgb(0, 0, 0)" stroke="rgb(204, 204, 204)" stroke-width="1px"></line><line x1="184.54166666666666" y1="0" x2="184.54166666666666" y2="5" style="visibility: inherit;" fill="rgb(0, 0, 0)" stroke="rgb(204, 204, 204)" stroke-width="1px"></line><line x1="215.29861111111111" y1="0" x2="215.29861111111111" y2="5" style="visibility: inherit;" fill="rgb(0, 0, 0)" stroke="rgb(204, 204, 204)" stroke-width="1px"></line><line x1="246.05555555555554" y1="0" x2="246.05555555555554" y2="5" style="visibility: inherit;" fill="rgb(0, 0, 0)" stroke="rgb(204, 204, 204)" stroke-width="1px"></line><line x1="276.8125" y1="0" x2="276.8125" y2="5" style="visibility: inherit;" fill="rgb(0, 0, 0)" stroke="rgb(204, 204, 204)" stroke-width="1px"></line></g><g transform="translate(0, 8)"><text x="0" y="0" dx="0em" dy="0.95em" style="text-anchor: middle; visibility: hidden; font-family: &quot;Helvetica Neue&quot;, sans-serif; font-size: 12px; font-weight: 200;" fill="rgb(50, 49, 63)" stroke="none" stroke-width="1px">-10</text><text x="30.756944444444443" y="0" dx="0em" dy="0.95em" style="text-anchor: middle; visibility: inherit; font-family: &quot;Helvetica Neue&quot;, sans-serif; font-size: 12px; font-weight: 200;" fill="rgb(50, 49, 63)" stroke="none" stroke-width="1px">0</text><text x="61.513888888888886" y="0" dx="0em" dy="0.95em" style="text-anchor: middle; visibility: inherit; font-family: &quot;Helvetica Neue&quot;, sans-serif; font-size: 12px; font-weight: 200;" fill="rgb(50, 49, 63)" stroke="none" stroke-width="1px">10</text><text x="92.27083333333333" y="0" dx="0em" dy="0.95em" style="text-anchor: middle; visibility: inherit; font-family: &quot;Helvetica Neue&quot;, sans-serif; font-size: 12px; font-weight: 200;" fill="rgb(50, 49, 63)" stroke="none" stroke-width="1px">20</text><text x="123.02777777777777" y="0" dx="0em" dy="0.95em" style="text-anchor: middle; visibility: inherit; font-family: &quot;Helvetica Neue&quot;, sans-serif; font-size: 12px; font-weight: 200;" fill="rgb(50, 49, 63)" stroke="none" stroke-width="1px">30</text><text x="153.78472222222223" y="0" dx="0em" dy="0.95em" style="text-anchor: middle; visibility: inherit; font-family: &quot;Helvetica Neue&quot;, sans-serif; font-size: 12px; font-weight: 200;" fill="rgb(50, 49, 63)" stroke="none" stroke-width="1px">40</text><text x="184.54166666666666" y="0" dx="0em" dy="0.95em" style="text-anchor: middle; visibility: inherit; font-family: &quot;Helvetica Neue&quot;, sans-serif; font-size: 12px; font-weight: 200;" fill="rgb(50, 49, 63)" stroke="none" stroke-width="1px">50</text><text x="215.29861111111111" y="0" dx="0em" dy="0.95em" style="text-anchor: middle; visibility: inherit; font-family: &quot;Helvetica Neue&quot;, sans-serif; font-size: 12px; font-weight: 200;" fill="rgb(50, 49, 63)" stroke="none" stroke-width="1px">60</text><text x="246.05555555555554" y="0" dx="0em" dy="0.95em" style="text-anchor: middle; visibility: inherit; font-family: &quot;Helvetica Neue&quot;, sans-serif; font-size: 12px; font-weight: 200;" fill="rgb(50, 49, 63)" stroke="none" stroke-width="1px">70</text><text x="276.8125" y="0" dx="0em" dy="0.95em" style="text-anchor: middle; visibility: hidden; font-family: &quot;Helvetica Neue&quot;, sans-serif; font-size: 12px; font-weight: 200;" fill="rgb(50, 49, 63)" stroke="none" stroke-width="1px">80</text></g><line x1="0" y1="0" x2="276.8125" y2="0" fill="rgb(0, 0, 0)" stroke="rgb(204, 204, 204)" stroke-width="1px"></line></g></g></g></g></svg>