<svg viewBox="0 0 330 200" xmlns="http://www.w3.org/2000/svg"><g><g><g><g><g><line x1="53.1875" y1="177" x2="48.1875" y2="177" style="visibility: inherit;" fill="rgb(0, 0, 0)" stroke="rgb(204, 204, 204)" stroke-width="1px"></line><line x1="53.1875" y1="159.29999999999998" x2="48.1875" y2="159.29999999999998" style="visibility: inherit;" fill="rgb(0, 0, 0)" stroke="rgb(204, 204, 204)" stroke-width="1px"></line><line x1="53.1875" y1="141.59999999999997" x2="48.1875" y2="141.59999999999997" style="visibility: inherit;" fill="rgb(0, 0, 0)" stroke="rgb(204, 204, 204)" stroke-width="1px"></line><line x1="53.1875" y1="123.89999999999998" x2="48.1875" y2="123.89999999999998" style="visibility: inherit;" fill="rgb(0, 0, 0)" stroke="rgb(204, 204, 204)" stroke-width="1px"></line><line x1="53.1875" y1="106.19999999999996" x2="48.1875" y2="106.19999999999996" style="visibility: inherit;" fill="rgb(0, 0, 0)" stroke="rgb(204, 204, 204)" stroke-width="1px"></line><line x1="53.1875" y1="88.50000000000004" x2="48.1875" y2="88.50000000000004" style="visibility: inherit;" fill="rgb(0, 0, 0)" stroke="rgb(204, 204, 204)" stroke-width="1px"></line><line x1="53.1875" y1="70.80000000000004" x2="48.1875" y2="70.80000000000004" style="visibility: inherit;" fill="rgb(0, 0, 0)" stroke="rgb(204, 204, 204)" stroke-width="1px"></line><line x1="53.1875" y1="53.10000000000002" x2="48.1875" y2="53.10000000000002" style="visibility: inherit;" fill="rgb(0, 0, 0)" stroke="rgb(204, 204, 204)" stroke-width="1px"></line><line x1="53.1875" y1="35.400000000000006" x2="48.1875" y2="35.400000000000006" style="visibility: inherit;" fill="rgb(0, 0, 0)" stroke="rgb(204, 204, 204)" stroke-width="1px"></line><line x1="53.1875" y1="17.700000000000017" x2="48.1875" y2="17.700000000000017" style="visibility: inherit;" fill="rgb(0, 0, 0)" stroke="rgb(204, 204, 204)" stroke-width="1px"></line><line x1="53.1875" y1="0" x2="48.1875" y2="0" style="visibility: inherit;" fill="rgb(0, 0, 0)" stroke="rgb(204, 204, 204)" stroke-width="1px"></line></g><g transform="translate(43.1875, 0)"><text x="0" y="177" dx="0em" dy="0.3em" style="text-anchor: end; visibility: hidden; font-family: &quot;Helvetica Neue&quot;, sans-serif; font-size: 12px; font-weight: 200;" fill="rgb(50, 49, 63)" stroke="none" stroke-width="1px">0.84</text><text x="0" y="159.29999999999998" dx="0em" dy="0.3em" style="text-anchor: end; visibility: inherit; font-family: &quot;Helvetica Neue&quot;, sans-serif; font-size: 12px; font-weight: 200;" fill="rgb(50, 49, 63)" stroke="none" stroke-width="1px">0.86</text><text x="0" y="141.59999999999997" dx="0em" dy="0.3em" style="text-anchor: end; visibility: hidden; font-family: &quot;Helvetica Neue&quot;, sans-serif; font-size: 12px; font-weight: 200;" fill="rgb(50, 49, 63)" stroke="none" stroke-width="1px">0.88</text><text x="0" y="123.89999999999998" dx="0em" dy="0.3em" style="text-anchor: end; visibility: inherit; font-family: &quot;Helvetica Neue&quot;, sans-serif; font-size: 12px; font-weight: 200;" fill="rgb(50, 49, 63)" stroke="none" stroke-width="1px">0.9</text><text x="0" y="106.19999999999996" dx="0em" dy="0.3em" style="text-anchor: end; visibility: hidden; font-family: &quot;Helvetica Neue&quot;, sans-serif; font-size: 12px; font-weight: 200;" fill="rgb(50, 49, 63)" stroke="none" stroke-width="1px">0.92</text><text x="0" y="88.50000000000004" dx="0em" dy="0.3em" style="text-anchor: end; visibility: inherit; font-family: &quot;Helvetica Neue&quot;, sans-serif; font-size: 12px; font-weight: 200;" fill="rgb(50, 49, 63)" stroke="none" stroke-width="1px">0.94</text><text x="0" y="70.80000000000004" dx="0em" dy="0.3em" style="text-anchor: end; visibility: hidden; font-family: &quot;Helvetica Neue&quot;, sans-serif; font-size: 12px; font-weight: 200;" fill="rgb(50, 49, 63)" stroke="none" stroke-width="1px">0.96</text><text x="0" y="53.10000000000002" dx="0em" dy="0.3em" style="text-anchor: end; visibility: inherit; font-family: &quot;Helvetica Neue&quot;, sans-serif; font-size: 12px; font-weight: 200;" fill="rgb(50, 49, 63)" stroke="none" stroke-width="1px">0.98</text><text x="0" y="35.400000000000006" dx="0em" dy="0.3em" style="text-anchor: end; visibility: hidden; font-family: &quot;Helvetica Neue&quot;, sans-serif; font-size: 12px; font-weight: 200;" fill="rgb(50, 49, 63)" stroke="none" stroke-width="1px">1</text><text x="0" y="17.700000000000017" dx="0em" dy="0.3em" style="text-anchor: end; visibility: inherit; font-family: &quot;Helvetica Neue&quot;, sans-serif; font-size: 12px; font-weight: 200;" fill="rgb(50, 49, 63)" stroke="none" stroke-width="1px">1.02</text><text x="0" y="0" dx="0em" dy="0.3em" style="text-anchor: end; visibility: hidden; font-family: &quot;Helvetica Neue&quot;, sans-serif; font-size: 12px; font-weight: 200;" fill="rgb(50, 49, 63)" stroke="none" stroke-width="1px">1.04</text></g><line x1="53.1875" y1="0" x2="53.1875" y2="177" fill="rgb(0, 0, 0)" stroke="rgb(204, 204, 204)" stroke-width="1px"></line></g></g><g transform="translate(53, 0)" clip-path="url(#clip_0)"><clipPath id="clip_0"><rect width="276" height="176"></rect></clipPath><g><g><g><line x1="0" y1="0" x2="0" y2="177" fill="rgb(0, 0, 0)" stroke="rgb(60, 60, 60)" stroke-width="1px" opacity="0.25"></line><line x1="23.067708333333332" y1="0" x2="23.067708333333332" y2="177" fill="rgb(0, 0, 0)" stroke="rgb(60, 60, 60)" stroke-width="1px" opacity="0.25"></line><line x1="46.135416666666664" y1="0" x2="46.135416666666664" y2="177" fill="rgb(0, 0, 0)" stroke="rgb(60, 60, 60)" stroke-width="1px" opacity="0.25"></line><line x1="69.203125" y1="0" x2="69.203125" y2="177" fill="rgb(0, 0, 0)" stroke="rgb(60, 60, 60)" stroke-width="1px" opacity="0.25"></line><line x1="92.27083333333333" y1="0" x2="92.27083333333333" y2="177" fill="rgb(0, 0, 0)" stroke="rgb(60, 60, 60)" stroke-width="1px" opacity="0.25"></line><line x1="115.33854166666667" y1="0" x2="115.33854166666667" y2="177" fill="rgb(0, 0, 0)" stroke="rgb(60, 60, 60)" stroke-width="1px" opacity="0.25"></line><line x1="138.40625" y1="0" x2="138.40625" y2="177" fill="rgb(0, 0, 0)" stroke="rgb(60, 60, 60)" stroke-width="1px" opacity="0.25"></line><line x1="161.47395833333334" y1="0" x2="161.47395833333334" y2="177" fill="rgb(0, 0, 0)" stroke="rgb(60, 60, 60)" stroke-width="1px" opacity="0.25"></line><line x1="184.54166666666666" y1="0" x2="184.54166666666666" y2="177" fill="rgb(0, 0, 0)" stroke="rgb(60, 60, 60)" stroke-width="1px" opacity="0.25"></line><line x1="207.609375" y1="0" x2="207.609375" y2="177" fill="rgb(0, 0, 0)" stroke="rgb(60, 60, 60)" stroke-width="1px" opacity="0.25"></line><line x1="230.67708333333334" y1="0" x2="230.67708333333334" y2="177" fill="rgb(0, 0, 0)" stroke="rgb(60, 60, 60)" stroke-width="1px" opacity="0.25"></line><line x1="253.74479166666666" y1="0" x2="253.74479166666666" y2="177" fill="rgb(0, 0, 0)" stroke="rgb(60, 60, 60)" stroke-width="1px" opacity="0.25"></line><line x1="276.8125" y1="0" x2="276.8125" y2="177" fill="rgb(0, 0, 0)" stroke="rgb(60, 60, 60)" stroke-width="1px" opacity="0.25"></line></g><g><line x1="0" y1="177" x2="276.8125" y2="177" fill="rgb(0, 0, 0)" stroke="rgb(60, 60, 60)" stroke-width="1px" opacity="0.25"></line><line x1="0" y1="159.29999999999998" x2="276.8125" y2="159.29999999999998" fill="rgb(0, 0, 0)" stroke="rgb(60, 60, 60)" stroke-width="1px" opacity="0.25"></line><line x1="0" y1="141.59999999999997" x2="276.8125" y2="141.59999999999997" fill="rgb(0, 0, 0)" stroke="rgb(60, 60, 60)" stroke-width="1px" opacity="0.25"></line><line x1="0" y1="123.89999999999998" x2="276.8125" y2="123.89999999999998" fill="rgb(0, 0, 0)" stroke="rgb(60, 60, 60)" stroke-width="1px" opacity="0.25"></line><line x1="0" y1="106.19999999999996" x2="276.8125" y2="106.19999999999996" fill="rgb(0, 0, 0)" stroke="rgb(60, 60, 60)" stroke-width="1px" opacity="0.25"></line><line x1="0" y1="88.50000000000004" x2="276.8125" y2="88.50000000000004" fill="rgb(0, 0, 0)" stroke="rgb(60, 60, 60)" stroke-width="1px" opacity="0.25"></line><line x1="0" y1="70.80000000000004" x2="276.8125" y2="70.80000000000004" fill="rgb(0, 0, 0)" stroke="rgb(60, 60, 60)" stroke-width="1px" opacity="0.25"></line><line x1="0" y1="53.10000000000002" x2="276.8125" y2="53.10000000000002" fill="rgb(0, 0, 0)" stroke="rgb(60, 60, 60)" stroke-width="1px" opacity="0.25"></line><line x1="0" y1="35.400000000000006" x2="276.8125" y2="35.400000000000006" fill="rgb(0, 0, 0)" stroke="rgb(60, 60, 60)" stroke-width="1px" opacity="0.25"></line><line x1="0" y1="17.700000000000017" x2="276.8125" y2="17.700000000000017" fill="rgb(0, 0, 0)" stroke="rgb(60, 60, 60)" stroke-width="1px" opacity="0.25"></line><line x1="0" y1="0" x2="276.8125" y2="0" fill="rgb(0, 0, 0)" stroke="rgb(60, 60, 60)" stroke-width="1px" opacity="0.25"></line></g></g></g><g><g><line x1="0" y1="920.3999999999997" x2="276.8125" y2="920.3999999999997" fill="rgb(0, 0, 0)" stroke="rgb(153, 153, 153)" stroke-width="1.5px"></line></g></g><g><g><line x1="23.067708333333332" y1="0" x2="23.067708333333332" y2="177" fill="rgb(0, 0, 0)" stroke="rgb(153, 153, 153)" stroke-width="1.5px"></line></g></g><g><g><g><g><g><path stroke="rgb(238, 51, 119)" stroke-width="2px" d="M27.681250000000002,206.2050164580345L32.29479166666667,171.80063602477318L36.90833333333333,154.31511480419005L41.521875,141.39501651437845L46.135416666666664,142.6354772507028L50.74895833333333,139.30469297662637L55.362500000000004,127.72095171607842L59.97604166666667,134.8796041066534L64.58958333333334,131.80194632560165L69.203125,125.6302502128645L73.81666666666666,127.1384145463854L78.43020833333333,117.82237990997439L83.04375,120.18571131232815L87.65729166666667,128.61643274281172L92.27083333333333,121.27479772615905L96.88437499999999,118.71335609237846L101.49791666666665,125.81601448030094L106.11145833333335,119.17253789315451L110.72500000000001,118.23146809169333L115.33854166666667,122.55222927479059L119.95208333333333,119.69286795215169L124.565625,109.83518346051223L129.17916666666667,105.97387512605916L133.79270833333334,104.57751903308906L138.40625,103.52731596259166L143.0197916666667,100.91478019207601L147.63333333333333,101.89606513589287L152.24687500000002,100.78564785245474L156.86041666666665,103.16379782517501L161.47395833333334,98.8558838533104L166.0875,94.57192819078057L170.70104166666667,103.32955791529908L175.31458333333333,104.19454518858602L179.928125,101.81071995523735L184.54166666666666,100.52202725833904L189.15520833333335,108.59882440568767L193.76874999999998,106.50649064677545L198.38229166666667,102.91470359122756L202.9958333333333,102.104822490533L207.609375,107.84929380583921L212.2229166666667,105.84437925278175L216.83645833333333,102.58822741506181L221.45000000000002,97.23614208542358L226.06354166666665,100.96328174085254L230.67708333333334,100.29676914572256L235.290625,98.05605152807291L239.90416666666667,92.8884406395508L244.51770833333333,88.3718712369235L249.13125,93.52072547678924L253.74479166666666,95.33563754801291L258.35833333333335,104.84979025991015L262.971875,106.73508046908489L267.5854166666667,101.06944504047419" style="fill: none;" fill="none"></path></g><g><path stroke="rgb(204, 51, 17)" stroke-width="2px" d="M32.29479166666667,214.80057445317493L36.90833333333333,128.1010409868494L41.521875,87.79736210335716L46.135416666666664,66.37632742999422L50.74895833333333,54.95753786735456L55.362500000000004,49.4585978911155L59.97604166666667,45.359296249182336L64.58958333333334,43.08727343199678L69.203125,41.4182751343229L73.81666666666666,40.672059621967264L78.43020833333333,39.81807436868053L83.04375,39.324600582837036L87.65729166666667,39.790625715202054L92.27083333333333,38.72418305149296L96.88437499999999,38.491836484799194L101.49791666666665,38.35247050229793L106.11145833333335,38.35738968802559L110.72500000000001,38.07711882736183L115.33854166666667,38.475376438286474L119.95208333333333,38.00631526935962L124.565625,37.459379802113375L129.17916666666667,37.839240705325096L133.79270833333334,38.01404626429263L138.40625,37.78263560820625L143.0197916666667,38.22788205691265L147.63333333333333,37.48612979161402L152.24687500000002,36.86407053839088L156.86041666666665,37.818345004088144L161.47395833333334,37.36430767855859L166.0875,36.59628744238779L170.70104166666667,37.020474592316646L175.31458333333333,38.05378953114263L179.928125,37.257775552682745L184.54166666666666,36.97485729184925L189.15520833333335,37.30070418292917L193.76874999999998,37.283819268686244L198.38229166666667,37.22060060867591L202.9958333333333,36.75786222097847L207.609375,36.62182158617415L212.2229166666667,37.584501696335025L216.83645833333333,37.06469645994116L221.45000000000002,36.487311461384536L226.06354166666665,36.31788873360526L230.67708333333334,37.22513371289858L235.290625,37.273882861027715L239.90416666666667,36.55973559084228L244.51770833333333,36.09584135449492L249.13125,36.77329461716468L253.74479166666666,37.0558671149208L258.35833333333335,36.836030396972745L262.971875,36.91652141163058L267.5854166666667,36.54000882952923" style="fill: none;" fill="none"></path></g></g></g></g><g opacity="0.2"><g><g><g><path stroke="rgb(238, 51, 119)" stroke-width="2px" d="M27.681250000000002,206.2050164580345L32.29479166666667,151.15800776481626L36.90833333333333,137.52901443243024L41.521875,126.20098092555999L46.135416666666664,144.25502278804777L50.74895833333333,134.69701924324033L55.362500000000004,111.15601637363433L59.97604166666667,145.31698801517484L64.58958333333334,127.26299890279769L69.203125,116.46600075960158L73.81666666666666,129.38698210716245L78.43020833333333,103.89902540445327L83.04375,123.72299172878265L87.65729166666667,141.24599822759626L92.27083333333333,110.2709750175476L96.88437499999999,114.87300016880035L101.49791666666665,136.46699645519254L106.11145833333335,109.20900979042052L110.72500000000001,116.82000675201415L115.33854166666667,129.03297611474989L119.95208333333333,115.40398278236388L124.565625,95.04898109436036L129.17916666666667,100.18198885917664L133.79270833333334,102.48300143480301L138.40625,101.95201882123948L143.0197916666667,96.99598767757416L147.63333333333333,103.3679900407791L152.24687500000002,99.12002363204957L156.86041666666665,106.73102059364318L161.47395833333334,92.39401527643204L166.0875,88.14599611759186L170.70104166666667,116.46600075960158L175.31458333333333,105.49202599525451L179.928125,98.23498227596284L184.54166666666666,98.5889882683754L189.15520833333335,120.71401991844176L193.76874999999998,103.3679900407791L198.38229166666667,97.52702304124833L202.9958333333333,100.89000084400178L207.609375,116.46600075960158L212.2229166666667,102.83700742721558L216.83645833333333,97.7039996623993L221.45000000000002,89.20801409482957L226.06354166666665,106.55399122238158L230.67708333333334,99.29700025320054L235.290625,94.69497510194779L239.90416666666667,85.13702430725098L244.51770833333333,81.59701713323594L249.13125,101.24400683641434L253.74479166666666,98.05800565481186L258.35833333333335,119.12101932764052L262.971875,109.56301578283309L267.5854166666667,92.57099189758301" style="fill: none;" fill="none"></path></g><g><path stroke="rgb(204, 51, 17)" stroke-width="2px" d="M27.681250000000002,445.7302395343779L32.29479166666667,76.24277540445328L36.90833333333333,44.86948885917664L41.521875,40.40023573637009L46.135416666666664,38.40902456045151L50.74895833333333,39.16124113798142L55.362500000000004,41.59502574205399L59.97604166666667,39.38247510194779L64.58958333333334,39.73648109436036L69.203125,38.94000717401505L73.81666666666666,39.55950447320939L78.43020833333333,38.541743838787085L83.04375,38.586001181602484L87.65729166666667,40.48875042200089L92.27083333333333,37.12577261924744L96.88437499999999,38.14348050355912L101.49791666666665,38.14348050355912L106.11145833333335,38.364767217636114L110.72500000000001,37.65675523281098L115.33854166666667,39.07272645235062L119.95208333333333,37.30274924039841L124.565625,36.63899459838868L129.17916666666667,38.40902456045151L133.79270833333334,38.276252532005316L138.40625,37.43552126884461L143.0197916666667,38.89574983119965L147.63333333333333,36.37350329160691L152.24687500000002,35.93098261356354L156.86041666666665,39.24975582361222L161.47395833333334,36.68325194120408L166.0875,35.444257342815405L170.70104166666667,37.65675523281098L175.31458333333333,39.603761816024786L179.928125,36.06375464200974L184.54166666666666,36.55047991275788L189.15520833333335,37.78947451114655L193.76874999999998,37.25849189758301L198.38229166666667,37.12577261924744L202.9958333333333,36.06375464200974L207.609375,36.41776063442231L212.2229166666667,39.02852185964585L216.83645833333333,36.28498860597611L221.45000000000002,35.621233963966375L226.06354166666665,36.06375464200974L230.67708333333334,38.586001181602484L235.290625,37.34700658321381L239.90416666666667,35.488514685630804L244.51770833333333,35.400000000000006L249.13125,37.78947451114655L253.74479166666666,37.47972586154938L258.35833333333335,36.506275320053106L262.971875,37.037257933616644L267.5854166666667,35.97523995637894" style="fill: none;" fill="none"></path></g></g></g></g></g></g><g transform="translate(53, 177)" clip-path="url(#clip_1)"><clipPath id="clip_1"><rect width="276" height="22"></rect></clipPath><g><g><line x1="0" y1="0" x2="0" y2="5" style="visibility: inherit;" fill="rgb(0, 0, 0)" stroke="rgb(204, 204, 204)" stroke-width="1px"></line><line x1="23.067708333333332" y1="0" x2="23.067708333333332" y2="5" style="visibility: inherit;" fill="rgb(0, 0, 0)" stroke="rgb(204, 204, 204)" stroke-width="1px"></line><line x1="46.135416666666664" y1="0" x2="46.135416666666664" y2="5" style="visibility: inherit;" fill="rgb(0, 0, 0)" stroke="rgb(204, 204, 204)" stroke-width="1px"></line><line x1="69.203125" y1="0" x2="69.203125" y2="5" style="visibility: inherit;" fill="rgb(0, 0, 0)" stroke="rgb(204, 204, 204)" stroke-width="1px"></line><line x1="92.27083333333333" y1="0" x2="92.27083333333333" y2="5" style="visibility: inherit;" fill="rgb(0, 0, 0)" stroke="rgb(204, 204, 204)" stroke-width="1px"></line><line x1="115.33854166666667" y1="0" x2="115.33854166666667" y2="5" style="visibility: inherit;" fill="rgb(0, 0, 0)" stroke="rgb(204, 204, 204)" stroke-width="1px"></line><line x1="138.40625" y1="0" x2="138.40625" y2="5" style="visibility: inherit;" fill="rgb(0, 0, 0)" stroke="rgb(204, 204, 204)" stroke-width="1px"></line><line x1="161.47395833333334" y1="0" x2="161.47395833333334" y2="5" style="visibility: inherit;" fill="rgb(0, 0, 0)" stroke="rgb(204, 204, 204)" stroke-width="1px"></line><line x1="184.54166666666666" y1="0" x2="184.54166666666666" y2="5" style="visibility: inherit;" fill="rgb(0, 0, 0)" stroke="rgb(204, 204, 204)" stroke-width="1px"></line><line x1="207.609375" y1="0" x2="207.609375" y2="5" style="visibility: inherit;" fill="rgb(0, 0, 0)" stroke="rgb(204, 204, 204)" stroke-width="1px"></line><line x1="230.67708333333334" y1="0" x2="230.67708333333334" y2="5" style="visibility: inherit;" fill="rgb(0, 0, 0)" stroke="rgb(204, 204, 204)" stroke-width="1px"></line><line x1="253.74479166666666" y1="0" x2="253.74479166666666" y2="5" style="visibility: inherit;" fill="rgb(0, 0, 0)" stroke="rgb(204, 204, 204)" stroke-width="1px"></line><line x1="276.8125" y1="0" x2="276.8125" y2="5" style="visibility: inherit;" fill="rgb(0, 0, 0)" stroke="rgb(204, 204, 204)" stroke-width="1px"></line></g><g transform="translate(0, 8)"><text x="0" y="0" dx="0em" dy="0.95em" style="text-anchor: middle; visibility: hidden; font-family: &quot;Helvetica Neue&quot;, sans-serif; font-size: 12px; font-weight: 200;" fill="rgb(50, 49, 63)" stroke="none" stroke-width="1px">-5</text><text x="23.067708333333332" y="0" dx="0em" dy="0.95em" style="text-anchor: middle; visibility: inherit; font-family: &quot;Helvetica Neue&quot;, sans-serif; font-size: 12px; font-weight: 200;" fill="rgb(50, 49, 63)" stroke="none" stroke-width="1px">0</text><text x="46.135416666666664" y="0" dx="0em" dy="0.95em" style="text-anchor: middle; visibility: inherit; font-family: &quot;Helvetica Neue&quot;, sans-serif; font-size: 12px; font-weight: 200;" fill="rgb(50, 49, 63)" stroke="none" stroke-width="1px">5</text><text x="69.203125" y="0" dx="0em" dy="0.95em" style="text-anchor: middle; visibility: inherit; font-family: &quot;Helvetica Neue&quot;, sans-serif; font-size: 12px; font-weight: 200;" fill="rgb(50, 49, 63)" stroke="none" stroke-width="1px">10</text><text x="92.27083333333333" y="0" dx="0em" dy="0.95em" style="text-anchor: middle; visibility: inherit; font-family: &quot;Helvetica Neue&quot;, sans-serif; font-size: 12px; font-weight: 200;" fill="rgb(50, 49, 63)" stroke="none" stroke-width="1px">15</text><text x="115.33854166666667" y="0" dx="0em" dy="0.95em" style="text-anchor: middle; visibility: inherit; font-family: &quot;Helvetica Neue&quot;, sans-serif; font-size: 12px; font-weight: 200;" fill="rgb(50, 49, 63)" stroke="none" stroke-width="1px">20</text><text x="138.40625" y="0" dx="0em" dy="0.95em" style="text-anchor: middle; visibility: inherit; font-family: &quot;Helvetica Neue&quot;, sans-serif; font-size: 12px; font-weight: 200;" fill="rgb(50, 49, 63)" stroke="none" stroke-width="1px">25</text><text x="161.47395833333334" y="0" dx="0em" dy="0.95em" style="text-anchor: middle; visibility: inherit; font-family: &quot;Helvetica Neue&quot;, sans-serif; font-size: 12px; font-weight: 200;" fill="rgb(50, 49, 63)" stroke="none" stroke-width="1px">30</text><text x="184.54166666666666" y="0" dx="0em" dy="0.95em" style="text-anchor: middle; visibility: inherit; font-family: &quot;Helvetica Neue&quot;, sans-serif; font-size: 12px; font-weight: 200;" fill="rgb(50, 49, 63)" stroke="none" stroke-width="1px">35</text><text x="207.609375" y="0" dx="0em" dy="0.95em" style="text-anchor: middle; visibility: inherit; font-family: &quot;Helvetica Neue&quot;, sans-serif; font-size: 12px; font-weight: 200;" fill="rgb(50, 49, 63)" stroke="none" stroke-width="1px">40</text><text x="230.67708333333334" y="0" dx="0em" dy="0.95em" style="text-anchor: middle; visibility: inherit; font-family: &quot;Helvetica Neue&quot;, sans-serif; font-size: 12px; font-weight: 200;" fill="rgb(50, 49, 63)" stroke="none" stroke-width="1px">45</text><text x="253.74479166666666" y="0" dx="0em" dy="0.95em" style="text-anchor: middle; visibility: inherit; font-family: &quot;Helvetica Neue&quot;, sans-serif; font-size: 12px; font-weight: 200;" fill="rgb(50, 49, 63)" stroke="none" stroke-width="1px">50</text><text x="276.8125" y="0" dx="0em" dy="0.95em" style="text-anchor: middle; visibility: hidden; font-family: &quot;Helvetica Neue&quot;, sans-serif; font-size: 12px; font-weight: 200;" fill="rgb(50, 49, 63)" stroke="none" stroke-width="1px">55</text></g><line x1="0" y1="0" x2="276.8125" y2="0" fill="rgb(0, 0, 0)" stroke="rgb(204, 204, 204)" stroke-width="1px"></line></g></g></g></g></svg>