<svg viewBox="0 0 330 200" xmlns="http://www.w3.org/2000/svg"><g><g><g><g><g><line x1="53.1875" y1="177" x2="48.1875" y2="177" style="visibility: inherit;" fill="rgb(0, 0, 0)" stroke="rgb(204, 204, 204)" stroke-width="1px"></line><line x1="53.1875" y1="159.3" x2="48.1875" y2="159.3" style="visibility: inherit;" fill="rgb(0, 0, 0)" stroke="rgb(204, 204, 204)" stroke-width="1px"></line><line x1="53.1875" y1="141.6" x2="48.1875" y2="141.6" style="visibility: inherit;" fill="rgb(0, 0, 0)" stroke="rgb(204, 204, 204)" stroke-width="1px"></line><line x1="53.1875" y1="123.89999999999999" x2="48.1875" y2="123.89999999999999" style="visibility: inherit;" fill="rgb(0, 0, 0)" stroke="rgb(204, 204, 204)" stroke-width="1px"></line><line x1="53.1875" y1="106.2" x2="48.1875" y2="106.2" style="visibility: inherit;" fill="rgb(0, 0, 0)" stroke="rgb(204, 204, 204)" stroke-width="1px"></line><line x1="53.1875" y1="88.5" x2="48.1875" y2="88.5" style="visibility: inherit;" fill="rgb(0, 0, 0)" stroke="rgb(204, 204, 204)" stroke-width="1px"></line><line x1="53.1875" y1="70.8" x2="48.1875" y2="70.8" style="visibility: inherit;" fill="rgb(0, 0, 0)" stroke="rgb(204, 204, 204)" stroke-width="1px"></line><line x1="53.1875" y1="53.10000000000001" x2="48.1875" y2="53.10000000000001" style="visibility: inherit;" fill="rgb(0, 0, 0)" stroke="rgb(204, 204, 204)" stroke-width="1px"></line><line x1="53.1875" y1="35.400000000000006" x2="48.1875" y2="35.400000000000006" style="visibility: inherit;" fill="rgb(0, 0, 0)" stroke="rgb(204, 204, 204)" stroke-width="1px"></line><line x1="53.1875" y1="17.69999999999999" x2="48.1875" y2="17.69999999999999" style="visibility: inherit;" fill="rgb(0, 0, 0)" stroke="rgb(204, 204, 204)" stroke-width="1px"></line><line x1="53.1875" y1="0" x2="48.1875" y2="0" style="visibility: inherit;" fill="rgb(0, 0, 0)" stroke="rgb(204, 204, 204)" stroke-width="1px"></line></g><g transform="translate(43.1875, 0)"><text x="0" y="177" dx="0em" dy="0.3em" style="text-anchor: end; visibility: hidden; font-family: &quot;Helvetica Neue&quot;, sans-serif; font-size: 12px; font-weight: 200;" fill="rgb(50, 49, 63)" stroke="none" stroke-width="1px">-0.1</text><text x="0" y="159.3" dx="0em" dy="0.3em" style="text-anchor: end; visibility: inherit; font-family: &quot;Helvetica Neue&quot;, sans-serif; font-size: 12px; font-weight: 200;" fill="rgb(50, 49, 63)" stroke="none" stroke-width="1px">0</text><text x="0" y="141.6" dx="0em" dy="0.3em" style="text-anchor: end; visibility: hidden; font-family: &quot;Helvetica Neue&quot;, sans-serif; font-size: 12px; font-weight: 200;" fill="rgb(50, 49, 63)" stroke="none" stroke-width="1px">0.1</text><text x="0" y="123.89999999999999" dx="0em" dy="0.3em" style="text-anchor: end; visibility: inherit; font-family: &quot;Helvetica Neue&quot;, sans-serif; font-size: 12px; font-weight: 200;" fill="rgb(50, 49, 63)" stroke="none" stroke-width="1px">0.2</text><text x="0" y="106.2" dx="0em" dy="0.3em" style="text-anchor: end; visibility: hidden; font-family: &quot;Helvetica Neue&quot;, sans-serif; font-size: 12px; font-weight: 200;" fill="rgb(50, 49, 63)" stroke="none" stroke-width="1px">0.3</text><text x="0" y="88.5" dx="0em" dy="0.3em" style="text-anchor: end; visibility: inherit; font-family: &quot;Helvetica Neue&quot;, sans-serif; font-size: 12px; font-weight: 200;" fill="rgb(50, 49, 63)" stroke="none" stroke-width="1px">0.4</text><text x="0" y="70.8" dx="0em" dy="0.3em" style="text-anchor: end; visibility: hidden; font-family: &quot;Helvetica Neue&quot;, sans-serif; font-size: 12px; font-weight: 200;" fill="rgb(50, 49, 63)" stroke="none" stroke-width="1px">0.5</text><text x="0" y="53.10000000000001" dx="0em" dy="0.3em" style="text-anchor: end; visibility: inherit; font-family: &quot;Helvetica Neue&quot;, sans-serif; font-size: 12px; font-weight: 200;" fill="rgb(50, 49, 63)" stroke="none" stroke-width="1px">0.6</text><text x="0" y="35.400000000000006" dx="0em" dy="0.3em" style="text-anchor: end; visibility: hidden; font-family: &quot;Helvetica Neue&quot;, sans-serif; font-size: 12px; font-weight: 200;" fill="rgb(50, 49, 63)" stroke="none" stroke-width="1px">0.7</text><text x="0" y="17.69999999999999" dx="0em" dy="0.3em" style="text-anchor: end; visibility: inherit; font-family: &quot;Helvetica Neue&quot;, sans-serif; font-size: 12px; font-weight: 200;" fill="rgb(50, 49, 63)" stroke="none" stroke-width="1px">0.8</text><text x="0" y="0" dx="0em" dy="0.3em" style="text-anchor: end; visibility: hidden; font-family: &quot;Helvetica Neue&quot;, sans-serif; font-size: 12px; font-weight: 200;" fill="rgb(50, 49, 63)" stroke="none" stroke-width="1px">0.9</text></g><line x1="53.1875" y1="0" x2="53.1875" y2="177" fill="rgb(0, 0, 0)" stroke="rgb(204, 204, 204)" stroke-width="1px"></line></g></g><g transform="translate(53, 0)" clip-path="url(#clip_0)"><clipPath id="clip_0"><rect width="276" height="176"></rect></clipPath><g><g><g><line x1="0" y1="0" x2="0" y2="177" fill="rgb(0, 0, 0)" stroke="rgb(60, 60, 60)" stroke-width="1px" opacity="0.25"></line><line x1="30.756944444444443" y1="0" x2="30.756944444444443" y2="177" fill="rgb(0, 0, 0)" stroke="rgb(60, 60, 60)" stroke-width="1px" opacity="0.25"></line><line x1="61.513888888888886" y1="0" x2="61.513888888888886" y2="177" fill="rgb(0, 0, 0)" stroke="rgb(60, 60, 60)" stroke-width="1px" opacity="0.25"></line><line x1="92.27083333333333" y1="0" x2="92.27083333333333" y2="177" fill="rgb(0, 0, 0)" stroke="rgb(60, 60, 60)" stroke-width="1px" opacity="0.25"></line><line x1="123.02777777777777" y1="0" x2="123.02777777777777" y2="177" fill="rgb(0, 0, 0)" stroke="rgb(60, 60, 60)" stroke-width="1px" opacity="0.25"></line><line x1="153.78472222222223" y1="0" x2="153.78472222222223" y2="177" fill="rgb(0, 0, 0)" stroke="rgb(60, 60, 60)" stroke-width="1px" opacity="0.25"></line><line x1="184.54166666666666" y1="0" x2="184.54166666666666" y2="177" fill="rgb(0, 0, 0)" stroke="rgb(60, 60, 60)" stroke-width="1px" opacity="0.25"></line><line x1="215.29861111111111" y1="0" x2="215.29861111111111" y2="177" fill="rgb(0, 0, 0)" stroke="rgb(60, 60, 60)" stroke-width="1px" opacity="0.25"></line><line x1="246.05555555555554" y1="0" x2="246.05555555555554" y2="177" fill="rgb(0, 0, 0)" stroke="rgb(60, 60, 60)" stroke-width="1px" opacity="0.25"></line><line x1="276.8125" y1="0" x2="276.8125" y2="177" fill="rgb(0, 0, 0)" stroke="rgb(60, 60, 60)" stroke-width="1px" opacity="0.25"></line></g><g><line x1="0" y1="177" x2="276.8125" y2="177" fill="rgb(0, 0, 0)" stroke="rgb(60, 60, 60)" stroke-width="1px" opacity="0.25"></line><line x1="0" y1="159.3" x2="276.8125" y2="159.3" fill="rgb(0, 0, 0)" stroke="rgb(60, 60, 60)" stroke-width="1px" opacity="0.25"></line><line x1="0" y1="141.6" x2="276.8125" y2="141.6" fill="rgb(0, 0, 0)" stroke="rgb(60, 60, 60)" stroke-width="1px" opacity="0.25"></line><line x1="0" y1="123.89999999999999" x2="276.8125" y2="123.89999999999999" fill="rgb(0, 0, 0)" stroke="rgb(60, 60, 60)" stroke-width="1px" opacity="0.25"></line><line x1="0" y1="106.2" x2="276.8125" y2="106.2" fill="rgb(0, 0, 0)" stroke="rgb(60, 60, 60)" stroke-width="1px" opacity="0.25"></line><line x1="0" y1="88.5" x2="276.8125" y2="88.5" fill="rgb(0, 0, 0)" stroke="rgb(60, 60, 60)" stroke-width="1px" opacity="0.25"></line><line x1="0" y1="70.8" x2="276.8125" y2="70.8" fill="rgb(0, 0, 0)" stroke="rgb(60, 60, 60)" stroke-width="1px" opacity="0.25"></line><line x1="0" y1="53.10000000000001" x2="276.8125" y2="53.10000000000001" fill="rgb(0, 0, 0)" stroke="rgb(60, 60, 60)" stroke-width="1px" opacity="0.25"></line><line x1="0" y1="35.400000000000006" x2="276.8125" y2="35.400000000000006" fill="rgb(0, 0, 0)" stroke="rgb(60, 60, 60)" stroke-width="1px" opacity="0.25"></line><line x1="0" y1="17.69999999999999" x2="276.8125" y2="17.69999999999999" fill="rgb(0, 0, 0)" stroke="rgb(60, 60, 60)" stroke-width="1px" opacity="0.25"></line><line x1="0" y1="0" x2="276.8125" y2="0" fill="rgb(0, 0, 0)" stroke="rgb(60, 60, 60)" stroke-width="1px" opacity="0.25"></line></g></g></g><g><g><line x1="0" y1="159.3" x2="276.8125" y2="159.3" fill="rgb(0, 0, 0)" stroke="rgb(153, 153, 153)" stroke-width="1.5px"></line></g></g><g><g><line x1="30.756944444444443" y1="0" x2="30.756944444444443" y2="177" fill="rgb(0, 0, 0)" stroke="rgb(153, 153, 153)" stroke-width="1.5px"></line></g></g><g><g><g><g><g><path stroke="rgb(51, 187, 238)" stroke-width="2px" d="M43.05972222222222,-3.760531501603481L46.135416666666664,20.74740022420059L49.211111111111116,37.84569161514463L52.28680555555555,52.185591363728065L55.362500000000004,57.28420752915483L58.43819444444444,65.88666984866653L61.513888888888886,70.7035562081652L64.58958333333334,70.09803558773523L67.66527777777777,75.46492105606944L70.74097222222221,77.26906002626322L73.81666666666666,79.23025608710658L76.89236111111111,88.47711853320203L79.96805555555555,93.49747261138108L83.04375,96.86959122481883L86.11944444444444,99.70278939448346L89.19513888888889,77.36991755398714L92.27083333333333,85.40494066710973L95.34652777777778,87.98735719791816L98.42222222222223,90.85899721597819L101.49791666666665,92.84428540836409L104.5736111111111,95.75021270091065L107.64930555555556,98.58359752801474L110.72500000000001,100.52831456937409L113.80069444444445,102.56220134689332L116.87638888888888,72.11897599275063L119.95208333333333,77.77545616889213L123.02777777777777,87.27896549433376L126.10347222222222,91.50124326522709L129.17916666666667,97.90128371615157L132.25486111111113,87.50101371632631L135.33055555555555,86.37866791386394L138.40625,92.69885757998937L141.48194444444442,99.19830535580773L144.5576388888889,101.70077545957766L147.63333333333333,96.83511024526258L150.70902777777778,96.85902171743177L153.78472222222223,100.93659146742067L156.86041666666665,104.35533473358198L159.9361111111111,105.84632387629762L163.01180555555555,107.44565883963759L166.0875,101.51315191219464L169.16319444444446,103.45669332780903L172.23888888888888,102.83942555685049L175.31458333333333,105.04398769446043L178.39027777777778,100.54749946290785L181.46597222222223,98.57826068216612L184.54166666666666,98.91389077552859L187.6173611111111,100.69891366273258L190.69305555555556,103.70691778726317L193.76874999999998,104.21949658195427L196.84444444444446,106.23618331313494L199.92013888888889,104.91105457520618L202.9958333333333,107.04664054856461L206.0715277777778,110.51922434297737L209.1472222222222,106.78448700265558L212.2229166666667,107.6866966399937L215.29861111111111,107.22110299071005L218.37430555555554,109.08163099885189L221.45000000000002,106.04231729865191L224.52569444444444,107.74539258456304L227.6013888888889,101.25136190400163L230.67708333333334,102.81904471484208L233.75277777777777,104.99600938419927L236.82847222222222,108.2510389128949L239.90416666666667,106.47336413619672L242.97986111111112,107.38599406097983L246.05555555555554,101.92027884492072L249.13125,101.86849183421607L252.20694444444445,98.54124456513688L255.2826388888889,94.6671357456968L258.35833333333335,100.53182128811633L261.43402777777777,96.61445584860299" style="fill: none;" fill="none"></path></g><g><path stroke="rgb(0, 119, 187)" stroke-width="2px" d="M39.984027777777776,-37.72101134828159L43.05972222222222,37.37056363452882L46.135416666666664,81.84129288235961L49.211111111111116,108.9809920706515L52.28680555555555,126.05411025678654L55.362500000000004,136.61519858969717L58.43819444444444,143.23208091340916L61.513888888888886,147.62395502289837L64.58958333333334,150.39385625017945L67.66527777777777,152.63673343604268L70.74097222222221,153.90134203787755L73.81666666666666,154.5993504538633L76.89236111111111,155.71171629634196L79.96805555555555,156.80782926881042L83.04375,157.5742664835708L86.11944444444444,158.07621974981154L89.19513888888889,156.33755749890952L92.27083333333333,156.7834043154046L95.34652777777778,157.42626205895277L98.42222222222223,157.1346891490328L101.49791666666665,157.72181741712944L104.5736111111111,158.13777654164863L107.64930555555556,158.48662322594546L110.72500000000001,158.72925586246345L113.80069444444445,158.8958347439056L116.87638888888888,157.87242506818825L119.95208333333333,157.26295402438245L123.02777777777777,157.7484516361605L126.10347222222222,158.06848351923082L129.17916666666667,158.4860289709859L132.25486111111113,158.07541829060818L135.33055555555555,157.85792077848805L138.40625,157.93454090656624L141.48194444444442,158.37294586036055L144.5576388888889,158.64584979536713L147.63333333333333,158.26316120823728L150.70902777777778,158.0912689424232L153.78472222222223,158.43884836510392L156.86041666666665,158.71525684748468L159.9361111111111,158.90931905892984L163.01180555555555,159.03509017576368L166.0875,157.85089031705363L169.16319444444446,157.8040029275315L172.23888888888888,158.28821617188663L175.31458333333333,158.56435757256654L178.39027777777778,158.7813897333096L181.46597222222223,157.89909581147737L184.54166666666666,158.14230743630043L187.6173611111111,158.39388010736042L190.69305555555556,158.66753312733914L193.76874999999998,158.6554172884838L196.84444444444446,158.8262935301017L199.92013888888889,158.56187453771224L202.9958333333333,158.40612499180187L206.0715277777778,158.62949371446078L209.1472222222222,158.3457615349227L212.2229166666667,158.59971165660414L215.29861111111111,158.67107362374824L218.37430555555554,158.6397619802142L221.45000000000002,158.51113755983917L224.52569444444444,158.74599065870976L227.6013888888889,158.7120095592197L230.67708333333334,158.43624469020702L233.75277777777777,158.25870958706727L236.82847222222222,158.48457536280372L239.90416666666667,158.54504994930085L242.97986111111112,158.70692793412138L246.05555555555554,158.66300566022474L249.13125,158.67033487347814L252.20694444444445,158.59863655895325L255.2826388888889,158.69563105144923L258.35833333333335,158.77433056103854L261.43402777777777,158.74091793128576" style="fill: none;" fill="none"></path></g></g></g></g><g opacity="0.2"><g><g><g><path stroke="rgb(51, 187, 238)" stroke-width="2px" d="M36.90833333333333,-36.61711807250978L39.984027777777776,19.305574107170116L43.05972222222222,36.058112490177166L46.135416666666664,52.744955885410306L49.211111111111116,61.498783993721005L52.28680555555555,72.69187744259834L55.362500000000004,64.71803884506225L58.43819444444444,78.57363082766533L61.513888888888886,77.85607107281685L64.58958333333334,69.19524668455124L67.66527777777777,83.48604290485382L70.74097222222221,79.96937765479088L73.81666666666666,82.1682079911232L76.89236111111111,102.33654286265373L79.96805555555555,101.02446298599243L83.04375,101.92634217739105L86.11944444444444,103.95186730027199L89.19513888888889,43.874011981487286L92.27083333333333,97.45674090385437L95.34652777777778,91.86084036827087L98.42222222222223,95.16636275053024L101.49791666666665,95.82217850089073L104.5736111111111,100.10906921625137L107.64930555555556,102.83365463018417L110.72500000000001,103.44538183808326L113.80069444444445,105.61302630901336L116.87638888888888,26.454184699058544L119.95208333333333,86.26017122268676L123.02777777777777,101.53422423005104L126.10347222222222,97.8346585214138L129.17916666666667,107.50134311914444L132.25486111111113,71.90060995817184L135.33055555555555,84.69514929056167L138.40625,102.17914180755615L141.48194444444442,108.94747685194015L144.5576388888889,105.4544805765152L147.63333333333333,89.5366124689579L150.70902777777778,96.89488892555237L153.78472222222223,107.05294607877731L156.86041666666665,109.48344962596893L159.9361111111111,108.08280758857727L163.01180555555555,109.84466128349304L166.0875,92.61439152359962L169.16319444444446,106.37200545072555L172.23888888888888,101.91352390050888L175.31458333333333,108.3508309006691L178.39027777777778,93.80276711583137L181.46597222222223,95.62440251111984L184.54166666666666,99.41733591556549L187.6173611111111,103.37644799351692L190.69305555555556,108.21892397403717L193.76874999999998,104.98836477398872L196.84444444444446,109.26121340990066L199.92013888888889,102.92336146831512L202.9958333333333,110.25001950860023L206.0715277777778,115.72810003459455L209.1472222222222,101.18238099217415L212.2229166666667,109.04001109600067L215.29861111111111,106.52271251678467L218.37430555555554,111.87242301106453L221.45000000000002,101.48334674835205L224.52569444444444,110.30000551342964L227.6013888888889,91.51031588315963L230.67708333333334,105.17056893110275L233.75277777777777,108.26145638823509L236.82847222222222,113.13358320593835L239.90416666666667,103.80685197114944L242.97986111111112,108.75493894815445L246.05555555555554,93.72170602083206L249.13125,101.7908113181591L252.20694444444445,93.5503736615181L255.2826388888889,88.85597251653671L258.35833333333335,109.3288496017456L261.43402777777777,90.73840768933296" style="fill: none;" fill="none"></path></g><g><path stroke="rgb(0, 119, 187)" stroke-width="2px" d="M36.90833333333333,-31.035291266441362L39.984027777777776,88.22810377478599L43.05972222222222,125.6782558143139L46.135416666666664,139.90227698832751L49.211111111111116,146.524966339767L52.28680555555555,150.4689424328506L55.362500000000004,152.01336676552893L58.43819444444444,152.99069707766176L61.513888888888886,154.14537622891368L64.58958333333334,154.52358529083432L67.66527777777777,155.98884357623757L70.74097222222221,155.79412577413024L73.81666666666666,155.64499560669066L76.89236111111111,157.37895751576872L79.96805555555555,158.45122566372157L83.04375,158.7235979751684L86.11944444444444,158.8290222032927L89.19513888888889,153.72982899025084L92.27083333333333,157.45213378798218L95.34652777777778,158.3905134184286L98.42222222222223,156.6973393784836L101.49791666666665,158.602498227451L104.5736111111111,158.76171030099505L107.64930555555556,159.0098907729378L110.72500000000001,159.09320378252306L113.80069444444445,159.14570263983916L116.87638888888888,156.33731212578715L119.95208333333333,156.34874802008272L123.02777777777777,158.47669778550045L126.10347222222222,158.54853123771028L129.17916666666667,159.11234706554097L132.25486111111113,157.45950231906028L135.33055555555555,157.53167452588679L138.40625,158.04947109539063L141.48194444444442,159.03055327974727L144.5576388888889,159.05520569365473L147.63333333333333,157.689128331095L150.70902777777778,157.8334305446595L153.78472222222223,158.96021749796347L156.86041666666665,159.12986957050163L159.9361111111111,159.20041237586412L163.01180555555555,159.22374685092365L166.0875,156.07459052950145L169.16319444444446,157.73367184326054L172.23888888888888,159.0145360383438L175.31458333333333,158.97856967356057L178.39027777777778,159.106937974412L181.46597222222223,156.57565492875875L184.54166666666666,158.50712487353013L187.6173611111111,158.7712391139474L190.69305555555556,159.07801265730524L193.76874999999998,158.6372435302008L196.84444444444446,159.0826078925282L199.92013888888889,158.16524604912848L202.9958333333333,158.17250067293645L206.0715277777778,158.96454679844902L209.1472222222222,157.9201632656157L212.2229166666667,158.98063683912625L215.29861111111111,158.77811657446438L218.37430555555554,158.59279451491312L221.45000000000002,158.31820092927666L224.52569444444444,159.09827030701564L227.6013888888889,158.6610379099846L230.67708333333334,158.022597386688L233.75277777777777,157.9924069323577L236.82847222222222,158.82337402640843L239.90416666666667,158.63576182904654L242.97986111111112,158.94974491135218L246.05555555555554,158.59712224937977L249.13125,158.68132869335824L252.20694444444445,158.4910890871659L255.2826388888889,158.8411227901932L258.35833333333335,158.89237982542255L261.43402777777777,158.6907989866566" style="fill: none;" fill="none"></path></g></g></g></g></g></g><g transform="translate(53, 177)" clip-path="url(#clip_1)"><clipPath id="clip_1"><rect width="276" height="22"></rect></clipPath><g><g><line x1="0" y1="0" x2="0" y2="5" style="visibility: inherit;" fill="rgb(0, 0, 0)" stroke="rgb(204, 204, 204)" stroke-width="1px"></line><line x1="30.756944444444443" y1="0" x2="30.756944444444443" y2="5" style="visibility: inherit;" fill="rgb(0, 0, 0)" stroke="rgb(204, 204, 204)" stroke-width="1px"></line><line x1="61.513888888888886" y1="0" x2="61.513888888888886" y2="5" style="visibility: inherit;" fill="rgb(0, 0, 0)" stroke="rgb(204, 204, 204)" stroke-width="1px"></line><line x1="92.27083333333333" y1="0" x2="92.27083333333333" y2="5" style="visibility: inherit;" fill="rgb(0, 0, 0)" stroke="rgb(204, 204, 204)" stroke-width="1px"></line><line x1="123.02777777777777" y1="0" x2="123.02777777777777" y2="5" style="visibility: inherit;" fill="rgb(0, 0, 0)" stroke="rgb(204, 204, 204)" stroke-width="1px"></line><line x1="153.78472222222223" y1="0" x2="153.78472222222223" y2="5" style="visibility: inherit;" fill="rgb(0, 0, 0)" stroke="rgb(204, 204, 204)" stroke-width="1px"></line><line x1="184.54166666666666" y1="0" x2="184.54166666666666" y2="5" style="visibility: inherit;" fill="rgb(0, 0, 0)" stroke="rgb(204, 204, 204)" stroke-width="1px"></line><line x1="215.29861111111111" y1="0" x2="215.29861111111111" y2="5" style="visibility: inherit;" fill="rgb(0, 0, 0)" stroke="rgb(204, 204, 204)" stroke-width="1px"></line><line x1="246.05555555555554" y1="0" x2="246.05555555555554" y2="5" style="visibility: inherit;" fill="rgb(0, 0, 0)" stroke="rgb(204, 204, 204)" stroke-width="1px"></line><line x1="276.8125" y1="0" x2="276.8125" y2="5" style="visibility: inherit;" fill="rgb(0, 0, 0)" stroke="rgb(204, 204, 204)" stroke-width="1px"></line></g><g transform="translate(0, 8)"><text x="0" y="0" dx="0em" dy="0.95em" style="text-anchor: middle; visibility: hidden; font-family: &quot;Helvetica Neue&quot;, sans-serif; font-size: 12px; font-weight: 200;" fill="rgb(50, 49, 63)" stroke="none" stroke-width="1px">-10</text><text x="30.756944444444443" y="0" dx="0em" dy="0.95em" style="text-anchor: middle; visibility: inherit; font-family: &quot;Helvetica Neue&quot;, sans-serif; font-size: 12px; font-weight: 200;" fill="rgb(50, 49, 63)" stroke="none" stroke-width="1px">0</text><text x="61.513888888888886" y="0" dx="0em" dy="0.95em" style="text-anchor: middle; visibility: inherit; font-family: &quot;Helvetica Neue&quot;, sans-serif; font-size: 12px; font-weight: 200;" fill="rgb(50, 49, 63)" stroke="none" stroke-width="1px">10</text><text x="92.27083333333333" y="0" dx="0em" dy="0.95em" style="text-anchor: middle; visibility: inherit; font-family: &quot;Helvetica Neue&quot;, sans-serif; font-size: 12px; font-weight: 200;" fill="rgb(50, 49, 63)" stroke="none" stroke-width="1px">20</text><text x="123.02777777777777" y="0" dx="0em" dy="0.95em" style="text-anchor: middle; visibility: inherit; font-family: &quot;Helvetica Neue&quot;, sans-serif; font-size: 12px; font-weight: 200;" fill="rgb(50, 49, 63)" stroke="none" stroke-width="1px">30</text><text x="153.78472222222223" y="0" dx="0em" dy="0.95em" style="text-anchor: middle; visibility: inherit; font-family: &quot;Helvetica Neue&quot;, sans-serif; font-size: 12px; font-weight: 200;" fill="rgb(50, 49, 63)" stroke="none" stroke-width="1px">40</text><text x="184.54166666666666" y="0" dx="0em" dy="0.95em" style="text-anchor: middle; visibility: inherit; font-family: &quot;Helvetica Neue&quot;, sans-serif; font-size: 12px; font-weight: 200;" fill="rgb(50, 49, 63)" stroke="none" stroke-width="1px">50</text><text x="215.29861111111111" y="0" dx="0em" dy="0.95em" style="text-anchor: middle; visibility: inherit; font-family: &quot;Helvetica Neue&quot;, sans-serif; font-size: 12px; font-weight: 200;" fill="rgb(50, 49, 63)" stroke="none" stroke-width="1px">60</text><text x="246.05555555555554" y="0" dx="0em" dy="0.95em" style="text-anchor: middle; visibility: inherit; font-family: &quot;Helvetica Neue&quot;, sans-serif; font-size: 12px; font-weight: 200;" fill="rgb(50, 49, 63)" stroke="none" stroke-width="1px">70</text><text x="276.8125" y="0" dx="0em" dy="0.95em" style="text-anchor: middle; visibility: hidden; font-family: &quot;Helvetica Neue&quot;, sans-serif; font-size: 12px; font-weight: 200;" fill="rgb(50, 49, 63)" stroke="none" stroke-width="1px">80</text></g><line x1="0" y1="0" x2="276.8125" y2="0" fill="rgb(0, 0, 0)" stroke="rgb(204, 204, 204)" stroke-width="1px"></line></g></g></g></g></svg>