<svg viewBox="0 0 330 200" xmlns="http://www.w3.org/2000/svg"><g><g><g><g><g><line x1="53.1875" y1="177" x2="48.1875" y2="177" style="visibility: inherit;" fill="rgb(0, 0, 0)" stroke="rgb(204, 204, 204)" stroke-width="1px"></line><line x1="53.1875" y1="160.9090909090909" x2="48.1875" y2="160.9090909090909" style="visibility: inherit;" fill="rgb(0, 0, 0)" stroke="rgb(204, 204, 204)" stroke-width="1px"></line><line x1="53.1875" y1="144.8181818181818" x2="48.1875" y2="144.8181818181818" style="visibility: inherit;" fill="rgb(0, 0, 0)" stroke="rgb(204, 204, 204)" stroke-width="1px"></line><line x1="53.1875" y1="128.72727272727272" x2="48.1875" y2="128.72727272727272" style="visibility: inherit;" fill="rgb(0, 0, 0)" stroke="rgb(204, 204, 204)" stroke-width="1px"></line><line x1="53.1875" y1="112.63636363636364" x2="48.1875" y2="112.63636363636364" style="visibility: inherit;" fill="rgb(0, 0, 0)" stroke="rgb(204, 204, 204)" stroke-width="1px"></line><line x1="53.1875" y1="96.54545454545455" x2="48.1875" y2="96.54545454545455" style="visibility: inherit;" fill="rgb(0, 0, 0)" stroke="rgb(204, 204, 204)" stroke-width="1px"></line><line x1="53.1875" y1="80.45454545454547" x2="48.1875" y2="80.45454545454547" style="visibility: inherit;" fill="rgb(0, 0, 0)" stroke="rgb(204, 204, 204)" stroke-width="1px"></line><line x1="53.1875" y1="64.36363636363639" x2="48.1875" y2="64.36363636363639" style="visibility: inherit;" fill="rgb(0, 0, 0)" stroke="rgb(204, 204, 204)" stroke-width="1px"></line><line x1="53.1875" y1="48.27272727272728" x2="48.1875" y2="48.27272727272728" style="visibility: inherit;" fill="rgb(0, 0, 0)" stroke="rgb(204, 204, 204)" stroke-width="1px"></line><line x1="53.1875" y1="32.18181818181819" x2="48.1875" y2="32.18181818181819" style="visibility: inherit;" fill="rgb(0, 0, 0)" stroke="rgb(204, 204, 204)" stroke-width="1px"></line><line x1="53.1875" y1="16.090909090909093" x2="48.1875" y2="16.090909090909093" style="visibility: inherit;" fill="rgb(0, 0, 0)" stroke="rgb(204, 204, 204)" stroke-width="1px"></line><line x1="53.1875" y1="0" x2="48.1875" y2="0" style="visibility: inherit;" fill="rgb(0, 0, 0)" stroke="rgb(204, 204, 204)" stroke-width="1px"></line></g><g transform="translate(43.1875, 0)"><text x="0" y="177" dx="0em" dy="0.3em" style="text-anchor: end; visibility: hidden; font-family: &quot;Helvetica Neue&quot;, sans-serif; font-size: 12px; font-weight: 200;" fill="rgb(50, 49, 63)" stroke="none" stroke-width="1px">-0.2</text><text x="0" y="160.9090909090909" dx="0em" dy="0.3em" style="text-anchor: end; visibility: inherit; font-family: &quot;Helvetica Neue&quot;, sans-serif; font-size: 12px; font-weight: 200;" fill="rgb(50, 49, 63)" stroke="none" stroke-width="1px">0</text><text x="0" y="144.8181818181818" dx="0em" dy="0.3em" style="text-anchor: end; visibility: hidden; font-family: &quot;Helvetica Neue&quot;, sans-serif; font-size: 12px; font-weight: 200;" fill="rgb(50, 49, 63)" stroke="none" stroke-width="1px">0.2</text><text x="0" y="128.72727272727272" dx="0em" dy="0.3em" style="text-anchor: end; visibility: inherit; font-family: &quot;Helvetica Neue&quot;, sans-serif; font-size: 12px; font-weight: 200;" fill="rgb(50, 49, 63)" stroke="none" stroke-width="1px">0.4</text><text x="0" y="112.63636363636364" dx="0em" dy="0.3em" style="text-anchor: end; visibility: hidden; font-family: &quot;Helvetica Neue&quot;, sans-serif; font-size: 12px; font-weight: 200;" fill="rgb(50, 49, 63)" stroke="none" stroke-width="1px">0.6</text><text x="0" y="96.54545454545455" dx="0em" dy="0.3em" style="text-anchor: end; visibility: inherit; font-family: &quot;Helvetica Neue&quot;, sans-serif; font-size: 12px; font-weight: 200;" fill="rgb(50, 49, 63)" stroke="none" stroke-width="1px">0.8</text><text x="0" y="80.45454545454547" dx="0em" dy="0.3em" style="text-anchor: end; visibility: hidden; font-family: &quot;Helvetica Neue&quot;, sans-serif; font-size: 12px; font-weight: 200;" fill="rgb(50, 49, 63)" stroke="none" stroke-width="1px">1</text><text x="0" y="64.36363636363639" dx="0em" dy="0.3em" style="text-anchor: end; visibility: inherit; font-family: &quot;Helvetica Neue&quot;, sans-serif; font-size: 12px; font-weight: 200;" fill="rgb(50, 49, 63)" stroke="none" stroke-width="1px">1.2</text><text x="0" y="48.27272727272728" dx="0em" dy="0.3em" style="text-anchor: end; visibility: hidden; font-family: &quot;Helvetica Neue&quot;, sans-serif; font-size: 12px; font-weight: 200;" fill="rgb(50, 49, 63)" stroke="none" stroke-width="1px">1.4</text><text x="0" y="32.18181818181819" dx="0em" dy="0.3em" style="text-anchor: end; visibility: inherit; font-family: &quot;Helvetica Neue&quot;, sans-serif; font-size: 12px; font-weight: 200;" fill="rgb(50, 49, 63)" stroke="none" stroke-width="1px">1.6</text><text x="0" y="16.090909090909093" dx="0em" dy="0.3em" style="text-anchor: end; visibility: hidden; font-family: &quot;Helvetica Neue&quot;, sans-serif; font-size: 12px; font-weight: 200;" fill="rgb(50, 49, 63)" stroke="none" stroke-width="1px">1.8</text><text x="0" y="0" dx="0em" dy="0.3em" style="text-anchor: end; visibility: hidden; font-family: &quot;Helvetica Neue&quot;, sans-serif; font-size: 12px; font-weight: 200;" fill="rgb(50, 49, 63)" stroke="none" stroke-width="1px">2</text></g><line x1="53.1875" y1="0" x2="53.1875" y2="177" fill="rgb(0, 0, 0)" stroke="rgb(204, 204, 204)" stroke-width="1px"></line></g></g><g transform="translate(53, 0)" clip-path="url(#clip_0)"><clipPath id="clip_0"><rect width="276" height="176"></rect></clipPath><g><g><g><line x1="0" y1="0" x2="0" y2="177" fill="rgb(0, 0, 0)" stroke="rgb(60, 60, 60)" stroke-width="1px" opacity="0.25"></line><line x1="23.067708333333332" y1="0" x2="23.067708333333332" y2="177" fill="rgb(0, 0, 0)" stroke="rgb(60, 60, 60)" stroke-width="1px" opacity="0.25"></line><line x1="46.135416666666664" y1="0" x2="46.135416666666664" y2="177" fill="rgb(0, 0, 0)" stroke="rgb(60, 60, 60)" stroke-width="1px" opacity="0.25"></line><line x1="69.203125" y1="0" x2="69.203125" y2="177" fill="rgb(0, 0, 0)" stroke="rgb(60, 60, 60)" stroke-width="1px" opacity="0.25"></line><line x1="92.27083333333333" y1="0" x2="92.27083333333333" y2="177" fill="rgb(0, 0, 0)" stroke="rgb(60, 60, 60)" stroke-width="1px" opacity="0.25"></line><line x1="115.33854166666667" y1="0" x2="115.33854166666667" y2="177" fill="rgb(0, 0, 0)" stroke="rgb(60, 60, 60)" stroke-width="1px" opacity="0.25"></line><line x1="138.40625" y1="0" x2="138.40625" y2="177" fill="rgb(0, 0, 0)" stroke="rgb(60, 60, 60)" stroke-width="1px" opacity="0.25"></line><line x1="161.47395833333334" y1="0" x2="161.47395833333334" y2="177" fill="rgb(0, 0, 0)" stroke="rgb(60, 60, 60)" stroke-width="1px" opacity="0.25"></line><line x1="184.54166666666666" y1="0" x2="184.54166666666666" y2="177" fill="rgb(0, 0, 0)" stroke="rgb(60, 60, 60)" stroke-width="1px" opacity="0.25"></line><line x1="207.609375" y1="0" x2="207.609375" y2="177" fill="rgb(0, 0, 0)" stroke="rgb(60, 60, 60)" stroke-width="1px" opacity="0.25"></line><line x1="230.67708333333334" y1="0" x2="230.67708333333334" y2="177" fill="rgb(0, 0, 0)" stroke="rgb(60, 60, 60)" stroke-width="1px" opacity="0.25"></line><line x1="253.74479166666666" y1="0" x2="253.74479166666666" y2="177" fill="rgb(0, 0, 0)" stroke="rgb(60, 60, 60)" stroke-width="1px" opacity="0.25"></line><line x1="276.8125" y1="0" x2="276.8125" y2="177" fill="rgb(0, 0, 0)" stroke="rgb(60, 60, 60)" stroke-width="1px" opacity="0.25"></line></g><g><line x1="0" y1="177" x2="276.8125" y2="177" fill="rgb(0, 0, 0)" stroke="rgb(60, 60, 60)" stroke-width="1px" opacity="0.25"></line><line x1="0" y1="160.9090909090909" x2="276.8125" y2="160.9090909090909" fill="rgb(0, 0, 0)" stroke="rgb(60, 60, 60)" stroke-width="1px" opacity="0.25"></line><line x1="0" y1="144.8181818181818" x2="276.8125" y2="144.8181818181818" fill="rgb(0, 0, 0)" stroke="rgb(60, 60, 60)" stroke-width="1px" opacity="0.25"></line><line x1="0" y1="128.72727272727272" x2="276.8125" y2="128.72727272727272" fill="rgb(0, 0, 0)" stroke="rgb(60, 60, 60)" stroke-width="1px" opacity="0.25"></line><line x1="0" y1="112.63636363636364" x2="276.8125" y2="112.63636363636364" fill="rgb(0, 0, 0)" stroke="rgb(60, 60, 60)" stroke-width="1px" opacity="0.25"></line><line x1="0" y1="96.54545454545455" x2="276.8125" y2="96.54545454545455" fill="rgb(0, 0, 0)" stroke="rgb(60, 60, 60)" stroke-width="1px" opacity="0.25"></line><line x1="0" y1="80.45454545454547" x2="276.8125" y2="80.45454545454547" fill="rgb(0, 0, 0)" stroke="rgb(60, 60, 60)" stroke-width="1px" opacity="0.25"></line><line x1="0" y1="64.36363636363639" x2="276.8125" y2="64.36363636363639" fill="rgb(0, 0, 0)" stroke="rgb(60, 60, 60)" stroke-width="1px" opacity="0.25"></line><line x1="0" y1="48.27272727272728" x2="276.8125" y2="48.27272727272728" fill="rgb(0, 0, 0)" stroke="rgb(60, 60, 60)" stroke-width="1px" opacity="0.25"></line><line x1="0" y1="32.18181818181819" x2="276.8125" y2="32.18181818181819" fill="rgb(0, 0, 0)" stroke="rgb(60, 60, 60)" stroke-width="1px" opacity="0.25"></line><line x1="0" y1="16.090909090909093" x2="276.8125" y2="16.090909090909093" fill="rgb(0, 0, 0)" stroke="rgb(60, 60, 60)" stroke-width="1px" opacity="0.25"></line><line x1="0" y1="0" x2="276.8125" y2="0" fill="rgb(0, 0, 0)" stroke="rgb(60, 60, 60)" stroke-width="1px" opacity="0.25"></line></g></g></g><g><g><line x1="0" y1="160.9090909090909" x2="276.8125" y2="160.9090909090909" fill="rgb(0, 0, 0)" stroke="rgb(153, 153, 153)" stroke-width="1.5px"></line></g></g><g><g><line x1="23.067708333333332" y1="0" x2="23.067708333333332" y2="177" fill="rgb(0, 0, 0)" stroke="rgb(153, 153, 153)" stroke-width="1.5px"></line></g></g><g><g><g><g><g><path stroke="rgb(51, 187, 238)" stroke-width="2px" d="M31.372083333333332,-3.664657523937848L31.833437500000002,2.8854377746716864L32.29479166666667,8.84119019958186L32.756145833333335,13.876955420887356L33.2175,19.458491954844334L33.67885416666667,23.887271813865055L34.140208333333334,28.549468395297822L34.6015625,32.618203105009684L35.062916666666666,36.265739624253115L35.52427083333333,39.941271266891874L35.985625,43.070098985125924L36.446979166666665,45.51479013081615L36.90833333333333,48.04383824971924L37.369687500000005,50.912801504183705L37.831041666666664,54.2345985152223L38.29239583333334,56.64286022500514L38.753750000000004,58.75623974368014L39.21510416666666,61.06065173470091L39.676458333333336,63.19472903304579L40.137812499999995,64.46109591380544L40.59916666666667,66.48705296998506L41.060520833333335,68.63083349301193L41.521875,70.67317777222391L41.98322916666667,72.21671162360943L42.44458333333333,73.37704626131323L42.9059375,74.57543193325647L43.36729166666667,75.94774372453932L43.82864583333333,77.18913034854586L44.29,78.27917822868515L44.751354166666665,79.40147256605044L45.21270833333333,80.62777007348167L45.674062500000005,81.79846269001973L46.135416666666664,82.99327464712336L46.59677083333333,84.11649496444218L47.058125000000004,85.43591203579945L47.51947916666666,86.55388980843244L47.98083333333334,87.61487959033568L48.442187499999996,89.06408795458142L48.90354166666667,89.13139312709612L49.364895833333335,90.37558170974155L49.82625,91.59216548151277L50.28760416666667,92.17128495552952L50.74895833333333,93.24400352454569L51.2103125,93.56853294219769L51.67166666666667,93.71046787300337L52.13302083333333,94.53317512370508L52.594375,95.19222573923574L53.05572916666667,96.05845564135778L53.51708333333333,96.73796503588153L53.9784375,97.08502339086236L54.439791666666665,97.59103373742879L54.90114583333333,98.33644609918628L55.362500000000004,99.03758843052104L55.82385416666666,99.99555192881546L56.28520833333334,100.21434734487042L56.746562499999996,100.42647420951374L57.20791666666667,100.9520501090587L57.669270833333336,101.51858975740188L58.130624999999995,101.82020545697812L58.59197916666667,102.2992647927797L59.053333333333335,102.24327415585387L59.5146875,102.78493603465695L59.97604166666667,103.59945802492182L60.43739583333333,104.23025508069185L60.89875,105.07236075009816L61.36010416666667,105.39969131494925L61.82145833333333,105.24491394465569L62.2828125,105.64725021555175L62.744166666666665,106.15906630883198L63.20552083333333,105.46330155254786L63.666875000000005,106.02406568664597L64.12822916666667,106.55986779425423L64.58958333333334,107.11442398398177L65.0509375,107.7537470953354L65.51229166666667,107.61755671752354L65.97364583333334,108.64463063434115L66.435,108.19873712057898L66.89635416666667,108.74927850070073L67.35770833333333,109.2104523759144L67.8190625,109.93673150751607L68.28041666666667,110.16353182096361L68.74177083333333,109.86130462618843L69.203125,109.80776168641933L69.66447916666667,110.44000726131546L70.12583333333333,110.68891413269661L70.5871875,110.86968964871517L71.04854166666667,111.5247132409184L71.50989583333335,111.66958128492539L71.97125,111.79739591527287L72.43260416666666,111.67141109571203L72.89395833333333,111.95512134840206L73.3553125,112.40997366965428L73.81666666666666,112.70385083364724L74.27802083333333,113.24382680377096L74.73937500000001,113.29430785771287L75.20072916666666,113.50141486089709L75.66208333333333,112.44605807075399L76.12343750000001,112.99560314075755L76.58479166666667,113.22658964841077L77.04614583333333,113.5796903574107L77.50750000000001,113.44492309223531L77.96885416666667,113.34414812772928L78.43020833333333,113.78263397723114L78.89156249999999,114.30163065997385L79.35291666666667,115.01105606798902L79.81427083333334,114.6964239330131L80.27562499999999,114.79094919162132L80.73697916666667,114.35615032508619L81.19833333333334,114.7613380202061L81.65968749999999,115.26833929978972L82.12104166666667,115.57270694970805L82.58239583333334,115.61666955795987L83.04375,115.72980858668313L83.50510416666667,114.80091632259482L83.96645833333334,115.5517645258137L84.4278125,115.56341746375081L84.88916666666665,115.5087625699565L85.35052083333333,115.71885224304728L85.811875,116.23944234704076L86.27322916666667,116.462100121328L86.73458333333333,116.28252409276294L87.1959375,116.6116203644851L87.65729166666667,116.98079796037226L88.11864583333335,117.69747268363163L88.58,117.12076371542301L89.04135416666666,117.04010591829288L89.50270833333333,117.24700834814479L89.9640625,117.59093362152657L90.42541666666666,117.35789570952596L90.88677083333333,117.24857019901089L91.34812500000001,118.05355312754779L91.80947916666666,118.02544994009125L92.27083333333333,118.52897266440958L92.73218750000001,118.04553932429828L93.19354166666666,118.2200677672821L93.65489583333333,117.770596007205L94.11625000000001,118.59994520147642L94.57760416666667,118.8683583646471L95.03895833333333,119.01364452949437L95.50031249999999,118.81141377602057L95.96166666666667,118.21511332785778L96.42302083333333,118.48684904280178L96.88437499999999,118.38027986089294L97.34572916666667,118.75443857052053L97.80708333333334,119.39967443320933L98.26843749999999,119.12280714918896L98.72979166666667,118.49134832106233L99.19114583333334,118.90534938698693L99.6525,118.83660101597013L100.11385416666667,118.48685016455948L100.57520833333334,117.58122377636742L101.0365625,118.36684765787007L101.49791666666665,118.04844924866173L101.95927083333333,118.5872607337611L102.420625,118.73749657099329L102.88197916666667,119.22445893280816L103.34333333333333,119.79122273484373L103.8046875,119.06193077345031L104.26604166666667,119.17285316509157L104.72739583333333,119.21637877905565L105.18875,119.11470844308147L105.65010416666667,119.34893614246394L106.11145833333335,119.46018590067376L106.5728125,119.26121714379575L107.03416666666666,119.34473391518162L107.49552083333333,118.78131415497L107.956875,118.99803808957778L108.41822916666666,119.0377335699769L108.87958333333333,118.65848822201431L109.34093750000001,119.50408734563078L109.80229166666666,120.03677070927291L110.26364583333333,119.48750584163902L110.72500000000001,119.5059691327404L111.18635416666667,119.49250583775208L111.64770833333333,120.34626204544904L112.10906250000001,119.95863628740777L112.57041666666667,120.20024788158177L113.03177083333333,119.97822368662327L113.49312499999999,119.20432742602634L113.95447916666667,119.63550815681819L114.41583333333334,119.81737023413302L114.87718749999999,120.03587970084567L115.33854166666667,119.94329038447295L115.79989583333334,119.76568262958943L116.26124999999999,119.75899024065443L116.72260416666667,118.9446371987826L117.18395833333334,119.12610331529396L117.6453125,119.55535838435682L118.10666666666667,119.26343174616667L118.56802083333334,119.46215128369867L119.029375,119.8305726106303L119.49072916666665,120.39800565139114L119.95208333333333,120.1751691036074L120.4134375,119.83987927035383L120.87479166666667,120.13602765882818L121.33614583333333,120.1176474079939L121.7975,120.56855485352591L122.25885416666667,120.08703619818246L122.72020833333335,120.1729097455111L123.1815625,120.22225865116462L123.64291666666666,119.44324908055947L124.10427083333333,119.17597533972639L124.565625,119.85833247619725L125.02697916666666,120.3442775776692L125.48833333333333,120.72858604668372L125.94968750000001,120.34528931794748L126.41104166666666,119.48256507190794L126.87239583333333,119.29622231906112L127.33375000000001,120.03504864673181L127.79510416666666,119.60909455218317L128.25645833333334,119.38810123160883L128.7178125,119.95623195426543L129.17916666666667,119.70778231557156L129.64052083333334,120.05955277361404L130.101875,119.83669647479994L130.56322916666667,120.21800696197116L131.02458333333334,119.76248716916422L131.4859375,119.83846158963095L131.94729166666667,120.05508320060542L132.40864583333334,120.1519214249735L132.87,120.09071320028704L133.33135416666667,119.9728298225444L133.79270833333334,119.60029435386906L134.2540625,119.23810166366378L134.71541666666667,119.38023105790523L135.17677083333334,119.61546287256662L135.638125,119.48513838296589L136.09947916666667,119.58299670387399L136.56083333333333,118.40409243727814L137.0221875,118.31337757049691L137.48354166666667,119.18877772771532L137.94489583333333,119.18855766551894L138.40625,119.72176952853485L138.86760416666667,119.76780848104387L139.32895833333333,119.88275150840116L139.7903125,119.18730108533715L140.25166666666667,118.59351745222838L140.71302083333333,119.17916283863411L141.174375,117.91478157283711L141.6357291666667,118.65435378262148L142.09708333333333,118.85043629819492L142.5584375,119.473096184816L143.0197916666667,118.40619976855118L143.48114583333333,118.52954016539442L143.9425,118.79451706763987L144.40385416666666,118.36989708506287L144.86520833333333,118.34183548005899L145.3265625,118.4556480728698L145.78791666666666,118.48211534085186L146.24927083333333,118.63359993148143L146.710625,119.00164360346103L147.17197916666666,118.9261484579383L147.63333333333333,118.53426204376613L148.09468750000002,119.01845372199207L148.55604166666666,118.05153269186405L149.01739583333332,118.08599942638801L149.47875000000002,118.11152096816495L149.94010416666666,118.46982086708033L150.40145833333332,118.5714110868133L150.86281250000002,118.39670841534857L151.32416666666666,118.9533022268464L151.78552083333332,119.13969055881472L152.24687500000002,118.84086490586353L152.70822916666665,118.4329677983113L153.16958333333335,117.16127695280784L153.63093750000002,118.0764621377117L154.09229166666665,118.04599915136745L154.55364583333335,118.04076885965107L155.01500000000001,117.31139785249289L155.47635416666665,117.39483508640626L155.93770833333335,117.95666557274899L156.39906249999999,118.1458333725003L156.86041666666665,118.29447138058566L157.32177083333335,118.70356346543359L157.78312499999998,118.93650447191595L158.24447916666665,118.37672588146805L158.70583333333335,118.56363342354942L159.16718749999998,118.28556523954475L159.62854166666668,118.47730999024978L160.08989583333334,118.07376187127015L160.55124999999998,118.64295271954373L161.01260416666668,117.76428044228976L161.47395833333334,116.4964540136302L161.93531249999998,116.3975226806342L162.39666666666668,116.47593566067724L162.85802083333334,117.13654204453383L163.31937499999998,117.24281863012037L163.78072916666667,117.69768541077015L164.24208333333334,117.34432931120375L164.7034375,116.1099456164658L165.16479166666667,117.51104470029539L165.62614583333334,115.28495658272271L166.0875,115.07608443887204L166.54885416666667,116.36017121743227L167.01020833333334,116.26300289228922L167.4715625,116.47237705856509L167.93291666666667,117.48122831061181L168.3942708333333,117.14766957468427L168.855625,117.47296571686756L169.31697916666667,117.29390726279335L169.7783333333333,117.14032063901547L170.2396875,117.49372870825712L170.70104166666667,116.15860321420584L171.16239583333333,116.67848084259018L171.62375,116.85721818575416L172.08510416666667,116.44208679614323L172.54645833333333,116.49378333860986L173.0078125,116.01910609446756L173.46916666666667,116.30630084756868L173.93052083333333,116.4966198735467L174.391875,116.750973128532L174.85322916666667,116.84265774465695L175.31458333333333,116.99016151739687L175.7759375,115.29349070085658L176.2372916666667,115.73686960297786L176.69864583333333,116.48330658811742L177.16,115.35250950483982L177.6213541666667,115.85230184409485L178.08270833333333,115.16950215044244L178.5440625,115.39388441853572L179.00541666666666,115.94654977426818L179.46677083333333,115.97396883160678L179.928125,116.66079360826387L180.38947916666666,115.21070598711714L180.85083333333333,115.0058208003107L181.3121875,114.67873333280247L181.77354166666666,115.41888355246164L182.23489583333333,116.50369187340993L182.69625000000002,116.51926220634009L183.15760416666666,116.73825444577102L183.61895833333332,116.24602071793385L184.08031250000002,115.42320431138525L184.54166666666666,115.91988148988374L185.00302083333332,115.06818283130471L185.46437500000002,114.66442283382588L185.92572916666666,113.83180486088249L186.38708333333332,114.30912200763973L186.84843750000002,114.25682589450027L187.30979166666665,114.42216202097808L187.77114583333335,114.30456841493434L188.23250000000002,114.55969910705775L188.69385416666665,114.38892253406027L189.15520833333335,114.8994013666234L189.61656250000001,114.72146566884268L190.07791666666665,114.12773632891722L190.53927083333335,114.25233612427128L191.00062499999999,113.70532565206784L191.46197916666665,113.96190517696223L191.92333333333335,112.97782392343461L192.38468749999998,113.50669415508962L192.84604166666665,114.04663710641202L193.30739583333335,114.01900900348787L193.76874999999998,113.12870232755077L194.23010416666668,114.26117053543193L194.69145833333334,112.75822784687242L195.15281249999998,113.51486241169235L195.61416666666668,113.34009444107903L196.07552083333334,113.29107972128458L196.53687499999998,114.08709886592949L196.99822916666668,113.89703206156904L197.45958333333334,113.12752485886887L197.92093749999998,114.00531081003082L198.38229166666667,114.38880707137338L198.84364583333334,113.57416299171777L199.305,113.76357032985192L199.76635416666667,113.5699232791975L200.22770833333334,113.53301558779728L200.6890625,113.78321883502743L201.15041666666667,113.28853685837146L201.61177083333334,113.39095201871217L202.073125,112.34054387406634L202.53447916666667,112.76481014422797L202.9958333333333,112.75460846925563L203.4571875,112.60653595748417L203.91854166666667,112.58821647104979L204.3798958333333,113.06456291031348L204.84125,112.922302667047L205.30260416666667,112.52444911117985L205.76395833333333,112.0278004458124L206.2253125,112.59460806931321L206.68666666666667,111.6353308184244L207.14802083333333,111.92223453118734L207.609375,112.46437562570662L208.07072916666667,111.34407898714467L208.53208333333333,111.90858035208613L208.9934375,111.41083513505899L209.45479166666667,111.40578936603075L209.91614583333333,112.03365706407507L210.3775,109.69744908432433L210.8388541666667,110.0340476056787L211.30020833333333,111.14673450117425L211.7615625,110.32933895142311L212.2229166666667,110.5753238568879L212.68427083333333,111.15704821062059L213.145625,111.26390226951061L213.60697916666666,111.81251967548187L214.06833333333333,112.68346252798352L214.5296875,111.63087924521211L214.99104166666666,111.16601387057058L215.45239583333333,111.09666795802488L215.91375,110.71280042908198L216.37510416666666,111.29619160912128L216.83645833333333,111.18028746726222L217.29781250000002,109.08773412135686L217.75916666666666,110.32830090311545L218.22052083333332,110.34652706756437L218.68187500000002,111.53734654974758L219.14322916666666,111.87289103524795L219.60458333333332,112.53647557780202L220.06593750000002,112.44284373561663L220.52729166666666,107.51411005715966L220.98864583333332,109.5713855209485L221.45000000000002,110.42985542908522L221.91135416666665,110.30629849826605L222.37270833333335,107.1762679492064L222.83406250000002,108.96973596497506L223.29541666666665,109.91855281663236L223.75677083333335,110.46778445828788L224.21812500000001,110.63357367259651L224.67947916666665,110.59464050182771L225.14083333333335,109.45135930524077L225.60218749999999,110.73231369408903L226.06354166666665,110.44733042699767L226.52489583333335,110.87620129748335L226.98624999999998,110.18453590230816L227.44760416666665,110.89939799835649L227.90895833333335,111.58942254902777L228.37031249999998,110.57950846592969L228.83166666666668,110.86957339516785L229.29302083333334,111.28398213862646L229.75437499999998,111.22873303829104L230.21572916666668,110.97621600894666L230.67708333333334,111.07750733969098L231.13843749999998,111.19936676624273L231.59979166666668,110.79102161246614L232.06114583333334,110.68080352105814L232.52249999999998,111.47045785185387L232.98385416666667,110.55035083617058L233.44520833333334,111.20311641713606L233.9065625,111.504193275748L234.36791666666667,110.9168917713036L234.82927083333334,110.44613002946252L235.290625,111.02587641982221L235.75197916666667,107.3537534143642L236.21333333333334,108.95678564812525L236.6746875,110.0481841964958L237.13604166666667,109.82182025929916L237.5973958333333,110.78646511393617L238.05875,109.33452622247617L238.52010416666667,107.06807450689061L238.9814583333333,108.4263879053208L239.4428125,108.34113872006017L239.90416666666667,109.0159400677135L240.36552083333333,108.82910274445987L240.826875,108.76388464883226L241.28822916666667,109.3449800012696L241.74958333333333,109.45706735296721L242.2109375,110.19795785854102L242.67229166666667,110.25111127745468L243.13364583333333,110.14885116564413L243.595,110.13688454759065L244.05635416666667,110.24783796995953L244.51770833333333,109.9121606979754L244.9790625,110.27084541848492L245.4404166666667,110.47834898008169L245.90177083333333,108.80933968300488L246.363125,109.89798747887586L246.8244791666667,110.28063138901868L247.28583333333333,109.36044755110765L247.7471875,109.7487892388354L248.20854166666666,109.80449633419272L248.66989583333333,109.71845214086083L249.13125,110.11742090620258L249.59260416666666,110.36149596616043L250.05395833333333,110.16302625151576L250.5153125,109.58956264253808L250.97666666666666,107.44793526192139L251.43802083333333,109.09147042060762L251.89937500000002,109.7976879197216L252.36072916666666,109.90121949313128L252.82208333333332,106.79157786725787L253.28343750000002,107.98471617955896L253.74479166666666,108.60235544272349" style="fill: none;" fill="none"></path></g><g><path stroke="rgb(0, 119, 187)" stroke-width="2px" d="M30.910729166666666,-7.679836368654293L31.372083333333332,0.3068871064786265L31.833437500000002,7.605658239467687L32.29479166666667,14.295409613543683L32.756145833333335,20.39490053758692L33.2175,26.037675008840438L33.67885416666667,31.198732956794288L34.140208333333334,35.98120480020472L34.6015625,40.37972506596631L35.062916666666666,44.46312971479168L35.52427083333333,48.23793759847689L35.985625,51.81352471882278L36.446979166666665,55.11530038252273L36.90833333333333,58.21803592972839L37.369687500000005,61.14321893601522L37.831041666666664,63.87452787096031L38.29239583333334,66.49428488782893L38.753750000000004,68.96018244574077L39.21510416666666,71.28540305062536L39.676458333333336,73.47423466068686L40.137812499999995,75.65083617356863L40.59916666666667,77.67404704317524L41.060520833333335,79.65852032327392L41.521875,81.54078701252537L41.98322916666667,83.37144344122434L42.44458333333333,85.11018144072601L42.9059375,86.82283657123239L43.36729166666667,88.42955680930572L43.82864583333333,89.95784633537677L44.29,91.45675351682499L44.751354166666665,92.90813252882273L45.21270833333333,94.25350184937658L45.674062500000005,95.61503503145826L46.135416666666664,96.88775426022657L46.59677083333333,98.12518729112799L47.058125000000004,99.35015716702905L47.51947916666666,100.492822638461L47.98083333333334,101.62425434721715L48.442187499999996,102.68374666163406L48.90354166666667,103.73202080644296L49.364895833333335,104.73189913483577L49.82625,105.76175104259012L50.28760416666667,106.72311336206538L50.74895833333333,107.65947358959299L51.2103125,108.56469294628623L51.67166666666667,109.41312685512L52.13302083333333,110.2425625995763L52.594375,111.05102769805977L53.05572916666667,111.82383463329288L53.51708333333333,112.64015807943362L53.9784375,113.39961838538267L54.439791666666665,114.1404866034134L54.90114583333333,114.83184736098909L55.362500000000004,115.53516088419973L55.82385416666666,116.22244177267333L56.28520833333334,116.88557857711704L56.746562499999996,117.53728651937328L57.20791666666667,118.16881726183746L57.669270833333336,118.8171544996071L58.130624999999995,119.42781280712025L58.59197916666667,119.99215977494993L59.053333333333335,120.57579893315699L59.5146875,121.130435143218L59.97604166666667,121.68836009596484L60.43739583333333,122.2195248295186L60.89875,122.77984986729243L61.36010416666667,123.29863700015707L61.82145833333333,123.80800224985697L62.2828125,124.281394565163L62.744166666666665,124.7698232057223L63.20552083333333,125.28173580358148L63.666875000000005,125.72281877045575L64.12822916666667,126.16721311389975L64.58958333333334,126.62373381364091L65.0509375,127.09694094689607L65.51229166666667,127.5343325623334L65.97364583333334,127.93152775966615L66.435,128.38345788968607L66.89635416666667,128.78679335853352L67.35770833333333,129.21933667126018L67.8190625,129.6704136560667L68.28041666666667,130.03503752585647L68.74177083333333,130.4367521086608L69.203125,130.79455521687606L69.66447916666667,131.12599129938653L70.12583333333333,131.48765225849328L70.5871875,131.8530905225383L71.04854166666667,132.1541372524802L71.50989583333335,132.48680261838516L71.97125,132.86445839770755L72.43260416666666,133.24752691618386L72.89395833333333,133.56021735101916L73.3553125,133.88401705207053L73.81666666666666,134.2238584052421L74.27802083333333,134.5184205163602L74.73937500000001,134.8575763327421L75.20072916666666,135.2062515543155L75.66208333333333,135.51090849198414L76.12343750000001,135.7607739407001L76.58479166666667,136.0276967916703L77.04614583333333,136.37024024384658L77.50750000000001,136.68352232295376L77.96885416666667,136.99978943039022L78.43020833333333,137.3104654166154L78.89156249999999,137.53738021603263L79.35291666666667,137.83799818605803L79.81427083333334,138.08215823821416L80.27562499999999,138.342407485341L80.73697916666667,138.65190640067212L81.19833333333334,138.8801539891019L81.65968749999999,139.11748120721688L82.12104166666667,139.40016597774982L82.58239583333334,139.59485903812592L83.04375,139.87263272554472L83.50510416666667,140.1134501662356L83.96645833333334,140.36071031435796L84.4278125,140.6139926073709L84.88916666666665,140.82863486916017L85.35052083333333,141.05840647665593L85.811875,141.30680442069186L86.27322916666667,141.57128392694017L86.73458333333333,141.76773543488645L87.1959375,141.98130175398063L87.65729166666667,142.21153746636833L88.11864583333335,142.42207458426378L88.58,142.5171774213466L89.04135416666666,142.69457795096787L89.50270833333333,142.93832105214318L89.9640625,143.21274200892674L90.42541666666666,143.47407450620614L90.88677083333333,143.66459523211125L91.34812500000001,143.87130380233432L91.80947916666666,144.00692006195857L92.27083333333333,144.18528672115264L92.73218750000001,144.3673322399198L93.19354166666666,144.53130025916278L93.65489583333333,144.677266465958L94.11625000000001,144.92707148252273L94.57760416666667,145.10479695994303L95.03895833333333,145.27260654968842L95.50031249999999,145.45758362349113L95.96166666666667,145.57900911466567L96.42302083333333,145.70250931103618L96.88437499999999,145.89885445340954L97.34572916666667,146.06211535006724L97.80708333333334,146.2538817257066L98.26843749999999,146.40132340536428L98.72979166666667,146.57516063083577L99.19114583333334,146.75698692642723L99.6525,146.92928021359108L100.11385416666667,147.0467222426611L100.57520833333334,147.21287903805785L101.0365625,147.3396439925228L101.49791666666665,147.45433235075984L101.95927083333333,147.56959039946906L102.420625,147.76401187549158L102.88197916666667,147.9327952977047L103.34333333333333,148.08219455196794L103.8046875,148.23522774883708L104.26604166666667,148.3314144170255L104.72739583333333,148.4822356382049L105.18875,148.60961412554116L105.65010416666667,148.77201622552028L106.11145833333335,148.86988907732197L106.5728125,148.96498638741207L107.03416666666666,149.11169262738247L107.49552083333333,149.24855482151477L107.956875,149.40071996898763L108.41822916666666,149.49197541874344L108.87958333333333,149.63254880266766L109.34093750000001,149.75049705122342L109.80229166666666,149.84864714414354L110.26364583333333,149.96689641983684L110.72500000000001,150.1284054569901L111.18635416666667,150.16985420843423L111.64770833333333,150.26274712468552L112.10906250000001,150.44506443762725L112.57041666666667,150.52986032608607L113.03177083333333,150.59134638595475L113.49312499999999,150.75363534508338L113.95447916666667,150.85830885632478L114.41583333333334,150.9670158695633L114.87718749999999,151.07541412486816L115.33854166666667,151.1830893140576L115.79989583333334,151.29020526217852L116.26124999999999,151.39370245081824L116.72260416666667,151.5213552446631L117.18395833333334,151.58948124753422L117.6453125,151.6807137832733L118.10666666666667,151.73513584496007L118.56802083333334,151.88014346078074L119.029375,152.00574025098052L119.49072916666665,152.11006269152557L119.95208333333333,152.19021738699973L120.4134375,152.23045739122463L120.87479166666667,152.35304388998344L121.33614583333333,152.45365563689705L121.7975,152.51841557039424L122.25885416666667,152.5954033865981L122.72020833333335,152.65677060473496L123.1815625,152.72581310091988L123.64291666666666,152.79440250787104L124.10427083333333,152.8911734709537L124.565625,153.057368500576L125.02697916666666,153.13908742037694L125.48833333333333,153.163165572199L125.94968750000001,153.20384125693496L126.41104166666666,153.3096336145956L126.87239583333333,153.42622743149965L127.33375000000001,153.5291542191961L127.79510416666666,153.57971743765876L128.25645833333334,153.55656196109678L128.7178125,153.6585194272098L129.17916666666667,153.77652543742693L129.64052083333334,153.82476758146916L130.101875,153.92830488114518L130.56322916666667,153.99301561296994L131.02458333333334,154.06422582452467L131.4859375,154.1374559017933L131.94729166666667,154.26800171728613L132.40864583333334,154.36040413496303L132.87,154.3982690089353L133.33135416666667,154.42897142278872L133.79270833333334,154.4653041711639L134.2540625,154.52623505111768L134.71541666666667,154.65276584618664L135.17677083333334,154.66413161512241L135.638125,154.75866324111348L136.09947916666667,154.8489854758164L136.56083333333333,154.8538056721849L137.0221875,154.94667964803193L137.48354166666667,155.0229856880671L137.94489583333333,155.0755009455238L138.40625,155.10226978323837L138.86760416666667,155.2288056425516L139.32895833333333,155.22025409007563L139.7903125,155.27446943077686L140.25166666666667,155.30762468310144L140.71302083333333,155.44854648945082L141.174375,155.49159314871423L141.6357291666667,155.51185624737442L142.09708333333333,155.51437450340006L142.5584375,155.5654238052242L143.0197916666667,155.67747989572072L143.48114583333333,155.73711297839708L143.9425,155.7389241544919L144.40385416666666,155.82541532732512L144.86520833333333,155.86656411417079L145.3265625,155.96575104876283L145.78791666666666,156.01443385157972L146.24927083333333,156.04024966308415L146.710625,156.09873168901333L147.17197916666666,156.15798357228962L147.63333333333333,156.2387426260416L148.09468750000002,156.26095080211135L148.55604166666666,156.30432456849817L149.01739583333332,156.35437398610162L149.47875000000002,156.40938860667518L149.94010416666666,156.38445521886808L150.40145833333332,156.39794032367917L150.86281250000002,156.49018076076908L151.32416666666666,156.57878468709254L151.78552083333332,156.6122621402403L152.24687500000002,156.72355187498906L152.70822916666665,156.78449682861412L153.16958333333335,156.76980292169523L153.63093750000002,156.75087162394468L154.09229166666665,156.8288002001592L154.55364583333335,156.85113332534831L155.01500000000001,156.92238892236352L155.47635416666665,156.9363801628671L155.93770833333335,156.98473203698907L156.39906249999999,157.05045424129273L156.86041666666665,157.0558400049712L157.32177083333335,157.139029001886L157.78312499999998,157.21639259851185L158.24447916666665,157.19614109053302L158.70583333333335,157.1822314491028L159.16718749999998,157.2488496856619L159.62854166666668,157.29830761510686L160.08989583333334,157.3787936770613L160.55124999999998,157.42174496496617L161.01260416666668,157.46022671607076L161.47395833333334,157.49233807372306L161.93531249999998,157.53208571819815L162.39666666666668,157.57703063264861L162.85802083333334,157.58163021566062L163.31937499999998,157.62463206577164L163.78072916666667,157.6613868561964L164.24208333333334,157.66099971350425L164.7034375,157.6273785260484L165.16479166666667,157.7126739052145L165.62614583333334,157.74218186681537L166.0875,157.71023608169543L166.54885416666667,157.76165725013746L167.01020833333334,157.83882490799235L167.4715625,157.90364546711308L167.93291666666667,157.90127618650723L168.3942708333333,157.96903746720955L168.855625,157.95067297605755L169.31697916666667,157.97865028019325L169.7783333333333,158.01689552756403L170.2396875,158.0602494159421L170.70104166666667,158.14965275577464L171.16239583333333,158.10995679574626L171.62375,158.0086839544511L172.08510416666667,158.18507179929503L172.54645833333333,158.19264699502457L173.0078125,158.21817083145834L173.46916666666667,158.29994997299107L173.93052083333333,158.32667293065262L174.391875,158.3075386860415L174.85322916666667,158.3424869883488L175.31458333333333,158.37604262567507L175.7759375,158.36943170198333L176.2372916666667,158.42486315102948L176.69864583333333,158.48626486385265L177.16,158.48625910006783L177.6213541666667,158.51514352056168L178.08270833333333,158.51400569975138L178.5440625,158.44351812649714L179.00541666666666,158.5108954602688L179.46677083333333,158.58543571673363L179.928125,158.5765157055545L180.38947916666666,158.64942490189492L180.85083333333333,158.65564147338077L181.3121875,158.6897739425317L181.77354166666666,158.66582608198672L182.23489583333333,158.62415864392088L182.69625000000002,158.6879772588278L183.15760416666666,158.76141948302399L183.61895833333332,158.81067758638636L184.08031250000002,158.72206093125925L184.54166666666666,158.82298546049392L185.00302083333332,158.87407848660098L185.46437500000002,158.95562515132178L185.92572916666666,158.7351242873875L186.38708333333332,158.9346895809167L186.84843750000002,159.00686697944798L187.30979166666665,158.96564082679845L187.77114583333335,158.92590618074195L188.23250000000002,159.0256305491208L188.69385416666665,159.07360173021158L189.15520833333335,159.0128414857379L189.61656250000001,159.04451192709752L190.07791666666665,159.06182385058426L190.53927083333335,158.9742451776339L191.00062499999999,159.09776861186464L191.46197916666665,159.13333762707876L191.92333333333335,159.10641298470077L192.38468749999998,159.16307786875092L192.84604166666665,159.21092670038578L193.30739583333335,159.2392746611089L193.76874999999998,159.16008461931975L194.23010416666668,159.26531273559598L194.69145833333334,159.28785012305843L195.15281249999998,159.13088407810534L195.61416666666668,159.2979491342366L196.07552083333334,159.29456441196183L196.53687499999998,159.3574143564247L196.99822916666668,159.3557311399198L197.45958333333334,159.2497556830676L197.92093749999998,159.38544096521383L198.38229166666667,159.339430166139L198.84364583333334,159.35234853957957L199.305,159.29535893326917L199.76635416666667,159.41166974704922L200.22770833333334,159.38575045079864L200.6890625,159.35116543426818L201.15041666666667,159.51497456325146L201.61177083333334,159.45806163235068L202.073125,159.52389109853675L202.53447916666667,159.23575190676152L202.9958333333333,159.49026162679326L203.4571875,159.53772892006887L203.91854166666667,159.5865816884746L204.3798958333333,159.37696747799413L204.84125,159.52663176612646L205.30260416666667,159.5385329019197L205.76395833333333,159.62576446599093L206.2253125,159.60019607670176L206.68666666666667,159.6725616030586L207.14802083333333,159.5367226456356L207.609375,159.53630254520488L208.07072916666667,159.37691658871478L208.53208333333333,159.55708968754962L208.9934375,159.7013427780595L209.45479166666667,159.64072044502223L209.91614583333333,159.72824134991427L210.3775,159.749747587625L210.8388541666667,159.56174435166997L211.30020833333333,159.69047081023228L211.7615625,159.7588776356036L212.2229166666667,159.80441145458872L212.68427083333333,159.51054777154846L213.145625,159.49682146748074L213.60697916666666,159.74019990632715L214.06833333333333,159.88356192015388L214.5296875,159.8749356292557L214.99104166666666,159.86683300284002L215.45239583333333,159.8167501658185L215.91375,159.71617308615185L216.37510416666666,159.7167658341914L216.83645833333333,159.88132016912988L217.29781250000002,159.8537103507274L217.75916666666666,159.73786935092042L218.22052083333332,159.8963442253139L218.68187500000002,159.6534765447553L219.14322916666666,159.6973240089776L219.60458333333332,159.91026498644044L220.06593750000002,160.02393174619345L220.52729166666666,159.94128494819296L220.98864583333332,159.4424870277471L221.45000000000002,159.7862683447568L221.91135416666665,159.9548048159876L222.37270833333335,159.73849706356026L222.83406250000002,159.76105841810585L223.29541666666665,159.98374768111023L223.75677083333335,159.59703963250843L224.21812500000001,159.8819287376195L224.67947916666665,160.06528437219214L225.14083333333335,159.5488929316557L225.60218749999999,159.78773792340928L226.06354166666665,159.9959527457067L226.52489583333335,160.12136004662253L226.98624999999998,159.83363761461763L227.44760416666665,159.90914391273904L227.90895833333335,160.09444189955084L228.37031249999998,160.18572887967983L228.83166666666668,159.68761032920023L229.29302083333334,159.9737135438169L229.75437499999998,160.13235502191426L230.21572916666668,159.74700207614273L230.67708333333334,159.9995941374347L231.13843749999998,160.14683681289296L231.59979166666668,159.68530218237333L232.06114583333334,159.90338061957635L232.52249999999998,160.11696564596815L232.98385416666667,159.89907738972045L233.44520833333334,160.0868487497408L233.9065625,160.17583583250712L234.36791666666667,159.87667043995086L234.82927083333334,159.99048906373216L235.290625,160.175676356377L235.75197916666667,159.93368106494384L236.21333333333334,160.0056304098248L236.6746875,160.20373834601855L237.13604166666667,159.86434136209164L237.5973958333333,160.09550274715167L238.05875,160.21025410005788L238.52010416666667,159.84162471663018L238.9814583333333,159.9445773045416L239.4428125,160.15171792685456L239.90416666666667,160.2295195621349L240.36552083333333,159.89780075676373L240.826875,160.119812329624L241.28822916666667,160.27925455584597L241.74958333333333,160.32916015967547L242.2109375,159.84966600174687L242.67229166666667,160.11761269237024L243.13364583333333,160.26279075622267L243.595,159.8235846845138L244.05635416666667,160.09188927529132L244.51770833333333,160.22774826101778L244.9790625,159.7179878123026L245.4404166666667,160.03657173743508L245.90177083333333,160.05563198985013L246.363125,160.04183236848894L246.8244791666667,160.2491785934743L247.28583333333333,160.34740712292395L247.7471875,159.73289788969345L248.20854166666666,160.06982630864144L248.66989583333333,160.27277173439086L249.13125,159.66371487500106L249.59260416666666,160.02102583510438L250.05395833333333,160.25057589502651L250.5153125,160.38656307931336L250.97666666666666,159.9490248570017L251.43802083333333,159.90326915207717L251.89937500000002,160.1840712059149L252.36072916666666,160.35533805616882L252.82208333333332,160.13972750364923L253.28343750000002,160.1614980317116L253.74479166666666,160.3385065759312" style="fill: none;" fill="none"></path></g></g></g></g><g opacity="0.2"><g><g><g><path stroke="rgb(51, 187, 238)" stroke-width="2px" d="M30.449375,-6.002655679529369L30.910729166666666,1.491859446872354L31.372083333333332,7.555043480613023L31.833437500000002,12.709582881494015L32.29479166666667,17.77427445758474L32.756145833333335,21.430327079512864L33.2175,27.830613092942684L33.67885416666667,30.53035416386345L34.140208333333334,35.54270803928378L34.6015625,38.72127625075254L35.062916666666666,41.737028848041206L35.52427083333333,45.4545593261719L35.985625,47.76333575898951L36.446979166666665,49.18182459744541L36.90833333333333,51.83740903030744L37.369687500000005,55.216245434500976L37.831041666666664,59.217293370853795L38.29239583333334,60.255252502181335L38.753750000000004,61.926308870315566L39.21510416666666,64.51726962219587L39.676458333333336,66.39584492553367L40.137812499999995,66.36064621535215L40.59916666666667,69.52598853544757L41.060520833333335,71.84650426561183L41.521875,73.73669418421659L41.98322916666667,74.53201239759272L42.44458333333333,75.117548216473L42.9059375,76.37301044030625L43.36729166666667,78.00621141086927L43.82864583333333,79.05121028423311L44.29,79.9142500487241L44.751354166666665,81.08491407199341L45.21270833333333,82.46721633455972L45.674062500000005,83.55450161478738L46.135416666666664,84.78549258275467L46.59677083333333,85.80132544040681L47.058125000000004,87.41503764282575L47.51947916666666,88.23085646737705L47.98083333333334,89.20636426318777L48.442187499999996,91.23790050094779L48.90354166666667,89.23235088586809L49.364895833333335,92.24186458370903L49.82625,93.41704113916919L50.28760416666667,93.03996416655455L50.74895833333333,94.8530813780698L51.2103125,94.05532706867565L51.67166666666667,93.92337026921187L52.13302083333333,95.7672359997576L52.594375,96.18080166253178L53.05572916666667,97.35780049454083L53.51708333333333,97.75722912766717L53.9784375,97.60561092333361L54.439791666666665,98.35004925727846L54.90114583333333,99.45456464182247L55.362500000000004,100.0893019275232L55.82385416666666,101.43249717625706L56.28520833333334,100.54254046895288L56.746562499999996,100.74466450647876L57.20791666666667,101.74041395837611L57.669270833333336,102.36839922991666L58.130624999999995,102.27262900634247L58.59197916666667,103.0178537964821L59.053333333333335,102.15928820046513L59.5146875,103.59742885286158L59.97604166666667,104.82124101031911L60.43739583333333,105.17645066434687L60.89875,106.33551925420763L61.36010416666667,105.8906871622259L61.82145833333333,105.0127478892153L62.2828125,106.25075462189588L62.744166666666665,106.92679044875231L63.20552083333333,104.4196544181217L63.666875000000005,106.86521188779312L64.12822916666667,107.36357095566663L64.58958333333334,107.94625826857308L65.0509375,108.71273176236588L65.51229166666667,107.41327115080574L65.97364583333334,110.18524150956762L66.435,107.52989684993571L66.89635416666667,109.57509057088333L67.35770833333333,109.90221318873492L67.8190625,111.02615020491861L68.28041666666667,110.50373229113492L68.74177083333333,109.40796383402565L69.203125,109.72744727676566L69.66447916666667,111.38837562365967L70.12583333333333,111.06227443976837L70.5871875,111.14085292274302L71.04854166666667,112.50724862922323L71.50989583333335,111.88688335093585L71.97125,111.98911786079408L72.43260416666666,111.48243386637081L72.89395833333333,112.38068672743711L73.3553125,113.09225215153262L73.81666666666666,113.14466657963666L74.27802083333333,114.05379075895658L74.73937500000001,113.37002943862569L75.20072916666666,113.81207536567342L75.66208333333333,110.86302288553932L76.12343750000001,113.81992074576291L76.58479166666667,113.57306940989062L77.04614583333333,114.1093414209106L77.50750000000001,113.24277219447222L77.96885416666667,113.19298568097028L78.43020833333333,114.44036275148392L78.89156249999999,115.08012568408793L79.35291666666667,116.07519418001175L79.81427083333334,114.22447573054922L80.27562499999999,114.93273707953367L80.73697916666667,113.70395202528348L81.19833333333334,115.369119562886L81.65968749999999,116.02884121916512L82.12104166666667,116.02925842458552L82.58239583333334,115.68261347033763L83.04375,115.89951712976804L83.50510416666667,113.40757792646235L83.96645833333334,116.67803683064201L84.4278125,115.58089687065646L84.88916666666665,115.42678022926505L85.35052083333333,116.03398675268348L85.811875,117.02032750303096L86.27322916666667,116.79608678275889L86.73458333333333,116.01316004991531L87.1959375,117.10526477206838L87.65729166666667,117.53456435420297L88.11864583333335,118.77248476852071L88.58,116.25570026311007L89.04135416666666,116.91911922259766L89.50270833333333,117.5573619929227L89.9640625,118.10682153159922L90.42541666666666,117.00833884152499L90.88677083333333,117.0845819332383L91.34812500000001,119.26102752035315L91.80947916666666,117.98329515890643L92.27083333333333,119.2842567508871L92.73218750000001,117.32038931413132L93.19354166666666,118.48186043175784L93.65489583333333,117.09638836708936L94.11625000000001,119.84396899288352L94.57760416666667,119.2709781094031L95.03895833333333,119.23157377676532L95.50031249999999,118.50806764580987L95.96166666666667,117.32066265561365L96.42302083333333,118.89445261521774L96.88437499999999,118.2204260880297L97.34572916666667,119.31567663496192L97.80708333333334,120.36752822724256L98.26843749999999,118.70750622315842L98.72979166666667,117.54416007887235L99.19114583333334,119.52635098587385L99.6525,118.73347845944491L100.11385416666667,117.96222388744354L100.57520833333334,116.22278419407931L101.0365625,119.54528348012406L101.49791666666665,117.57085163484922L101.95927083333333,119.3954779614102L102.420625,118.96285032684153L102.88197916666667,119.95490247553046L103.34333333333333,120.64136843789709L103.8046875,117.96799283136022L104.26604166666667,119.33923675255343L104.72739583333333,119.2816672000018L105.18875,118.9622029391202L105.65010416666667,119.70027769153769L106.11145833333335,119.6270605379885L106.5728125,118.9627640084787L107.03416666666666,119.47000907226044L107.49552083333333,117.93618451465261L107.956875,119.32312399148941L108.41822916666666,119.09727679057556L108.87958333333333,118.08962020007047L109.34093750000001,120.77248603105545L109.80229166666666,120.83579575473613L110.26364583333333,118.66360854018819L110.72500000000001,119.53366406939247L111.18635416666667,119.47231089526957L111.64770833333333,121.62689635699446L112.10906250000001,119.37719765034589L112.57041666666667,120.56266527284276L113.03177083333333,119.64518739418551L113.49312499999999,118.04348303513095L113.95447916666667,120.28227925300598L114.41583333333334,120.09016335010529L114.87718749999999,120.36364390091464L115.33854166666667,119.80440640991385L115.79989583333334,119.49927099726418L116.26124999999999,119.7489516572519L116.72260416666667,117.72310763597488L117.18395833333334,119.39830249006098L117.6453125,120.19924098795111L118.10666666666667,118.82554178888148L118.56802083333334,119.7602305899967L119.029375,120.38320460102776L119.49072916666665,121.2491552125324L119.95208333333333,119.84091428193179L120.4134375,119.33694452047348L120.87479166666667,120.5802502415397L121.33614583333333,120.09007703174245L121.7975,121.24491602182388L122.25885416666667,119.36475821516731L122.72020833333335,120.30172006650406L123.1815625,120.29628200964495L123.64291666666666,118.2747347246517L124.10427083333333,118.77506472847679L124.565625,120.88186818090352L125.02697916666666,121.07319522987714L125.48833333333333,121.30504875020549L125.94968750000001,119.77034422484311L126.41104166666666,118.18847870284861L126.87239583333333,119.0167081897909L127.33375000000001,121.14328813823786L127.79510416666666,118.97016341036017L128.25645833333334,119.05661125074735L128.7178125,120.80842803825033L129.17916666666667,119.33510785753077L129.64052083333334,120.58720846067777L130.101875,119.50241202657874L130.56322916666667,120.78997269272804L131.02458333333334,119.07920747995377L131.4859375,119.95242322033103L131.94729166666667,120.38001561706717L132.40864583333334,120.2971787615256L132.87,119.99890086325732L133.33135416666667,119.79600475593048L133.79270833333334,119.04149115085602L134.2540625,118.69481262835589L134.71541666666667,119.59342514926738L135.17677083333334,119.96831059455872L135.638125,119.28965164856479L136.09947916666667,119.72978418523616L136.56083333333333,116.63573603738439L137.0221875,118.17730527032506L137.48354166666667,120.50187796354294L137.94489583333333,119.18822757222436L138.40625,120.52158732305875L138.86760416666667,119.83686690980738L139.32895833333333,120.0551660494371L139.7903125,118.14412545074117L140.25166666666667,117.70284200256522L140.71302083333333,120.05763091824272L141.174375,116.01820967414164L141.6357291666667,119.76371209729803L142.09708333333333,119.14456007155505L142.5584375,120.40708601474762L143.0197916666667,116.80585514415395L143.48114583333333,118.71455076065931L143.9425,119.19198242100802L144.40385416666666,117.73296711119738L144.86520833333333,118.29974307255313L145.3265625,118.62636696208608L145.78791666666666,118.52181624282491L146.24927083333333,118.86082681742582L146.710625,119.55370911143044L147.17197916666666,118.81290573965421L147.63333333333333,117.94643242250791L148.09468750000002,119.74474123933099L148.55604166666666,116.601151146672L149.01739583333332,118.13769952817398L149.47875000000002,118.14980328083038L149.94010416666666,119.00727071545342L150.40145833333332,118.72379641641271L150.86281250000002,118.13465440815146L151.32416666666666,119.7881929440932L151.78552083333332,119.41927305676721L152.24687500000002,118.39262642643669L152.70822916666665,117.821122136983L153.16958333333335,115.25374068455264L153.63093750000002,119.44923991506751L154.09229166666665,118.00030467185107L154.55364583333335,118.0329234220765L155.01500000000001,116.21734134175561L155.47635416666665,117.51999093727633L155.93770833333335,118.7994113022631L156.39906249999999,118.42958507212725L156.86041666666665,118.51742839271373L157.32177083333335,119.31720159270547L157.78312499999998,119.28591598163953L158.24447916666665,117.5370579957962L158.70583333333335,118.84399473667145L159.16718749999998,117.86846296353775L159.62854166666668,118.76492711630735L160.08989583333334,117.4684396928007L160.55124999999998,119.49673899195412L161.01260416666668,116.44627202640882L161.47395833333334,114.59471437064084L161.93531249999998,116.24912568114021L162.39666666666668,116.59355513074182L162.85802083333334,118.12745162031868L163.31937499999998,117.40223350850019L163.78072916666667,118.37998558174482L164.24208333333334,116.81429516185415L164.7034375,114.25837007435885L165.16479166666667,119.61269332603976L165.62614583333334,111.94582440636376L166.0875,114.76277622309598L166.54885416666667,118.28630138527265L167.01020833333334,116.11725040457466L167.4715625,116.7864383079789L167.93291666666667,118.99450518868187L168.3942708333333,116.64733147079295L168.855625,117.96090993014249L169.31697916666667,117.02531958168204L169.7783333333333,116.9099407033487L170.2396875,118.02384081211957L170.70104166666667,114.15591497312894L171.16239583333333,117.45829728516665L171.62375,117.12532420050016L172.08510416666667,115.81938971172681L172.54645833333333,116.57132815230977L173.0078125,115.30709022825415L173.46916666666667,116.73709297722037L173.93052083333333,116.78209841251373L174.391875,117.13250301100992L174.85322916666667,116.9801846688444L175.31458333333333,117.21141717650674L175.7759375,112.74848447604614L176.2372916666667,116.40193795615977L176.69864583333333,117.60296206582677L177.16,113.6563138799234L177.6213541666667,116.60199035297742L178.08270833333333,114.14530260996386L178.5440625,115.73045782067561L179.00541666666666,116.77554780786689L179.46677083333333,116.0150974176147L179.928125,117.69103077324954L180.38947916666666,113.03557455539703L180.85083333333333,114.69849302010104L181.3121875,114.18810213154013L181.77354166666666,116.52910888195038L182.23489583333333,118.1309043548324L182.69625000000002,116.5426177057353L183.15760416666666,117.06674280491742L183.61895833333332,115.50767012617806L184.08031250000002,114.18897970156237L184.54166666666666,116.66489725763148L185.00302083333332,113.79063484343615L185.46437500000002,114.05878283760765L185.92572916666666,112.58287790146741L186.38708333333332,115.02509772777557L186.84843750000002,114.17838172479111L187.30979166666665,114.67016621069476L187.77114583333335,114.12817800586875L188.23250000000002,114.94239514524287L188.69385416666665,114.13275767456403L189.15520833333335,115.66511961546811L189.61656250000001,114.45456212217158L190.07791666666665,113.23714231902903L190.53927083333335,114.43923581730238L191.00062499999999,112.88480994376269L191.46197916666665,114.3467744643038L191.92333333333335,111.50170204314318L192.38468749999998,114.29999950257215L192.84604166666665,114.8565515333956L193.30739583333335,113.97756684910169L193.76874999999998,111.79324231364511L194.23010416666668,115.95987284725364L194.69145833333334,110.50381381403317L195.15281249999998,114.64981425892225L195.61416666666668,113.0779424851591L196.07552083333334,113.21755764159289L196.53687499999998,115.28112758289686L196.99822916666668,113.61193185502833L197.45958333333334,111.9732640548186L197.92093749999998,115.32198973677376L198.38229166666667,114.96405146338725L198.84364583333334,112.35219687223436L199.305,114.04768133705313L199.76635416666667,113.27945270321587L200.22770833333334,113.477654050697L200.6890625,114.15852370587262L201.15041666666667,112.54651389338754L201.61177083333334,113.54457475922325L202.073125,110.76493165709756L202.53447916666667,113.4012095494704L202.9958333333333,112.73930595679718L203.4571875,112.38442718982698L203.91854166666667,112.56073724139821L204.3798958333333,113.77908256920901L204.84125,112.70891230214727L205.30260416666667,111.92766877737913L205.76395833333333,111.28282744776119L206.2253125,113.44481950456446L206.68666666666667,110.19641494209117L207.14802083333333,112.35259010033175L207.609375,113.27758726748553L208.07072916666667,109.66363402930173L208.53208333333333,112.75533239949834L208.9934375,110.6642173095183L209.45479166666667,111.39822071248835L209.91614583333333,112.97545861114156L210.3775,106.19313711469825L210.8388541666667,110.53894538771023L211.30020833333333,112.81576484441759L211.7615625,109.10324562679638L212.2229166666667,110.94430121508512L212.68427083333333,112.02963474121961L213.145625,111.42418335784566L213.60697916666666,112.63544578443874L214.06833333333333,113.98987680673599L214.5296875,110.052004321055L214.99104166666666,110.46871580860832L215.45239583333333,110.99264908920635L215.91375,110.13699913566764L216.37510416666666,112.17127837918022L216.83645833333333,111.0064312544736L217.29781250000002,105.94890410249884L217.75916666666666,112.1891510757533L218.22052083333332,110.37386631423777L218.68187500000002,113.32357577302241L219.14322916666666,112.37620776349848L219.60458333333332,113.53185239163312L220.06593750000002,112.30239597233859L220.52729166666666,100.12100953947414L220.98864583333332,112.6572987166318L221.45000000000002,111.7175602912903L221.91135416666665,110.12096310203727L222.37270833333335,102.48122212561695L222.83406250000002,111.65993798862804L223.29541666666665,111.3417780941183L223.75677083333335,111.29163192077118L224.21812500000001,110.88225749405947L224.67947916666665,110.53624074567449L225.14083333333335,107.73643751036037L225.60218749999999,112.65374527736145L226.06354166666665,110.0198555263606L226.52489583333335,111.51950760321185L226.98624999999998,109.14703780954535L227.44760416666665,111.97169114242901L227.90895833333335,112.62445937503469L228.37031249999998,109.06463734128259L228.83166666666668,111.30467078902505L229.29302083333334,111.90559525381435L229.75437499999998,111.14585938778791L230.21572916666668,110.59744046493012L230.67708333333334,111.22944433580746L231.13843749999998,111.38215590607037L231.59979166666668,110.17850388180126L232.06114583333334,110.51547638394617L232.52249999999998,112.65493934804744L232.98385416666667,109.17019031264566L233.44520833333334,112.18226478858429L233.9065625,111.95580856366593L234.36791666666667,110.03593951463701L234.82927083333334,109.7399874167009L235.290625,111.89549600536174L235.75197916666667,101.84556890617718L236.21333333333334,111.36133399876681L236.6746875,111.68528201905164L237.13604166666667,109.4822743535042L237.5973958333333,112.23343239589173L238.05875,107.15661788528617L238.52010416666667,103.66839693351227L238.9814583333333,110.4638580029661L239.4428125,108.2132649421692L239.90416666666667,110.02814208919352L240.36552083333333,108.5488467595794L240.826875,108.66605750539087L241.28822916666667,110.21662302992561L241.74958333333333,109.62519838051364L242.2109375,111.30929361690175L242.67229166666667,110.3308414058252L243.13364583333333,109.99546099792828L243.595,110.11893462051046L244.05635416666667,110.41426810351285L244.51770833333333,109.40864478999919L244.9790625,110.8088724992492L245.4404166666667,110.78960432247683L245.90177083333333,106.30582573738965L246.363125,111.53095917268234L246.8244791666667,110.85459725423294L247.28583333333333,107.98017179424113L247.7471875,110.33130177042702L248.20854166666666,109.8880569772287L248.66989583333333,109.58938585086304L249.13125,110.71587405421518L249.59260416666666,110.72760855609721L250.05395833333333,109.8653216795488L250.5153125,108.72936722907153L250.97666666666666,104.23549419099635L251.43802083333333,111.55677315863696L251.89937500000002,110.85701416839254L252.36072916666666,110.05651685324582L252.82208333333332,102.12711542844774L253.28343750000002,109.77442364801061L253.74479166666666,109.52881433747032" style="fill: none;" fill="none"></path></g><g><path stroke="rgb(0, 119, 187)" stroke-width="2px" d="M30.449375,-2.1853699467398826L30.910729166666666,5.384616201574147L31.372083333333332,12.284944490952938L31.833437500000002,18.552703044631272L32.29479166666667,24.329425204883933L32.756145833333335,29.54380241307348L33.2175,34.50165103782308L33.67885416666667,38.940217982638984L34.140208333333334,43.15485591238195L34.6015625,46.97747420180929L35.062916666666666,50.58821927417411L35.52427083333333,53.900139765305966L35.985625,57.17689990997316L36.446979166666665,60.06796083667062L36.90833333333333,62.87213753570212L37.369687500000005,65.53099247542295L37.831041666666664,67.97149072993888L38.29239583333334,70.4239201003855L38.753750000000004,72.65902860598132L39.21510416666666,74.77323385802183L39.676458333333336,76.75748201933774L40.137812499999995,78.91573840921576L40.59916666666667,80.70886332880369L41.060520833333335,82.63523023236881L41.521875,84.36418704011224L41.98322916666667,86.11742808060214L42.44458333333333,87.71828843788668L42.9059375,89.39181926575576L43.36729166666667,90.83963716571982L43.82864583333333,92.25028062408622L44.29,93.70511428876358L44.751354166666665,95.08520104668358L45.21270833333333,96.27155583013189L45.674062500000005,97.65733480453493L46.135416666666664,98.79683310335334L46.59677083333333,99.98133683746512L47.058125000000004,101.18761198087174L47.51947916666666,102.20682084560396L47.98083333333334,103.32140191034838L48.442187499999996,104.27298513325779L48.90354166666667,105.3044320236553L49.364895833333335,106.23171662742442L49.82625,107.30652890422128L50.28760416666667,108.16515684127809L50.74895833333333,109.06401393088427L51.2103125,109.92252198132601L51.67166666666667,110.68577771837062L52.13302083333333,111.48671621626075L52.594375,112.26372534578498L53.05572916666667,112.98304503614253L53.51708333333333,113.86464324864474L53.9784375,114.53880884430626L54.439791666666665,115.25178893045947L54.90114583333333,115.8688884973526L55.362500000000004,116.59013116901572L55.82385416666666,117.25336310538378L56.28520833333334,117.88028378378263L56.746562499999996,118.51484843275765L57.20791666666667,119.11611337553373L57.669270833333336,119.78966035626152L58.130624999999995,120.34380026838997L58.59197916666667,120.83868022669446L59.053333333333335,121.45125767046756L59.5146875,121.96238945830953L59.97604166666667,122.52524752508512L60.43739583333333,123.0162719298493L60.89875,123.62033742395315L61.36010416666667,124.07681769945405L61.82145833333333,124.57205012440681L62.2828125,124.99148303812201L62.744166666666665,125.5024661665613L63.20552083333333,126.04960470037028L63.666875000000005,126.38444322076711L64.12822916666667,126.83380462906578L64.58958333333334,127.30851486325264L65.0509375,127.8067516467788L65.51229166666667,128.19041998548943L65.97364583333334,128.52732055566528L66.435,129.06135308471593L66.89635416666667,129.39179656180468L67.35770833333333,129.86815164035016L67.8190625,130.34702913327652L68.28041666666667,130.5819733305411L68.74177083333333,131.03932398286733L69.203125,131.33125987919894L69.66447916666667,131.62314542315224L70.12583333333333,132.03014369715345L70.5871875,132.4012479186058L71.04854166666667,132.60570734739304L71.50989583333335,132.9858006672426L71.97125,133.43094206669116L72.43260416666666,133.8221296938983L72.89395833333333,134.02925300327215L73.3553125,134.3697166036476L73.81666666666666,134.73362043499947L74.27802083333333,134.96026368303734L74.73937500000001,135.36631005731496L75.20072916666666,135.7292643866756L75.66208333333333,135.9678938984871L76.12343750000001,136.13557211377406L76.58479166666667,136.42808106812564L77.04614583333333,136.88405542211098L77.50750000000001,137.1534454416145L77.96885416666667,137.47419009154493L78.43020833333333,137.7764793959531L78.89156249999999,137.87775241515854L79.35291666666667,138.28892514109612L79.81427083333334,138.4483983164484L80.27562499999999,138.73278135603124L80.73697916666667,139.11615477366882L81.19833333333334,139.2225253717466L81.65968749999999,139.47347203438932L82.12104166666667,139.82419313354927L82.58239583333334,139.88689862869003L83.04375,140.28929325667295L83.50510416666667,140.47467632727188L83.96645833333334,140.73160053654152L84.4278125,140.99391604689035L84.88916666666665,141.15059826184404L85.35052083333333,141.40306388789958L85.811875,141.6794013367458L86.27322916666667,141.9680031863126L86.73458333333333,142.06241269680586L87.1959375,142.3016512326219L87.65729166666667,142.5568910349499L88.11864583333335,142.7378802611069L88.58,142.65983167697084L89.04135416666666,142.96067874539983L89.50270833333333,143.30393570390615L89.9640625,143.62437344410205L90.42541666666666,143.8660732521252L90.88677083333333,143.95037632096899L91.34812500000001,144.1813666576689L91.80947916666666,144.21034445139495L92.27083333333333,144.45283670994368L92.73218750000001,144.64040051807058L93.19354166666666,144.77725228802723L93.65489583333333,144.89621577615088L94.11625000000001,145.30177900736982L94.57760416666667,145.37138517607343L95.03895833333333,145.5243209343065L95.50031249999999,145.7350492341952L95.96166666666667,145.76114735142752L96.42302083333333,145.88775960559195L96.88437499999999,146.19337216696957L97.34572916666667,146.3070066950538L97.80708333333334,146.54153128916568L98.26843749999999,146.62248592485082L98.72979166666667,146.83591646904296L99.19114583333334,147.02972636981445L99.6525,147.18772014433688L100.11385416666667,147.22288528626615L100.57520833333334,147.46211423115298L101.0365625,147.52979142422026L101.49791666666665,147.62636488811538L101.95927083333333,147.74247747253287L102.420625,148.0556440895254L102.88197916666667,148.18597043102437L103.34333333333333,148.30629343336278L103.8046875,148.46477754414082L104.26604166666667,148.47569441930816L104.72739583333333,148.708467469974L105.18875,148.80068185654554L105.65010416666667,149.01561937548897L106.11145833333335,149.01669835502452L106.5728125,149.10763235254723L107.03416666666666,149.33175198733807L107.49552083333333,149.45384811271322L107.956875,149.6289676901969L108.41822916666666,149.6288585933772L108.87958333333333,149.843408878554L109.34093750000001,149.927419424057L109.80229166666666,149.99587228352374L110.26364583333333,150.1442703333768L110.72500000000001,150.37066901271993L111.18635416666667,150.23202733560043L111.64770833333333,150.40208649906245L112.10906250000001,150.7185404070399L112.57041666666667,150.6570541587743L113.03177083333333,150.68357547575778L113.49312499999999,150.99706878377634L113.95447916666667,151.01531912318686L114.41583333333334,151.1300763894211L114.87718749999999,151.23801150782543L115.33854166666667,151.34460209784183L115.79989583333334,151.45087918435985L116.26124999999999,151.54894823377782L116.72260416666667,151.71283443543044L117.18395833333334,151.6916702518409L117.6453125,151.8175625868819L118.10666666666667,151.8167689374902L118.56802083333334,152.09765488451177L119.029375,152.19413543628022L119.49072916666665,152.26654635234314L119.95208333333333,152.31044943021104L120.4134375,152.29081739756194L120.87479166666667,152.53692363812166L121.33614583333333,152.60457325726748L121.7975,152.61555547064L122.25885416666667,152.71088511090386L122.72020833333335,152.74882143194026L123.1815625,152.82937684519726L123.64291666666666,152.89728661829776L124.10427083333333,153.0363299155777L124.565625,153.30666104500943L125.02697916666666,153.26166580007836L125.48833333333333,153.1992827999321L125.94968750000001,153.26485478403893L126.41104166666666,153.46832215108654L126.87239583333333,153.60111815685576L127.33375000000001,153.68354440074074L127.79510416666666,153.65556226535278L128.25645833333334,153.5218287462538L128.7178125,153.81145562637937L129.17916666666667,153.95353445275265L129.64052083333334,153.89713079753247L130.101875,154.0836108306592L130.56322916666667,154.09008171070707L131.02458333333334,154.1710411418568L131.4859375,154.2473010176962L131.94729166666667,154.46382044052535L132.40864583333334,154.49900776147842L132.87,154.45506631989372L133.33135416666667,154.47502504356882L133.79270833333334,154.51980329372665L134.2540625,154.61763137104836L134.71541666666667,154.8425620387901L135.17677083333334,154.68118026852608L135.638125,154.90046068010005L136.09947916666667,154.98446882787076L136.56083333333333,154.86103596673772L137.0221875,155.08599061180246L137.48354166666667,155.1374447481199L137.94489583333333,155.15427383170885L138.40625,155.14242303981024L138.86760416666667,155.41860943152147L139.32895833333333,155.2074267613617L139.7903125,155.35579244182867L140.25166666666667,155.3573575615883L140.71302083333333,155.6599291989749L141.174375,155.5561631376093L141.6357291666667,155.5422508953647L142.09708333333333,155.5181518874385L142.5584375,155.64199775796044L143.0197916666667,155.84556403146547L143.48114583333333,155.82656260241163L143.9425,155.74164091863415L144.40385416666666,155.9551520865749L144.86520833333333,155.9282872944393L145.3265625,156.1145314506509L145.78791666666666,156.0874580558051L146.24927083333333,156.07897338034076L146.710625,156.18645472790706L147.17197916666666,156.24686139720407L147.63333333333333,156.3598812066696L148.09468750000002,156.29426306621593L148.55604166666666,156.36938521807843L149.01739583333332,156.42944811250675L149.47875000000002,156.4919105375355L149.94010416666666,156.34705513715744L150.40145833333332,156.41816798089582L150.86281250000002,156.62854141640392L151.32416666666666,156.71169057657772L151.78552083333332,156.6624783199619L152.24687500000002,156.89048647711223L152.70822916666665,156.87591425905174L153.16958333333335,156.74776206131685L153.63093750000002,156.72247467731887L154.09229166666665,156.94569306448102L154.55364583333335,156.88463301313195L155.01500000000001,157.02927231788635L155.47635416666665,156.95736702362245L155.93770833333335,157.057259848172L156.39906249999999,157.1490375477482L156.86041666666665,157.06391865048897L157.32177083333335,157.2638124972582L157.78312499999998,157.33243799345058L158.24447916666665,157.16576382856476L158.70583333333335,157.16136698695746L159.16718749999998,157.34877704050052L159.62854166666668,157.3724945092743L160.08989583333334,157.499522769993L160.55124999999998,157.48617189682344L161.01260416666668,157.51794934272766L161.47395833333334,157.5405051102015L161.93531249999998,157.59170718491077L162.39666666666668,157.64444800432432L162.85802083333334,157.5885295901786L163.31937499999998,157.68913484093818L163.78072916666667,157.71651904183355L164.24208333333334,157.66041899946603L164.7034375,157.57694674486464L165.16479166666667,157.84061697396365L165.62614583333334,157.78644380921668L166.0875,157.66231740401548L166.54885416666667,157.83878900280052L167.01020833333334,157.9545763947747L167.4715625,158.00087630579418L167.93291666666667,157.89772226559845L168.3942708333333,158.07067938826302L168.855625,157.92312623932958L169.31697916666667,158.02061623639682L169.7783333333333,158.07426339862022L170.2396875,158.12528024850923L170.70104166666667,158.2837577655234L171.16239583333333,158.0504128557037L171.62375,157.8567746925083L172.08510416666667,158.44965356656095L172.54645833333333,158.20400978861886L173.0078125,158.25645658610898L173.46916666666667,158.42261868529022L173.93052083333333,158.36675736714494L174.391875,158.27883731912482L174.85322916666667,158.39490944180977L175.31458333333333,158.42637608166444L175.7759375,158.3595153164457L176.2372916666667,158.50801032459873L176.69864583333333,158.5783674330874L177.16,158.48625045439059L177.6213541666667,158.5584701513025L178.08270833333333,158.51229896853593L178.5440625,158.33778676661578L179.00541666666666,158.61196146092632L179.46677083333333,158.69724610143086L179.928125,158.5631356887858L180.38947916666666,158.75878869640556L180.85083333333333,158.66496633060953L181.3121875,158.7409726462581L181.77354166666666,158.62990429116923L182.23489583333333,158.56165748682213L182.69625000000002,158.7837051811882L183.15760416666666,158.87158281931823L183.61895833333332,158.88456474142995L184.08031250000002,158.58913594856858L184.54166666666666,158.9743722543459L185.00302083333332,158.95071802576157L185.46437500000002,159.077945148403L185.92572916666666,158.404372991486L186.38708333333332,159.23403752121058L186.84843750000002,159.11513307724488L187.30979166666665,158.90380159782416L187.77114583333335,158.86630421165717L188.23250000000002,159.1752171016891L188.69385416666665,159.14555850184777L189.15520833333335,158.92170111902735L189.61656250000001,159.09201758913696L190.07791666666665,159.0877917358144L190.53927083333335,158.84287716820836L191.00062499999999,159.28305376321077L191.46197916666665,159.1866911498999L191.92333333333335,159.06602602113378L192.38468749999998,159.24807519482619L192.84604166666665,159.28269994783807L193.30739583333335,159.2817966021936L193.76874999999998,159.041299556636L194.23010416666668,159.42315491001037L194.69145833333334,159.32165620425206L195.15281249999998,158.89543501067567L195.61416666666668,159.5485467184335L196.07552083333334,159.28948732854968L196.53687499999998,159.45168927311897L196.99822916666668,159.3532063151625L197.45958333333334,159.09079249778932L197.92093749999998,159.58896888843316L198.38229166666667,159.27041396752676L198.84364583333334,159.37172609974039L199.305,159.2098745238036L199.76635416666667,159.5861359677193L200.22770833333334,159.34687150642276L200.6890625,159.29928790947253L201.15041666666667,159.76068825672635L201.61177083333334,159.3726922359995L202.073125,159.62263529781592L202.53447916666667,158.80354311909866L202.9958333333333,159.87202620684084L203.4571875,159.6089298599823L203.91854166666667,159.65986084108326L204.3798958333333,159.0625461622734L204.84125,159.75112819832495L205.30260416666667,159.55638460560957L205.76395833333333,159.7566118120978L206.2253125,159.56184349276802L206.68666666666667,159.78110989259386L207.14802083333333,159.33296420950103L207.609375,159.5356723945588L208.07072916666667,159.13783765397966L208.53208333333333,159.82734933580187L208.9934375,159.91772241382438L209.45479166666667,159.54978694546628L209.91614583333333,159.85952270725232L210.3775,159.78200694419104L210.8388541666667,159.27973949773747L211.30020833333333,159.88356049807572L211.7615625,159.86148787366056L212.2229166666667,159.8727121830664L212.68427083333333,159.0697522469881L213.145625,159.47623201137918L213.60697916666666,160.10526756459677L214.06833333333333,160.09860494089398L214.5296875,159.8619961929084L214.99104166666666,159.85467906321654L215.45239583333333,159.7416259102862L215.91375,159.56530746665192L216.37510416666666,159.7176549562507L216.83645833333333,160.12815167153764L217.29781250000002,159.81229562312365L217.75916666666666,159.56410785120997L218.22052083333332,160.1340565369041L218.68187500000002,159.28917502391744L219.14322916666666,159.76309520531106L219.60458333333332,160.2296764526347L220.06593750000002,160.19443188582292L220.52729166666666,159.81731475119224L220.98864583333332,158.6942901470783L221.45000000000002,160.3019403202713L221.91135416666665,160.20760952283374L222.37270833333335,159.41403543491933L222.83406250000002,159.79490044992417L223.29541666666665,160.31778157561678L223.75677083333335,159.01697755960578L224.21812500000001,160.30926239528608L224.67947916666665,160.3403178240511L225.14083333333335,158.774305770851L225.60218749999999,160.1460054110397L226.06354166666665,160.3082749791528L226.52489583333335,160.3094709979963L226.98624999999998,159.40205396661025L227.44760416666665,160.02240335992116L227.90895833333335,160.37238887976855L228.37031249999998,160.32265934987333L228.83166666666668,158.9404325034808L229.29302083333334,160.40286836574194L229.75437499999998,160.3703172390603L230.21572916666668,159.16897265748543L230.67708333333334,160.37848222937265L231.13843749999998,160.36770082608035L231.59979166666668,158.99300023659387L232.06114583333334,160.2304982753809L232.52249999999998,160.43734318555587L232.98385416666667,159.57224500534886L233.44520833333334,160.36850578977135L233.9065625,160.30931645665657L234.36791666666667,159.42792235111648L234.82927083333334,160.16121699940413L235.290625,160.4534572953443L235.75197916666667,159.57068812779406L236.21333333333334,160.11355442714623L236.6746875,160.50090025030923L237.13604166666667,159.3552458862012L237.5973958333333,160.44224482474172L238.05875,160.38238112941724L238.52010416666667,159.2886806414886L238.9814583333333,160.09900618640876L239.4428125,160.462428860324L239.90416666666667,160.3462220150554L240.36552083333333,159.40022254870695L240.826875,160.45282968891445L241.28822916666667,160.5184178951789L241.74958333333333,160.40401856541973L242.2109375,159.13042476485398L242.67229166666667,160.51953272830525L243.13364583333333,160.48055785200137L243.595,159.1647755769505L244.05635416666667,160.49434616145763L244.51770833333333,160.43153673960742L244.9790625,158.95334713922983L245.4404166666667,160.5144476251338L245.90177083333333,160.0842223684727L246.363125,160.02113293644717L246.8244791666667,160.56019793095237L247.28583333333333,160.4947499170984L247.7471875,158.81113403984767L248.20854166666666,160.57521893706343L248.66989583333333,160.57718987301502L249.13125,158.75012958591634L249.59260416666666,160.55699227525938L250.05395833333333,160.5949009849097L250.5153125,160.59054385574365L250.97666666666666,159.29271752353418L251.43802083333333,159.83463559469038L251.89937500000002,160.60527428667146L252.36072916666666,160.61223833154972L252.82208333333332,159.81631167486987L253.28343750000002,160.19415382380512L253.74479166666666,160.6040193922606" style="fill: none;" fill="none"></path></g></g></g></g></g></g><g transform="translate(53, 177)" clip-path="url(#clip_1)"><clipPath id="clip_1"><rect width="276" height="22"></rect></clipPath><g><g><line x1="0" y1="0" x2="0" y2="5" style="visibility: inherit;" fill="rgb(0, 0, 0)" stroke="rgb(204, 204, 204)" stroke-width="1px"></line><line x1="23.067708333333332" y1="0" x2="23.067708333333332" y2="5" style="visibility: inherit;" fill="rgb(0, 0, 0)" stroke="rgb(204, 204, 204)" stroke-width="1px"></line><line x1="46.135416666666664" y1="0" x2="46.135416666666664" y2="5" style="visibility: inherit;" fill="rgb(0, 0, 0)" stroke="rgb(204, 204, 204)" stroke-width="1px"></line><line x1="69.203125" y1="0" x2="69.203125" y2="5" style="visibility: inherit;" fill="rgb(0, 0, 0)" stroke="rgb(204, 204, 204)" stroke-width="1px"></line><line x1="92.27083333333333" y1="0" x2="92.27083333333333" y2="5" style="visibility: inherit;" fill="rgb(0, 0, 0)" stroke="rgb(204, 204, 204)" stroke-width="1px"></line><line x1="115.33854166666667" y1="0" x2="115.33854166666667" y2="5" style="visibility: inherit;" fill="rgb(0, 0, 0)" stroke="rgb(204, 204, 204)" stroke-width="1px"></line><line x1="138.40625" y1="0" x2="138.40625" y2="5" style="visibility: inherit;" fill="rgb(0, 0, 0)" stroke="rgb(204, 204, 204)" stroke-width="1px"></line><line x1="161.47395833333334" y1="0" x2="161.47395833333334" y2="5" style="visibility: inherit;" fill="rgb(0, 0, 0)" stroke="rgb(204, 204, 204)" stroke-width="1px"></line><line x1="184.54166666666666" y1="0" x2="184.54166666666666" y2="5" style="visibility: inherit;" fill="rgb(0, 0, 0)" stroke="rgb(204, 204, 204)" stroke-width="1px"></line><line x1="207.609375" y1="0" x2="207.609375" y2="5" style="visibility: inherit;" fill="rgb(0, 0, 0)" stroke="rgb(204, 204, 204)" stroke-width="1px"></line><line x1="230.67708333333334" y1="0" x2="230.67708333333334" y2="5" style="visibility: inherit;" fill="rgb(0, 0, 0)" stroke="rgb(204, 204, 204)" stroke-width="1px"></line><line x1="253.74479166666666" y1="0" x2="253.74479166666666" y2="5" style="visibility: inherit;" fill="rgb(0, 0, 0)" stroke="rgb(204, 204, 204)" stroke-width="1px"></line><line x1="276.8125" y1="0" x2="276.8125" y2="5" style="visibility: inherit;" fill="rgb(0, 0, 0)" stroke="rgb(204, 204, 204)" stroke-width="1px"></line></g><g transform="translate(0, 8)"><text x="0" y="0" dx="0em" dy="0.95em" style="text-anchor: middle; visibility: hidden; font-family: &quot;Helvetica Neue&quot;, sans-serif; font-size: 12px; font-weight: 200;" fill="rgb(50, 49, 63)" stroke="none" stroke-width="1px">-50</text><text x="23.067708333333332" y="0" dx="0em" dy="0.95em" style="text-anchor: middle; visibility: inherit; font-family: &quot;Helvetica Neue&quot;, sans-serif; font-size: 12px; font-weight: 200;" fill="rgb(50, 49, 63)" stroke="none" stroke-width="1px">0</text><text x="46.135416666666664" y="0" dx="0em" dy="0.95em" style="text-anchor: middle; visibility: hidden; font-family: &quot;Helvetica Neue&quot;, sans-serif; font-size: 12px; font-weight: 200;" fill="rgb(50, 49, 63)" stroke="none" stroke-width="1px">50</text><text x="69.203125" y="0" dx="0em" dy="0.95em" style="text-anchor: middle; visibility: inherit; font-family: &quot;Helvetica Neue&quot;, sans-serif; font-size: 12px; font-weight: 200;" fill="rgb(50, 49, 63)" stroke="none" stroke-width="1px">100</text><text x="92.27083333333333" y="0" dx="0em" dy="0.95em" style="text-anchor: middle; visibility: hidden; font-family: &quot;Helvetica Neue&quot;, sans-serif; font-size: 12px; font-weight: 200;" fill="rgb(50, 49, 63)" stroke="none" stroke-width="1px">150</text><text x="115.33854166666667" y="0" dx="0em" dy="0.95em" style="text-anchor: middle; visibility: inherit; font-family: &quot;Helvetica Neue&quot;, sans-serif; font-size: 12px; font-weight: 200;" fill="rgb(50, 49, 63)" stroke="none" stroke-width="1px">200</text><text x="138.40625" y="0" dx="0em" dy="0.95em" style="text-anchor: middle; visibility: hidden; font-family: &quot;Helvetica Neue&quot;, sans-serif; font-size: 12px; font-weight: 200;" fill="rgb(50, 49, 63)" stroke="none" stroke-width="1px">250</text><text x="161.47395833333334" y="0" dx="0em" dy="0.95em" style="text-anchor: middle; visibility: inherit; font-family: &quot;Helvetica Neue&quot;, sans-serif; font-size: 12px; font-weight: 200;" fill="rgb(50, 49, 63)" stroke="none" stroke-width="1px">300</text><text x="184.54166666666666" y="0" dx="0em" dy="0.95em" style="text-anchor: middle; visibility: hidden; font-family: &quot;Helvetica Neue&quot;, sans-serif; font-size: 12px; font-weight: 200;" fill="rgb(50, 49, 63)" stroke="none" stroke-width="1px">350</text><text x="207.609375" y="0" dx="0em" dy="0.95em" style="text-anchor: middle; visibility: inherit; font-family: &quot;Helvetica Neue&quot;, sans-serif; font-size: 12px; font-weight: 200;" fill="rgb(50, 49, 63)" stroke="none" stroke-width="1px">400</text><text x="230.67708333333334" y="0" dx="0em" dy="0.95em" style="text-anchor: middle; visibility: hidden; font-family: &quot;Helvetica Neue&quot;, sans-serif; font-size: 12px; font-weight: 200;" fill="rgb(50, 49, 63)" stroke="none" stroke-width="1px">450</text><text x="253.74479166666666" y="0" dx="0em" dy="0.95em" style="text-anchor: middle; visibility: inherit; font-family: &quot;Helvetica Neue&quot;, sans-serif; font-size: 12px; font-weight: 200;" fill="rgb(50, 49, 63)" stroke="none" stroke-width="1px">500</text><text x="276.8125" y="0" dx="0em" dy="0.95em" style="text-anchor: middle; visibility: hidden; font-family: &quot;Helvetica Neue&quot;, sans-serif; font-size: 12px; font-weight: 200;" fill="rgb(50, 49, 63)" stroke="none" stroke-width="1px">550</text></g><line x1="0" y1="0" x2="276.8125" y2="0" fill="rgb(0, 0, 0)" stroke="rgb(204, 204, 204)" stroke-width="1px"></line></g></g></g></g></svg>