<svg viewBox="0 0 330 200" xmlns="http://www.w3.org/2000/svg"><g><g><g><g><g><line x1="53.1875" y1="177" x2="48.1875" y2="177" style="visibility: inherit;" fill="rgb(0, 0, 0)" stroke="rgb(204, 204, 204)" stroke-width="1px"></line><line x1="53.1875" y1="162.25" x2="48.1875" y2="162.25" style="visibility: inherit;" fill="rgb(0, 0, 0)" stroke="rgb(204, 204, 204)" stroke-width="1px"></line><line x1="53.1875" y1="147.5" x2="48.1875" y2="147.5" style="visibility: inherit;" fill="rgb(0, 0, 0)" stroke="rgb(204, 204, 204)" stroke-width="1px"></line><line x1="53.1875" y1="132.75" x2="48.1875" y2="132.75" style="visibility: inherit;" fill="rgb(0, 0, 0)" stroke="rgb(204, 204, 204)" stroke-width="1px"></line><line x1="53.1875" y1="118.00000000000003" x2="48.1875" y2="118.00000000000003" style="visibility: inherit;" fill="rgb(0, 0, 0)" stroke="rgb(204, 204, 204)" stroke-width="1px"></line><line x1="53.1875" y1="103.25" x2="48.1875" y2="103.25" style="visibility: inherit;" fill="rgb(0, 0, 0)" stroke="rgb(204, 204, 204)" stroke-width="1px"></line><line x1="53.1875" y1="88.5" x2="48.1875" y2="88.5" style="visibility: inherit;" fill="rgb(0, 0, 0)" stroke="rgb(204, 204, 204)" stroke-width="1px"></line><line x1="53.1875" y1="73.75000000000001" x2="48.1875" y2="73.75000000000001" style="visibility: inherit;" fill="rgb(0, 0, 0)" stroke="rgb(204, 204, 204)" stroke-width="1px"></line><line x1="53.1875" y1="59" x2="48.1875" y2="59" style="visibility: inherit;" fill="rgb(0, 0, 0)" stroke="rgb(204, 204, 204)" stroke-width="1px"></line><line x1="53.1875" y1="44.25000000000003" x2="48.1875" y2="44.25000000000003" style="visibility: inherit;" fill="rgb(0, 0, 0)" stroke="rgb(204, 204, 204)" stroke-width="1px"></line><line x1="53.1875" y1="29.5" x2="48.1875" y2="29.5" style="visibility: inherit;" fill="rgb(0, 0, 0)" stroke="rgb(204, 204, 204)" stroke-width="1px"></line><line x1="53.1875" y1="14.75" x2="48.1875" y2="14.75" style="visibility: inherit;" fill="rgb(0, 0, 0)" stroke="rgb(204, 204, 204)" stroke-width="1px"></line><line x1="53.1875" y1="0" x2="48.1875" y2="0" style="visibility: inherit;" fill="rgb(0, 0, 0)" stroke="rgb(204, 204, 204)" stroke-width="1px"></line></g><g transform="translate(43.1875, 0)"><text x="0" y="177" dx="0em" dy="0.3em" style="text-anchor: end; visibility: hidden; font-family: &quot;Helvetica Neue&quot;, sans-serif; font-size: 12px; font-weight: 200;" fill="rgb(50, 49, 63)" stroke="none" stroke-width="1px">0.5</text><text x="0" y="162.25" dx="0em" dy="0.3em" style="text-anchor: end; visibility: inherit; font-family: &quot;Helvetica Neue&quot;, sans-serif; font-size: 12px; font-weight: 200;" fill="rgb(50, 49, 63)" stroke="none" stroke-width="1px">0.55</text><text x="0" y="147.5" dx="0em" dy="0.3em" style="text-anchor: end; visibility: hidden; font-family: &quot;Helvetica Neue&quot;, sans-serif; font-size: 12px; font-weight: 200;" fill="rgb(50, 49, 63)" stroke="none" stroke-width="1px">0.6</text><text x="0" y="132.75" dx="0em" dy="0.3em" style="text-anchor: end; visibility: inherit; font-family: &quot;Helvetica Neue&quot;, sans-serif; font-size: 12px; font-weight: 200;" fill="rgb(50, 49, 63)" stroke="none" stroke-width="1px">0.65</text><text x="0" y="118.00000000000003" dx="0em" dy="0.3em" style="text-anchor: end; visibility: hidden; font-family: &quot;Helvetica Neue&quot;, sans-serif; font-size: 12px; font-weight: 200;" fill="rgb(50, 49, 63)" stroke="none" stroke-width="1px">0.7</text><text x="0" y="103.25" dx="0em" dy="0.3em" style="text-anchor: end; visibility: inherit; font-family: &quot;Helvetica Neue&quot;, sans-serif; font-size: 12px; font-weight: 200;" fill="rgb(50, 49, 63)" stroke="none" stroke-width="1px">0.75</text><text x="0" y="88.5" dx="0em" dy="0.3em" style="text-anchor: end; visibility: hidden; font-family: &quot;Helvetica Neue&quot;, sans-serif; font-size: 12px; font-weight: 200;" fill="rgb(50, 49, 63)" stroke="none" stroke-width="1px">0.8</text><text x="0" y="73.75000000000001" dx="0em" dy="0.3em" style="text-anchor: end; visibility: inherit; font-family: &quot;Helvetica Neue&quot;, sans-serif; font-size: 12px; font-weight: 200;" fill="rgb(50, 49, 63)" stroke="none" stroke-width="1px">0.85</text><text x="0" y="59" dx="0em" dy="0.3em" style="text-anchor: end; visibility: hidden; font-family: &quot;Helvetica Neue&quot;, sans-serif; font-size: 12px; font-weight: 200;" fill="rgb(50, 49, 63)" stroke="none" stroke-width="1px">0.9</text><text x="0" y="44.25000000000003" dx="0em" dy="0.3em" style="text-anchor: end; visibility: inherit; font-family: &quot;Helvetica Neue&quot;, sans-serif; font-size: 12px; font-weight: 200;" fill="rgb(50, 49, 63)" stroke="none" stroke-width="1px">0.95</text><text x="0" y="29.5" dx="0em" dy="0.3em" style="text-anchor: end; visibility: hidden; font-family: &quot;Helvetica Neue&quot;, sans-serif; font-size: 12px; font-weight: 200;" fill="rgb(50, 49, 63)" stroke="none" stroke-width="1px">1</text><text x="0" y="14.75" dx="0em" dy="0.3em" style="text-anchor: end; visibility: inherit; font-family: &quot;Helvetica Neue&quot;, sans-serif; font-size: 12px; font-weight: 200;" fill="rgb(50, 49, 63)" stroke="none" stroke-width="1px">1.05</text><text x="0" y="0" dx="0em" dy="0.3em" style="text-anchor: end; visibility: hidden; font-family: &quot;Helvetica Neue&quot;, sans-serif; font-size: 12px; font-weight: 200;" fill="rgb(50, 49, 63)" stroke="none" stroke-width="1px">1.1</text></g><line x1="53.1875" y1="0" x2="53.1875" y2="177" fill="rgb(0, 0, 0)" stroke="rgb(204, 204, 204)" stroke-width="1px"></line></g></g><g transform="translate(53, 0)" clip-path="url(#clip_0)"><clipPath id="clip_0"><rect width="276" height="176"></rect></clipPath><g><g><g><line x1="0" y1="0" x2="0" y2="177" fill="rgb(0, 0, 0)" stroke="rgb(60, 60, 60)" stroke-width="1px" opacity="0.25"></line><line x1="23.067708333333332" y1="0" x2="23.067708333333332" y2="177" fill="rgb(0, 0, 0)" stroke="rgb(60, 60, 60)" stroke-width="1px" opacity="0.25"></line><line x1="46.135416666666664" y1="0" x2="46.135416666666664" y2="177" fill="rgb(0, 0, 0)" stroke="rgb(60, 60, 60)" stroke-width="1px" opacity="0.25"></line><line x1="69.203125" y1="0" x2="69.203125" y2="177" fill="rgb(0, 0, 0)" stroke="rgb(60, 60, 60)" stroke-width="1px" opacity="0.25"></line><line x1="92.27083333333333" y1="0" x2="92.27083333333333" y2="177" fill="rgb(0, 0, 0)" stroke="rgb(60, 60, 60)" stroke-width="1px" opacity="0.25"></line><line x1="115.33854166666667" y1="0" x2="115.33854166666667" y2="177" fill="rgb(0, 0, 0)" stroke="rgb(60, 60, 60)" stroke-width="1px" opacity="0.25"></line><line x1="138.40625" y1="0" x2="138.40625" y2="177" fill="rgb(0, 0, 0)" stroke="rgb(60, 60, 60)" stroke-width="1px" opacity="0.25"></line><line x1="161.47395833333334" y1="0" x2="161.47395833333334" y2="177" fill="rgb(0, 0, 0)" stroke="rgb(60, 60, 60)" stroke-width="1px" opacity="0.25"></line><line x1="184.54166666666666" y1="0" x2="184.54166666666666" y2="177" fill="rgb(0, 0, 0)" stroke="rgb(60, 60, 60)" stroke-width="1px" opacity="0.25"></line><line x1="207.609375" y1="0" x2="207.609375" y2="177" fill="rgb(0, 0, 0)" stroke="rgb(60, 60, 60)" stroke-width="1px" opacity="0.25"></line><line x1="230.67708333333334" y1="0" x2="230.67708333333334" y2="177" fill="rgb(0, 0, 0)" stroke="rgb(60, 60, 60)" stroke-width="1px" opacity="0.25"></line><line x1="253.74479166666666" y1="0" x2="253.74479166666666" y2="177" fill="rgb(0, 0, 0)" stroke="rgb(60, 60, 60)" stroke-width="1px" opacity="0.25"></line><line x1="276.8125" y1="0" x2="276.8125" y2="177" fill="rgb(0, 0, 0)" stroke="rgb(60, 60, 60)" stroke-width="1px" opacity="0.25"></line></g><g><line x1="0" y1="177" x2="276.8125" y2="177" fill="rgb(0, 0, 0)" stroke="rgb(60, 60, 60)" stroke-width="1px" opacity="0.25"></line><line x1="0" y1="162.25" x2="276.8125" y2="162.25" fill="rgb(0, 0, 0)" stroke="rgb(60, 60, 60)" stroke-width="1px" opacity="0.25"></line><line x1="0" y1="147.5" x2="276.8125" y2="147.5" fill="rgb(0, 0, 0)" stroke="rgb(60, 60, 60)" stroke-width="1px" opacity="0.25"></line><line x1="0" y1="132.75" x2="276.8125" y2="132.75" fill="rgb(0, 0, 0)" stroke="rgb(60, 60, 60)" stroke-width="1px" opacity="0.25"></line><line x1="0" y1="118.00000000000003" x2="276.8125" y2="118.00000000000003" fill="rgb(0, 0, 0)" stroke="rgb(60, 60, 60)" stroke-width="1px" opacity="0.25"></line><line x1="0" y1="103.25" x2="276.8125" y2="103.25" fill="rgb(0, 0, 0)" stroke="rgb(60, 60, 60)" stroke-width="1px" opacity="0.25"></line><line x1="0" y1="88.5" x2="276.8125" y2="88.5" fill="rgb(0, 0, 0)" stroke="rgb(60, 60, 60)" stroke-width="1px" opacity="0.25"></line><line x1="0" y1="73.75000000000001" x2="276.8125" y2="73.75000000000001" fill="rgb(0, 0, 0)" stroke="rgb(60, 60, 60)" stroke-width="1px" opacity="0.25"></line><line x1="0" y1="59" x2="276.8125" y2="59" fill="rgb(0, 0, 0)" stroke="rgb(60, 60, 60)" stroke-width="1px" opacity="0.25"></line><line x1="0" y1="44.25000000000003" x2="276.8125" y2="44.25000000000003" fill="rgb(0, 0, 0)" stroke="rgb(60, 60, 60)" stroke-width="1px" opacity="0.25"></line><line x1="0" y1="29.5" x2="276.8125" y2="29.5" fill="rgb(0, 0, 0)" stroke="rgb(60, 60, 60)" stroke-width="1px" opacity="0.25"></line><line x1="0" y1="14.75" x2="276.8125" y2="14.75" fill="rgb(0, 0, 0)" stroke="rgb(60, 60, 60)" stroke-width="1px" opacity="0.25"></line><line x1="0" y1="0" x2="276.8125" y2="0" fill="rgb(0, 0, 0)" stroke="rgb(60, 60, 60)" stroke-width="1px" opacity="0.25"></line></g></g></g><g><g><line x1="0" y1="324.5" x2="276.8125" y2="324.5" fill="rgb(0, 0, 0)" stroke="rgb(153, 153, 153)" stroke-width="1.5px"></line></g></g><g><g><line x1="23.067708333333332" y1="0" x2="23.067708333333332" y2="177" fill="rgb(0, 0, 0)" stroke="rgb(153, 153, 153)" stroke-width="1.5px"></line></g></g><g><g><g><g><g><path stroke="rgb(238, 51, 119)" stroke-width="2px" d="M30.910729166666666,180.2244353698285L31.372083333333332,174.82771395259888L31.833437500000002,171.18880417781605L32.29479166666667,168.4863865266112L32.756145833333335,165.96817838466927L33.2175,162.59286440488097L33.67885416666667,160.30810152224083L34.140208333333334,156.83684148305116L34.6015625,153.8808963059397L35.062916666666666,151.68253369595817L35.52427083333333,149.79711539575467L35.985625,147.46226915404006L36.446979166666665,145.8017613532401L36.90833333333333,144.35705992483213L37.369687500000005,142.4990364286578L37.831041666666664,139.68502172326365L38.29239583333334,136.84021099629553L38.753750000000004,135.69972721779584L39.21510416666666,133.906235759685L39.676458333333336,132.4761384251607L40.137812499999995,131.3820830708324L40.59916666666667,129.35684778686834L41.060520833333335,127.12690702416279L41.521875,125.48214089255873L41.98322916666667,123.97608649241144L42.44458333333333,123.28485393197181L42.9059375,122.82291359691898L43.36729166666667,122.26255163534161L43.82864583333333,121.0059294281111L44.29,120.62955546243859L44.751354166666665,118.79893205077877L45.21270833333333,118.38495903915091L45.674062500000005,116.93297244133139L46.135416666666664,115.84938040387698L46.59677083333333,114.65642654306356L47.058125000000004,114.17665822152156L47.51947916666666,112.68519443776258L47.98083333333334,112.78151887956899L48.442187499999996,110.17251411857227L48.90354166666667,110.49510805476928L49.364895833333335,110.05146418016675L49.82625,108.69968057871755L50.28760416666667,108.45500593901212L50.74895833333333,107.43500395727476L51.2103125,106.75220508642386L51.67166666666667,106.90892128507727L52.13302083333333,105.82295212960504L52.594375,105.45456839690367L53.05572916666667,104.14794088059521L53.51708333333333,103.36396437081011L53.9784375,103.20038014168928L54.439791666666665,102.4886262507164L54.90114583333333,101.91997855251574L55.362500000000004,101.31918905583348L55.82385416666666,100.36871592049195L56.28520833333334,100.55363075640437L56.746562499999996,99.83857622567793L57.20791666666667,99.17354654564848L57.669270833333336,98.46772706088059L58.130624999999995,98.25663544879339L58.59197916666667,98.15358439770925L59.053333333333335,98.20975224785559L59.5146875,98.07825367815825L59.97604166666667,96.7013501475306L60.43739583333333,96.27641130388089L60.89875,95.00664840281195L61.36010416666667,94.92919169747944L61.82145833333333,95.00071615507673L62.2828125,94.83123075086158L62.744166666666665,94.65874182652405L63.20552083333333,95.16884479207381L63.666875000000005,94.62530625630964L64.12822916666667,94.11038697224588L64.58958333333334,93.11703436649877L65.0509375,92.66261816666746L65.51229166666667,92.72037403968709L65.97364583333334,91.92902413122498L66.435,91.87901434369472L66.89635416666667,90.99940815608254L67.35770833333333,90.58964292431203L67.8190625,89.7301874650975L68.28041666666667,89.28531187137722L68.74177083333333,89.82078603125069L69.203125,89.4104686928776L69.66447916666667,89.30588068681881L70.12583333333333,89.38473028014852L70.5871875,89.10164147657606L71.04854166666667,88.5305849197057L71.50989583333335,87.81035162702484L71.97125,87.85021260795165L72.43260416666666,88.22812463889818L72.89395833333333,88.2188748958725L73.3553125,87.31652393597471L73.81666666666666,87.31791199837986L74.27802083333333,86.7287453984908L74.73937500000001,86.37524543855739L75.20072916666666,86.21034626158564L75.66208333333333,87.64540810580546L76.12343750000001,86.335243625614L76.58479166666667,86.25714285562812L77.04614583333333,85.8326830350779L77.50750000000001,86.61641065379517L77.96885416666667,86.37864930689655L78.43020833333333,85.00879282510472L78.89156249999999,84.82407917235015L79.35291666666667,84.40644930394718L79.81427083333334,84.46267305965561L80.27562499999999,84.7560011574944L80.73697916666667,84.46000409301045L81.19833333333334,84.42400121793703L81.65968749999999,83.59999997678729L82.12104166666667,83.55400330581269L82.58239583333334,83.69160458301307L83.04375,83.46736367258312L83.50510416666667,84.77241887875128L83.96645833333334,82.95945025818187L84.4278125,83.21686724028969L84.88916666666665,82.87571959019888L85.35052083333333,82.57662940216775L85.811875,81.42957649345826L86.27322916666667,81.26054650375622L86.73458333333333,81.72553106444704L87.1959375,81.81571860490817L87.65729166666667,81.70463184939968L88.11864583333335,80.74117868201225L88.58,81.53190885219745L89.04135416666666,81.4871451987849L89.50270833333333,81.696283968331L89.9640625,80.94857003214454L90.42541666666666,81.34954198552664L90.88677083333333,80.97652180405558L91.34812500000001,79.95031017906727L91.80947916666666,79.38178400306263L92.27083333333333,79.11147301261637L92.73218750000001,79.46848114052425L93.19354166666666,79.32869057487852L93.65489583333333,79.55161087889319L94.11625000000001,78.83576977955606L94.57760416666667,79.23226151887957L95.03895833333333,79.32855416550865L95.50031249999999,79.88193462618963L95.96166666666667,80.615159143977L96.42302083333333,79.87509497998515L96.88437499999999,79.78505895732857L97.34572916666667,79.56583806394947L97.80708333333334,78.96230457138665L98.26843749999999,79.16657999701292L98.72979166666667,79.00594749180668L99.19114583333334,78.43756703214761L99.6525,78.26173803613732L100.11385416666667,78.60464471224633L100.57520833333334,79.3059865572672L101.0365625,78.28719191185361L101.49791666666665,78.80871320028142L101.95927083333333,78.64962501680279L102.420625,78.64857370469225L102.88197916666667,78.43554283865247L103.34333333333333,77.64692719988794L103.8046875,78.51895597107874L104.26604166666667,77.7913766773204L104.72739583333333,78.13362470100283L105.18875,78.05577575463033L105.65010416666667,78.0798640686153L106.11145833333335,77.64592001663917L106.5728125,77.38555358545347L107.03416666666666,77.5597322863124L107.49552083333333,78.1362404633631L107.956875,77.6325450544995L108.41822916666666,77.56632477077497L108.87958333333333,78.06939827223215L109.34093750000001,77.04964110147712L109.80229166666666,76.65018687779761L110.26364583333333,77.00051378092205L110.72500000000001,76.83311056423804L111.18635416666667,77.06306719379793L111.64770833333333,76.56384093521343L112.10906250000001,76.80710381840647L112.57041666666667,76.10346123322833L113.03177083333333,76.31847591844195L113.49312499999999,77.36788272647257L113.95447916666667,76.86472873561499L114.41583333333334,76.61003714008879L114.87718749999999,76.12682362320274L115.33854166666667,76.47409574939161L115.79989583333334,76.80045750590175L116.26124999999999,76.73667368204599L116.72260416666667,77.4064013058615L117.18395833333334,77.35984083978367L117.6453125,76.71830120663661L118.10666666666667,76.38057822573671L118.56802083333334,76.48474611394697L119.029375,76.07524589033778L119.49072916666665,75.40474559862525L119.95208333333333,75.450849497313L120.4134375,75.73811271428745L120.87479166666667,75.48567048692516L121.33614583333333,75.26340043535122L121.7975,74.82324376100473L122.25885416666667,75.573949351276L122.72020833333335,76.09517038724724L123.1815625,75.7707027725095L123.64291666666666,76.68522339652264L124.10427083333333,76.64393633359842L124.565625,75.69875906559332L125.02697916666666,75.24965821893517L125.48833333333333,75.07459227556886L125.94968750000001,75.6067529458696L126.41104166666666,76.39805030458535L126.87239583333333,76.49522936125614L127.33375000000001,75.86913575994981L127.79510416666666,76.0126813546897L128.25645833333334,75.88640863276014L128.7178125,75.40944172487549L129.17916666666667,75.61886645284827L129.64052083333334,75.50851729469024L130.101875,75.77271339271381L130.56322916666667,75.41202929600426L131.02458333333334,75.64401587834567L131.4859375,74.6976105510629L131.94729166666667,74.83776527282218L132.40864583333334,74.99265578768626L132.87,74.5899922572492L133.33135416666667,74.86759589451067L133.79270833333334,75.2229542394728L134.2540625,76.3093734777123L134.71541666666667,75.63962374902668L135.17677083333334,75.66257406936226L135.638125,75.44034729997001L136.09947916666667,74.95300876259618L136.56083333333333,75.9822069118012L137.0221875,75.868123967027L137.48354166666667,74.97367780123673L137.94489583333333,75.19220881887988L138.40625,74.2141262366099L138.86760416666667,74.38247540436524L139.32895833333333,74.31828562523327L139.7903125,74.77536959710956L140.25166666666667,75.52162093677069L140.71302083333333,74.97817606185642L141.174375,76.46930824789267L141.6357291666667,75.40518605156458L142.09708333333333,75.33310825493163L142.5584375,74.36946358004944L143.0197916666667,75.96247836184347L143.48114583333333,75.50228436131384L143.9425,74.82497171961728L144.40385416666666,75.26818444969332L144.86520833333333,75.81730984832092L145.3265625,75.36798245421197L145.78791666666666,75.38159081167669L146.24927083333333,74.79975638882335L146.710625,74.3090533381463L147.17197916666666,74.43943166528707L147.63333333333333,74.82446033832171L148.09468750000002,74.3002788250252L148.55604166666666,75.26017038968826L149.01739583333332,75.10450349418896L149.47875000000002,74.79870327811585L149.94010416666666,74.56802234948368L150.40145833333332,74.99601634681638L150.86281250000002,75.08760643208277L151.32416666666666,74.69416344287546L151.78552083333332,74.50529844833943L152.24687500000002,74.2975778536411L152.70822916666665,74.6921472523458L153.16958333333335,76.10888776623291L153.63093750000002,75.14173296358042L154.09229166666665,74.67943856278569L154.55364583333335,74.18966184353538L155.01500000000001,75.45339404520814L155.47635416666665,75.4564346490945L155.93770833333335,74.56145789734396L156.39906249999999,74.44927200384066L156.86041666666665,73.74476023141817L157.32177083333335,73.53445324673815L157.78312499999998,73.40826905593013L158.24447916666665,73.5685625363871L158.70583333333335,73.61753782567291L159.16718749999998,73.88291996083802L159.62854166666668,73.80615228034343L160.08989583333334,73.83088935385518L160.55124999999998,73.72773311716543L161.01260416666668,74.09063953269853L161.47395833333334,75.03998521631563L161.93531249999998,74.92519159117701L162.39666666666668,74.71471301912882L162.85802083333334,74.61202979206813L163.31937499999998,74.47961514067516L163.78072916666667,74.63617034478108L164.24208333333334,74.8953027470298L164.7034375,75.94758330246135L165.16479166666667,74.90334788835241L165.62614583333334,76.40080742762206L166.0875,76.42608595326969L166.54885416666667,74.97804940006392L167.01020833333334,74.32162754691399L167.4715625,74.42337930772754L167.93291666666667,73.89443092688352L168.3942708333333,74.23785901751774L168.855625,73.97191491536296L169.31697916666667,73.64714917428492L169.7783333333333,74.25468924574375L170.2396875,74.35961241085718L170.70104166666667,74.46976710891362L171.16239583333333,73.73346041164181L171.62375,73.50407647205223L172.08510416666667,73.76764938302534L172.54645833333333,73.52458985488235L173.0078125,74.20475053692235L173.46916666666667,74.25885150375588L173.93052083333333,74.73970912422313L174.391875,74.01342410162435L174.85322916666667,74.33285180518237L175.31458333333333,73.7693097101999L175.7759375,74.87078420563651L176.2372916666667,74.51686930801935L176.69864583333333,74.11572420684381L177.16,74.98423130564622L177.6213541666667,74.30173980744321L178.08270833333333,74.71824130744722L178.5440625,74.61414676505913L179.00541666666666,74.38649075984117L179.46677083333333,73.96669236278031L179.928125,73.29001316699683L180.38947916666666,74.58320627971467L180.85083333333333,74.74552582719313L181.3121875,74.48891507994166L181.77354166666666,74.14615246898552L182.23489583333333,73.65729010848176L182.69625000000002,73.43477740733604L183.15760416666666,73.34846355228893L183.61895833333332,73.62708083217903L184.08031250000002,74.00665127888658L184.54166666666666,73.62079019341073L185.00302083333332,73.69607521887545L185.46437500000002,73.88284863111929L185.92572916666666,74.20730572389101L186.38708333333332,73.90638214019856L186.84843750000002,74.03262966673326L187.30979166666665,74.15557898164245L187.77114583333335,74.06414929080279L188.23250000000002,73.44288892178693L188.69385416666665,73.54213365691278L189.15520833333335,73.83767745958195L189.61656250000001,74.62860709468377L190.07791666666665,74.98516639494808L190.53927083333335,74.679900219583L191.00062499999999,74.6619397941491L191.46197916666665,74.74556513686547L191.92333333333335,74.55973634755357L192.38468749999998,74.40104530832615L192.84604166666665,73.8574266110745L193.30739583333335,73.81445315330548L193.76874999999998,74.40227243214441L194.23010416666668,74.21216536110397L194.69145833333334,75.27809999314402L195.15281249999998,75.1152612562624L195.61416666666668,74.82875481818004L196.07552083333334,74.42085399373701L196.53687499999998,74.34131277885633L196.99822916666668,74.62398660949825L197.45958333333334,74.88799250586008L197.92093749999998,74.00799253262981L198.38229166666667,73.47999254869164L198.84364583333334,74.05999367241111L199.305,73.77079411032226L199.76635416666667,73.69167597104567L200.22770833333334,73.92740284806167L200.6890625,73.80924512985752L201.15041666666667,73.85634897973182L201.61177083333334,74.09701136842995L202.073125,74.66620895919579L202.53447916666667,74.39412416015492L202.9958333333333,73.64087384339825L203.4571875,73.63732772705947L203.91854166666667,74.3667948582053L204.3798958333333,73.90767402281045L204.84125,74.29300567406224L205.30260416666667,74.64220314561014L205.76395833333333,75.20572410427741L206.2253125,74.41103157045372L206.68666666666667,74.78381636525349L207.14802083333333,74.32309324017258L207.609375,73.88145305199085L208.07072916666667,74.51327005316412L208.53208333333333,74.04275993877405L208.9934375,74.63365810140226L209.45479166666667,74.75219300403748L209.91614583333333,73.64331507095429L210.3775,75.19639069681605L210.8388541666667,74.94823719766882L211.30020833333333,74.53974422041863L211.7615625,75.92304434909994L212.2229166666667,75.03022691330062L212.68427083333333,74.68333964777439L213.145625,74.26280720968515L213.60697916666666,73.58568758928462L214.06833333333333,73.4862104604464L214.5296875,73.78052665888197L214.99104166666666,74.73591901122884L215.45239583333333,74.64835027014828L215.91375,75.13860766384376L216.37510416666666,74.51236410315856L216.83645833333333,74.41981572732941L217.29781250000002,75.5442926098443L217.75916666666666,74.51977810916529L218.22052083333332,74.4006672481133L218.68187500000002,73.99880217191183L219.14322916666666,73.3800837676323L219.60458333333332,72.77284873012286L220.06593750000002,72.69171250154723L220.52729166666666,76.18302738839476L220.98864583333332,74.64341809853369L221.45000000000002,73.55445324483188L221.91135416666665,73.53827456893133L222.37270833333335,76.21896367228989L222.83406250000002,74.68857675169087L223.29541666666665,74.3603440366636L223.75677083333335,73.78580504908865L224.21812500000001,73.55908013734049L224.67947916666665,73.61184838624497L225.14083333333335,74.5875112486583L225.60218749999999,73.61530369953526L226.06354166666665,73.97598108313211L226.52489583333335,73.36639111436443L226.98624999999998,73.87383433101796L227.44760416666665,73.37590074490443L227.90895833333335,72.9591421124395L228.37031249999998,72.9686878107224L228.83166666666668,72.59681587113346L229.29302083333334,72.56248886998536L229.75437499999998,73.13189210662867L230.21572916666668,72.9071385274507L230.67708333333334,73.00828334153755L231.13843749999998,72.5733723906342L231.59979166666668,73.02042373822114L232.06114583333334,72.81665359023798L232.52249999999998,72.36399294187778L232.98385416666667,73.24879854470582L233.44520833333334,72.78847919434364L233.9065625,72.55948838311467L234.36791666666667,72.89409485291264L234.82927083333334,72.67005857724443L235.290625,72.34683361589009L235.75197916666667,74.84330198132453L236.21333333333334,73.83958285429152L236.6746875,73.23735137807174L237.13604166666667,72.71081321255473L237.5973958333333,71.94648623952929L238.05875,73.045488288937L238.52010416666667,75.56929646190285L238.9814583333333,74.46397570524381L239.4428125,74.6739874825106L239.90416666666667,73.92679031760848L240.36552083333333,73.95047297520253L240.826875,73.63428401018867L241.28822916666667,73.1613728705984L241.74958333333333,73.13722706460607L242.2109375,73.07553878202229L242.67229166666667,72.68452333673352L243.13364583333333,73.08711430588075L243.595,72.7858702490253L244.05635416666667,72.41632061895864L244.51770833333333,72.73738947926245L244.9790625,73.0008355106013L245.4404166666667,72.49809897691594L245.90177083333333,73.51805832833398L246.363125,72.87923738271206L246.8244791666667,72.42514010018235L247.28583333333333,72.81348588315325L247.7471875,72.95209175495911L248.20854166666666,72.91725679724581L248.66989583333333,73.15595670037968L249.13125,72.59117169078293L249.59260416666666,72.41749996481003L250.05395833333333,72.45489932619135L250.5153125,72.52453974200846L250.97666666666666,74.19472693987824L251.43802083333333,73.21443383448208L251.89937500000002,72.74426348538927L252.36072916666666,72.50935504157383L252.82208333333332,74.94081483673476L253.28343750000002,74.08688673014298L253.74479166666666,73.62173066517624" style="fill: none;" fill="none"></path></g><g><path stroke="rgb(204, 51, 17)" stroke-width="2px" d="M29.988020833333334,181.61735524080296L30.449375,175.86889136086785L30.910729166666666,170.21977908316484L31.372083333333332,165.33807060598195L31.833437500000002,160.90477470337717L32.29479166666667,156.81711302994074L32.756145833333335,152.93678256030623L33.2175,149.15131688664695L33.67885416666667,145.906561907652L34.140208333333334,142.5024227587521L34.6015625,139.63394381207948L35.062916666666666,136.8862583592316L35.52427083333333,134.42345481307473L35.985625,131.80707454461435L36.446979166666665,129.38764678369418L36.90833333333333,127.06868725371442L37.369687500000005,124.68610902029346L37.831041666666664,122.67246377772713L38.29239583333334,120.74447682416826L38.753750000000004,118.74398535072979L39.21510416666666,116.76488785667553L39.676458333333336,114.6983311959935L40.137812499999995,112.85659581408551L40.59916666666667,111.43885896863011L41.060520833333335,109.96281858509631L41.521875,108.34559252180549L41.98322916666667,106.79705237215475L42.44458333333333,105.01832796765629L42.9059375,103.53809512592291L43.36729166666667,102.0658569627651L43.82864583333333,100.68691622562667L44.29,99.21645056803277L44.751354166666665,98.12177109475361L45.21270833333333,96.7864633545303L45.674062500000005,95.20647607711949L46.135416666666664,94.31748646775957L46.59677083333333,92.96399024891242L47.058125000000004,91.73299333910221L47.51947916666666,90.92359751140972L47.98083333333334,89.70045720145517L48.442187499999996,88.6538773930389L48.90354166666667,87.61882525422045L49.364895833333335,86.84439664922859L49.82625,85.84283479358362L50.28760416666667,85.05310151759143L50.74895833333333,83.74146319498628L51.2103125,82.94857922238113L51.67166666666667,82.08934850121737L52.13302083333333,81.46171256676439L52.594375,80.71342559322788L53.05572916666667,80.04615235129043L53.51708333333333,79.1737944829407L53.9784375,78.48517344879764L54.439791666666665,77.7239063649634L54.90114583333333,77.10194683487771L55.362500000000004,76.36296668300363L55.82385416666666,75.57737807422481L56.28520833333334,74.63402395242215L56.746562499999996,73.96181495662785L57.20791666666667,73.49358582303681L57.669270833333336,72.92354960325811L58.130624999999995,72.33962993075522L58.59197916666667,71.6824764505033L59.053333333333335,71.02268250554825L59.5146875,70.73300969463601L59.97604166666667,70.10490798867953L60.43739583333333,69.55104572723636L60.89875,68.98862535447078L61.36010416666667,68.53317465001462L61.82145833333333,67.89410682686638L62.2828125,67.4693663130311L62.744166666666665,66.84871757090733L63.20552083333333,66.38193376100448L63.666875000000005,65.97206303618185L64.12822916666667,65.23053572858474L64.58958333333334,64.70892068317593L65.0509375,64.28385415417593L65.51229166666667,63.9875144168296L65.97364583333334,63.79790861633771L66.435,63.135445518656695L66.89635416666667,62.78516845903644L67.35770833333333,62.309500366460384L67.8190625,61.740901750332796L68.28041666666667,61.31714294076362L68.74177083333333,60.69708322119949L69.203125,60.39585210461759L69.66447916666667,60.079412016745465L70.12583333333333,59.812849303171674L70.5871875,59.34020901923516L71.04854166666667,59.05662484887327L71.50989583333335,58.845174526709854L71.97125,58.53540211650045L72.43260416666666,57.93063949186987L72.89395833333333,57.703483335014496L73.3553125,57.22498912324687L73.81666666666666,57.00279633230075L74.27802083333333,56.62167470470729L74.73937500000001,56.20420556554596L75.20072916666666,55.82982462221027L75.66208333333333,55.534391341052284L76.12343750000001,55.29813564863315L76.58479166666667,55.020680815258714L77.04614583333333,54.677206677364765L77.50750000000001,54.28232603202309L77.96885416666667,53.915597205937175L78.43020833333333,53.48315983151211L78.89156249999999,53.32989392956982L79.35291666666667,53.01373938489492L79.81427083333334,52.62934248309456L80.27562499999999,52.57570557988359L80.73697916666667,52.08332443950579L81.19833333333334,51.68759317826033L81.65968749999999,51.56815290230992L82.12104166666667,51.130691336265116L82.58239583333334,51.05111661354955L83.04375,50.72606796503217L83.50510416666667,50.3422426133165L83.96645833333334,50.135544285107216L84.4278125,49.740129485683795L84.88916666666665,49.70347872671911L85.35052083333333,49.533984895333234L85.811875,49.17268771873988L86.27322916666667,48.79661111204072L86.73458333333333,48.41756782632018L87.1959375,48.24913757861225L87.65729166666667,48.071380769136965L88.11864583333335,47.669726964785724L88.58,47.753239296051305L89.04135416666666,47.38444048295764L89.50270833333333,47.186765111269665L89.9640625,46.84395785139927L90.42541666666666,46.349174755853L90.88677083333333,46.14670649650196L91.34812500000001,45.93082394291463L91.80947916666666,45.80129441076221L92.27083333333333,45.73537864955489L92.73218750000001,45.571929732991606L93.19354166666666,45.467959404011594L93.65489583333333,45.29937365056276L94.11625000000001,44.88552657604933L94.57760416666667,44.56641361618472L95.03895833333333,44.52244921627303L95.50031249999999,44.336772275582945L95.96166666666667,44.254863973031036L96.42302083333333,44.18801605437375L96.88437499999999,43.811607764566986L97.34572916666667,43.72146420860588L97.80708333333334,43.5552805732745L98.26843749999999,43.42017155117142L98.72979166666667,43.29780631796331L99.19114583333334,43.01198709926493L99.6525,42.840495568045924L100.11385416666667,42.66089495511588L100.57520833333334,42.43513610656103L101.0365625,42.346881596416495L101.49791666666665,42.0992317486824L101.95927083333333,42.00963756376635L102.420625,41.896885329092356L102.88197916666667,41.57553408956815L103.34333333333333,41.46532298574621L103.8046875,41.186796244679556L104.26604166666667,41.13767868083636L104.72739583333333,40.913503967535036L105.18875,40.7554022567341L105.65010416666667,40.62514238934932L106.11145833333335,40.62368512976897L106.5728125,40.51661425130803L107.03416666666666,40.281271465404274L107.49552083333333,40.169563655724204L107.956875,39.943240669173065L108.41822916666666,39.754345099211974L108.87958333333333,39.62920579915121L109.34093750000001,39.59542203906105L109.80229166666666,39.55745587922891L110.26364583333333,39.457970489130986L110.72500000000001,39.36288041416796L111.18635416666667,39.25862557020184L111.64770833333333,39.21967657999039L112.10906250000001,38.90720844623948L112.57041666666667,38.71382658694691L113.03177083333333,38.851497370091124L113.49312499999999,38.59780030136531L113.95447916666667,38.6048803608729L114.41583333333334,38.39672831780396L114.87718749999999,38.183336473027964L115.33854166666667,38.13200002701288L115.79989583333334,38.071700297541696L116.26124999999999,38.03552045985893L116.72260416666667,37.86041523554823L117.18395833333334,37.855647644632455L117.6453125,37.74659056737033L118.10666666666667,37.66935436292894L118.56802083333334,37.49321220138319L119.029375,37.32852414738326L119.49072916666665,37.14711167509074L119.95208333333333,37.13266578969191L120.4134375,37.21249887738725L120.87479166666667,36.95359705325424L121.33614583333333,36.81005791685854L121.7975,36.73573639310524L122.25885416666667,36.66753956268502L122.72020833333335,36.591222623528665L123.1815625,36.52183557721477L123.64291666666666,36.45069845421614L124.10427083333333,36.31951556148235L124.565625,36.12280734504526L125.02697916666666,36.0578841932134L125.48833333333333,35.959927545041836L125.94968750000001,35.99555515411555L126.41104166666666,35.99333483673968L126.87239583333333,35.85040024934912L127.33375000000001,35.6702378989381L127.79510416666666,35.60344030863777L128.25645833333334,35.68136726860246L128.7178125,35.52751829054378L129.17916666666667,35.32311140195381L129.64052083333334,35.33616868672286L130.101875,35.22010359774535L130.56322916666667,35.05606294638221L131.02458333333334,34.922239714660094L131.4859375,34.895040520309124L131.94729166666667,34.766623501943826L132.40864583333334,34.63057756720022L132.87,34.67284946619293L133.33135416666667,34.58020709144367L133.79270833333334,34.60132736079271L134.2540625,34.61399952240214L134.71541666666667,34.4740994433607L135.17677083333334,34.56125965476306L135.638125,34.40705668187303L136.09947916666667,34.226034279204384L136.56083333333333,34.235419318400005L137.0221875,34.158450702024794L137.48354166666667,33.89986945342619L137.94489583333333,33.892224080274104L138.40625,33.92893667632913L138.86760416666667,33.72676219710456L139.32895833333333,33.817857588343344L139.7903125,33.75451634228975L140.25166666666667,33.83451007545443L140.71302083333333,33.6465093537596L141.174375,33.61040758159325L141.6357291666667,33.60054144302944L142.09708333333333,33.59462175989114L142.5584375,33.64417172803857L143.0197916666667,33.37890199026097L143.48114583333333,33.325943703655184L143.9425,33.35316445541608L144.40385416666666,33.192495668603385L144.86520833333333,33.202297952576544L145.3265625,33.04298004317528L145.78791666666666,33.05948679928926L146.24927083333333,33.0103951292333L146.710625,32.980940127199716L147.17197916666666,32.85706356991878L147.63333333333333,32.77683665650818L148.09468750000002,32.758205403672065L148.55604166666666,32.676221936813846L149.01739583333332,32.72733443371766L149.47875000000002,32.65179837579916L149.94010416666666,32.65957851907845L150.40145833333332,32.7173483830764L150.86281250000002,32.5396102227017L151.32416666666666,32.421165368392764L151.78552083333332,32.46219595756216L152.24687500000002,32.26852028659633L152.70822916666665,32.146413904974764L153.16958333333335,32.25604525956507L153.63093750000002,32.38082682939168L154.09229166666665,32.184292935441704L154.55364583333335,32.19027909225869L155.01500000000001,32.11716509215026L155.47635416666665,32.10280158729549L155.93770833333335,32.07648054725641L156.39906249999999,31.98989024142452L156.86041666666665,32.138534178614776L157.32177083333335,31.98582260029329L157.78312499999998,31.911891557078434L158.24447916666665,31.997333370030447L158.70583333333335,32.04859845780163L159.16718749999998,31.84336054887072L159.62854166666668,31.808718422446844L160.08989583333334,31.68763056957377L160.55124999999998,31.703478476784596L161.01260416666668,31.583186782230143L161.47395833333334,31.61131434251618L161.93531249999998,31.545591238795225L162.39666666666668,31.476652481352403L162.85802083333334,31.488391004917105L163.31937499999998,31.48953314001389L163.78072916666667,31.413519760221448L164.24208333333334,31.53901199117314L164.7034375,31.61430732974418L165.16479166666667,31.506087211185758L165.62614583333334,31.500150863775104L166.0875,31.41989039447813L166.54885416666667,31.407132953804194L167.01020833333334,31.328680807591383L167.4715625,31.252111658001496L167.93291666666667,31.276967850056025L168.3942708333333,31.197479967312063L168.855625,31.161589195749798L169.31697916666667,31.187255531800787L169.7783333333333,31.167256492527144L170.2396875,31.119851194710606L170.70104166666667,30.967508556181855L171.16239583333333,31.03540830715579L171.62375,31.229545479441185L172.08510416666667,31.051028064146323L172.54645833333333,31.091413957628475L173.0078125,31.033045853825143L173.46916666666667,30.915425351650555L173.93052083333333,30.86255598747198L174.391875,30.937030891677523L174.85322916666667,30.851915395319935L175.31458333333333,30.84214591745166L175.7759375,30.912989924929292L176.2372916666667,30.84339179431302L176.69864583333333,30.837031756847495L177.16,30.75651707351767L177.6213541666667,30.74360710442403L178.08270833333333,30.800764859082364L178.5440625,30.929461109854003L179.00541666666666,30.823776643405722L179.46677083333333,30.73086810167456L179.928125,30.745920658444334L180.38947916666666,30.695949435433704L180.85083333333333,30.71906847965778L181.3121875,30.60313946731128L181.77354166666666,30.675184456868408L182.23489583333333,30.747909312464884L182.69625000000002,30.762046363960565L183.15760416666666,30.67022601783924L183.61895833333332,30.57383399022015L184.08031250000002,30.693000011517967L184.54166666666666,30.5874983864274L185.00302083333332,30.54190034849921L185.46437500000002,30.420139927765604L185.92572916666666,30.724683033884105L186.38708333333332,30.447209899103967L186.84843750000002,30.381028595254605L187.30979166666665,30.471120251825937L187.77114583333335,30.477974446780394L188.23250000000002,30.375883407692243L188.69385416666665,30.32643074232348L189.15520833333335,30.397061720120945L189.61656250000001,30.38043754972699L190.07791666666665,30.358661089406496L190.53927083333335,30.463593694011024L191.00062499999999,30.36725495603062L191.46197916666665,30.368454470314845L191.92333333333335,30.398672040747584L192.38468749999998,30.30470508125245L192.84604166666665,30.230621968429205L193.30739583333335,30.22157094163947L193.76874999999998,30.357742722530674L194.23010416666668,30.244748649418113L194.69145833333334,30.235947929274886L195.15281249999998,30.413569714100248L195.61416666666668,30.242838970107528L196.07552083333334,30.252505058814705L196.53687499999998,30.169804093104375L196.99822916666668,30.179179237402565L197.45958333333334,30.344109658072682L197.92093749999998,30.17166507462875L198.38229166666667,30.215701700569497L198.84364583333334,30.27162153799611L199.305,30.316975398536187L199.76635416666667,30.196684338853146L200.22770833333334,30.289708982828472L200.6890625,30.35732572729782L201.15041666666667,30.12649293813348L201.61177083333334,30.200393343408336L202.073125,30.168034925722765L202.53447916666667,30.520318254627995L202.9958333333333,30.21838747548952L203.4571875,30.137531585025158L203.91854166666667,30.041817251758204L204.3798958333333,30.397386851260933L204.84125,30.233129252403927L205.30260416666667,30.17587451303598L205.76395833333333,30.047127104786625L206.2253125,30.076075182549744L206.68666666666667,30.004943410272944L207.14802083333333,30.19236736280655L207.609375,30.17502129544576L208.07072916666667,30.447811415611255L208.53208333333333,30.216190225373822L208.9934375,30.059514574105208L209.45479166666667,30.172008283075513L209.91614583333333,30.003507546864057L210.3775,30.032207544018092L210.8388541666667,30.23232272587373L211.30020833333333,30.09869193626733L211.7615625,30.0008175587254L212.2229166666667,29.91258803699L212.68427083333333,30.290351460537806L213.145625,30.37541415104957L213.60697916666666,30.090145193396182L214.06833333333333,29.9071888940681L214.5296875,29.897710658141904L214.99104166666666,29.903825674670315L215.45239583333333,29.954695483575676L215.91375,30.103215849715752L216.37510416666666,30.103827450465133L216.83645833333333,29.927193173045538L217.29781250000002,29.99821384446298L217.75916666666666,30.141128824332213L218.22052083333332,29.96137595544988L218.68187500000002,30.301928307835652L219.14322916666666,30.217153946295014L219.60458333333332,29.983394145807438L220.06593750000002,29.849039244556906L220.52729166666666,29.98672032827409L220.98864583333332,30.612134650196282L221.45000000000002,30.21448158910613L221.91135416666665,29.993585656230067L222.37270833333335,30.309452170219686L222.83406250000002,30.227569242767515L223.29541666666665,29.97784136560682L223.75677083333335,30.488801758451018L224.21812500000001,30.12867989597484L224.67947916666665,29.89491087471106L225.14083333333335,30.59244781896271L225.60218749999999,30.22036539414404L226.06354166666665,29.985321014516813L226.52489583333335,29.814789491530234L226.98624999999998,30.137270735285256L227.44760416666665,30.041660741914257L227.90895833333335,29.86629626509483L228.37031249999998,29.766978558045253L228.83166666666668,30.3327862120519L229.29302083333334,30.023268610051275L229.75437499999998,29.84345902789292L230.21572916666668,30.331473694972146L230.67708333333334,30.034283057887535L231.13843749999998,29.850067696594692L231.59979166666668,30.447543431296054L232.06114583333334,30.157026677712224L232.52249999999998,29.917812889447475L232.98385416666667,30.163685933131376L233.44520833333334,29.945412358867202L233.9065625,29.832144118086745L234.36791666666667,30.21848822637574L234.82927083333334,30.025494533802174L235.290625,29.844794582143464L235.75197916666667,30.131676906833093L236.21333333333334,30.056007381969124L236.6746875,29.85720131200162L237.13604166666667,30.245317467460694L237.5973958333333,29.976688342338576L238.05875,29.833213804391505L238.52010416666667,30.272224782840937L238.9814583333333,30.122633170447642L239.4428125,29.903077764130785L239.90416666666667,29.806743361244912L240.36552083333333,30.238646613174836L240.826875,29.954989925988997L241.28822916666667,29.778894934635446L241.74958333333333,29.690933843601414L242.2109375,30.31665724524774L242.67229166666667,29.99589532619069L243.13364583333333,29.82703505757661L243.595,30.27441851379399L244.05635416666667,29.98235404540256L244.51770833333333,29.83071224718782L244.9790625,30.41232624548374L245.4404166666667,30.05329672633229L245.90177083333333,30.07387597643509L246.363125,30.0803225474547L246.8244791666667,29.854094507514873L247.28583333333333,29.753756524455184L247.7471875,30.531352091629316L248.20854166666666,30.124712234019654L248.66989583333333,29.874827340411798L249.13125,30.645294401149528L249.59260416666666,30.193077619731753L250.05395833333333,29.91584657183907L250.5153125,29.755408922145477L250.97666666666666,30.243244790619457L251.43802083333333,30.288147392026076L251.89937500000002,29.97288843521568L252.36072916666666,29.783733061129425L252.82208333333332,30.08323803614053L253.28343750000002,29.95613934439703L253.74479166666666,29.79138654376439" style="fill: none;" fill="none"></path></g></g></g></g><g opacity="0.2"><g><g><g><path stroke="rgb(238, 51, 119)" stroke-width="2px" d="M30.449375,177.53100019693375L30.910729166666666,171.33599203824997L31.372083333333332,166.73400205373764L31.833437500000002,165.73099386692047L32.29479166666667,164.43300706148148L32.756145833333335,162.19100427627563L33.2175,157.53000450134277L33.67885416666667,156.88100230693817L34.140208333333334,151.62999254465103L34.6015625,149.44699954986572L35.062916666666666,148.38499915599823L35.52427083333333,146.96899276971817L35.985625,143.96000337600708L36.446979166666665,143.31100118160248L36.90833333333333,142.19000858068466L37.369687500000005,139.7120018005371L37.831041666666664,135.46400022506714L38.29239583333334,132.5729952454567L38.753750000000004,133.98900163173676L39.21510416666666,131.21599864959717L39.676458333333336,130.33099246025085L40.137812499999995,129.74100005626678L40.59916666666667,126.3189948797226L41.060520833333335,123.78199589252472L41.521875,123.01499170064926L41.98322916666667,121.71700489521027L42.44458333333333,122.24800509214401L42.9059375,122.13000309467316L43.36729166666667,121.42200869321823L43.82864583333333,119.12099611759186L44.29,120.0649945139885L44.751354166666665,116.05299693346024L45.21270833333333,117.76399952173233L45.674062500000005,114.75499254465105L46.135416666666664,114.22399234771729L46.59677083333333,112.86699575185777L47.058125000000004,113.45700573921204L47.51947916666666,110.44799876213075L47.98083333333334,112.92600554227829L48.442187499999996,106.25900697708131L48.90354166666667,110.97899895906448L49.364895833333335,109.38599836826324L49.82625,106.67200517654419L50.28760416666667,108.08799397945405L50.74895833333333,105.90500098466875L51.2103125,105.72800678014757L51.67166666666667,107.14399558305742L52.13302083333333,104.19399839639665L52.594375,104.90199279785158L53.05572916666667,102.18799960613252L53.51708333333333,102.18799960613252L53.9784375,102.95500379800798L54.439791666666665,101.42099541425705L54.90114583333333,101.0670070052147L55.362500000000004,100.41800481081009L55.82385416666666,98.94300621747972L56.28520833333334,100.831003010273L56.746562499999996,98.76599442958833L57.20791666666667,98.17600202560426L57.669270833333336,97.4089978337288L58.130624999999995,97.93999803066255L58.59197916666667,97.99900782108308L59.053333333333335,98.29400402307512L59.5146875,97.88100582361223L59.97604166666667,94.63599485158922L60.43739583333333,95.63900303840639L60.89875,93.10200405120851L61.36010416666667,94.8130066394806L61.82145833333333,95.10800284147264L62.2828125,94.5770026445389L62.744166666666665,94.40000844001771L63.20552083333333,95.93399924039842L63.666875000000005,93.80999845266344L64.12822916666667,93.33800804615022L64.58958333333334,91.62700545787813L65.0509375,91.98099386692049L65.51229166666667,92.80700784921648L65.97364583333334,90.74199926853181L66.435,91.8039996623993L66.89635416666667,89.67999887466432L67.35770833333333,89.97499507665636L67.8190625,88.44100427627565L68.28041666666667,88.61799848079683L68.74177083333333,90.62399727106096L69.203125,88.79499268531801L69.66447916666667,89.14899867773057L70.12583333333333,89.50300467014314L70.5871875,88.67700827121736L71.04854166666667,87.67400008440018L71.50989583333335,86.73000168800355L71.97125,87.91000407934189L72.43260416666666,88.79499268531801L72.89395833333333,88.20500028133394L73.3553125,85.96299749612808L73.81666666666666,87.31999409198761L74.27802083333333,85.84499549865723L74.73937500000001,85.84499549865723L75.20072916666666,85.96299749612808L75.66208333333333,89.79800087213518L76.12343750000001,84.36999690532684L76.58479166666667,86.13999170064928L77.04614583333333,85.19599330425264L77.50750000000001,87.79200208187103L77.96885416666667,86.02200728654863L78.43020833333333,82.954008102417L78.89156249999999,84.54700869321825L79.35291666666667,83.78000450134279L79.81427083333334,84.54700869321825L80.27562499999999,85.19599330425264L80.73697916666667,84.0160084962845L81.19833333333334,84.36999690532684L81.65968749999999,82.36399811506273L82.12104166666667,83.48500829935074L82.58239583333334,83.89800649881364L83.04375,83.13100230693817L83.50510416666667,86.73000168800355L83.96645833333334,80.23999732732774L84.4278125,83.6029927134514L84.88916666666665,82.36399811506273L85.35052083333333,82.12799412012102L85.811875,79.70899713039398L86.27322916666667,81.0070015192032L86.73458333333333,82.42300790548326L87.1959375,81.95099991559984L87.65729166666667,81.53800171613693L88.11864583333335,79.2959989309311L88.58,82.7180041074753L89.04135416666666,81.41999971866608L89.50270833333333,82.00999212265016L89.9640625,79.82699912786484L90.42541666666666,81.95099991559984L90.88677083333333,80.41699153184892L91.34812500000001,78.41099274158479L91.80947916666666,78.52899473905565L92.27083333333333,78.70600652694702L92.73218750000001,80.00399333238603L93.19354166666666,79.11900472640993L93.65489583333333,79.88599133491518L94.11625000000001,77.7620081305504L94.57760416666667,79.82699912786484L95.03895833333333,79.47299313545227L95.50031249999999,80.71200531721117L95.96166666666667,81.71499592065813L96.42302083333333,78.76499873399736L96.88437499999999,79.65000492334367L97.34572916666667,79.23700672388078L97.80708333333334,78.05700433254243L98.26843749999999,79.47299313545227L98.72979166666667,78.76499873399736L99.19114583333334,77.58499634265901L99.6525,77.99799454212189L100.11385416666667,79.11900472640993L100.57520833333334,80.3579993247986L101.0365625,76.75899994373322L101.49791666666665,79.59099513292313L101.95927083333333,78.41099274158479L102.420625,78.6469967365265L102.88197916666667,78.11599653959274L103.34333333333333,76.4640037417412L103.8046875,79.82699912786484L104.26604166666667,76.7000077366829L104.72739583333333,78.6469967365265L105.18875,77.93900233507158L105.65010416666667,78.11599653959274L106.11145833333335,76.99500393867493L106.5728125,76.99500393867493L107.03416666666666,77.82100033760072L107.49552083333333,79.00100272893907L107.956875,76.87700194120407L108.41822916666666,77.46699434518816L108.87958333333333,78.82400852441788L109.34093750000001,75.52000534534454L109.80229166666666,76.0510055422783L110.26364583333333,77.52600413560869L110.72500000000001,76.58200573921205L111.18635416666667,77.40800213813783L111.64770833333333,75.81500154733659L112.10906250000001,77.17199814319612L112.57041666666667,75.04799735546112L113.03177083333333,76.64099794626236L113.49312499999999,78.94199293851854L113.95447916666667,76.10999774932863L114.41583333333334,76.22799974679948L114.87718749999999,75.40200334787369L115.33854166666667,76.99500393867493L115.79989583333334,77.29000014066698L116.26124999999999,76.64099794626236L116.72260416666667,78.41099274158479L117.18395833333334,77.29000014066698L117.6453125,75.75599175691606L118.10666666666667,75.87399375438692L118.56802083333334,76.64099794626236L119.029375,75.46099555492403L119.49072916666665,74.39899516105653L119.95208333333333,75.52000534534454L120.4134375,76.16900753974916L120.87479166666667,75.10700714588167L121.33614583333333,74.92999535799026L121.7975,74.16300874948502L122.25885416666667,76.7000077366829L122.72020833333335,76.87700194120407L123.1815625,75.28400135040283L123.64291666666666,78.05700433254243L124.10427083333333,76.58200573921205L124.565625,74.28099316358568L125.02697916666666,74.57600694894792L125.48833333333333,74.81199336051941L125.94968750000001,76.40499395132065L126.41104166666666,77.58499634265901L126.87239583333333,76.64099794626236L127.33375000000001,74.92999535799026L127.79510416666666,76.22799974679948L128.25645833333334,75.69699954986574L128.7178125,74.69399136304855L129.17916666666667,75.93300354480745L129.64052083333334,75.34299355745317L130.101875,76.16900753974916L130.56322916666667,74.87100315093996L131.02458333333334,75.99199575185777L131.4859375,73.27800256013872L131.94729166666667,75.04799735546112L132.40864583333334,75.22499155998231L132.87,73.98599696159364L133.33135416666667,75.28400135040283L133.79270833333334,75.75599175691606L134.2540625,77.93900233507158L134.71541666666667,74.63499915599824L135.17677083333334,75.69699954986574L135.638125,75.10700714588167L136.09947916666667,74.22200095653535L136.56083333333333,77.52600413560869L137.0221875,75.69699954986574L137.48354166666667,73.63200855255128L137.94489583333333,75.52000534534454L138.40625,72.74700236320497L138.86760416666667,74.63499915599824L139.32895833333333,74.22200095653535L139.7903125,75.46099555492403L140.25166666666667,76.64099794626236L140.71302083333333,74.16300874948502L141.174375,78.70600652694702L141.6357291666667,73.80900275707245L142.09708333333333,75.22499155998231L142.5584375,72.92399656772615L143.0197916666667,78.35200053453445L143.48114583333333,74.81199336051941L143.9425,73.80900275707245L144.40385416666666,75.93300354480745L144.86520833333333,76.64099794626236L145.3265625,74.69399136304855L145.78791666666666,75.40200334787369L146.24927083333333,73.9270047545433L146.710625,73.57299876213074L147.17197916666666,74.63499915599824L147.63333333333333,75.40200334787369L148.09468750000002,73.51400655508043L148.55604166666666,76.7000077366829L149.01739583333332,74.87100315093996L149.47875000000002,74.34000295400621L149.94010416666666,74.22200095653535L150.40145833333332,75.6380073428154L150.86281250000002,75.22499155998231L151.32416666666666,74.1039989590645L151.78552083333332,74.22200095653535L152.24687500000002,73.98599696159364L152.70822916666665,75.28400135040283L153.16958333333335,78.2339985370636L153.63093750000002,73.6910007596016L154.09229166666665,73.98599696159364L154.55364583333335,73.45499676465988L155.01500000000001,77.3489923477173L155.47635416666665,75.46099555492403L155.93770833333335,73.21899276971817L156.39906249999999,74.28099316358568L156.86041666666665,72.68799257278444L157.32177083333335,73.21899276971817L157.78312499999998,73.21899276971817L158.24447916666665,73.80900275707245L158.70583333333335,73.6910007596016L159.16718749999998,74.28099316358568L159.62854166666668,73.6910007596016L160.08989583333334,73.86799496412279L160.55124999999998,73.57299876213074L161.01260416666668,74.63499915599824L161.47395833333334,76.4640037417412L161.93531249999998,74.7530011534691L162.39666666666668,74.39899516105653L162.85802083333334,74.45800495147706L163.31937499999998,74.28099316358568L163.78072916666667,74.87100315093996L164.24208333333334,75.28400135040283L164.7034375,77.52600413560869L165.16479166666667,73.33699476718903L165.62614583333334,78.6469967365265L166.0875,76.4640037417412L166.54885416666667,72.8059945702553L167.01020833333334,73.33699476718903L167.4715625,74.57600694894792L167.93291666666667,73.10100835561754L168.3942708333333,74.7530011534691L168.855625,73.57299876213074L169.31697916666667,73.16000056266786L169.7783333333333,75.16599935293198L170.2396875,74.51699715852739L170.70104166666667,74.63499915599824L171.16239583333333,72.62900036573411L171.62375,73.16000056266786L172.08510416666667,74.16300874948502L172.54645833333333,73.16000056266786L173.0078125,75.22499155998231L173.46916666666667,74.34000295400621L173.93052083333333,75.46099555492403L174.391875,72.92399656772615L174.85322916666667,74.81199336051941L175.31458333333333,72.92399656772615L175.7759375,76.5229959487915L176.2372916666667,73.98599696159364L176.69864583333333,73.51400655508043L177.16,76.28699195384979L177.6213541666667,73.27800256013872L178.08270833333333,75.34299355745317L178.5440625,74.45800495147706L179.00541666666666,74.04500675201416L179.46677083333333,73.33699476718903L179.928125,72.27499437332155L180.38947916666666,76.5229959487915L180.85083333333333,74.98900514841081L181.3121875,74.1039989590645L181.77354166666666,73.63200855255128L182.23489583333333,72.92399656772615L182.69625000000002,73.10100835561754L183.15760416666666,73.21899276971817L183.61895833333332,74.04500675201416L184.08031250000002,74.57600694894792L184.54166666666666,73.041998565197L185.00302083333332,73.80900275707245L185.46437500000002,74.16300874948502L185.92572916666666,74.69399136304855L186.38708333333332,73.45499676465988L186.84843750000002,74.22200095653535L187.30979166666665,74.34000295400621L187.77114583333335,73.9270047545433L188.23250000000002,72.51099836826326L188.69385416666665,73.6910007596016L189.15520833333335,74.28099316358568L189.61656250000001,75.81500154733659L190.07791666666665,75.52000534534454L190.53927083333335,74.22200095653535L191.00062499999999,74.63499915599824L191.46197916666665,74.87100315093996L191.92333333333335,74.28099316358568L192.38468749999998,74.16300874948502L192.84604166666665,73.041998565197L193.30739583333335,73.74999296665193L193.76874999999998,75.28400135040283L194.23010416666668,73.9270047545433L194.69145833333334,76.87700194120407L195.15281249999998,74.87100315093996L195.61416666666668,74.39899516105653L196.07552083333334,73.80900275707245L196.53687499999998,74.22200095653535L196.99822916666668,75.04799735546112L197.45958333333334,75.28400135040283L197.92093749999998,72.68799257278444L198.38229166666667,72.68799257278444L198.84364583333334,74.92999535799026L199.305,73.33699476718903L199.76635416666667,73.57299876213074L200.22770833333334,74.28099316358568L200.6890625,73.63200855255128L201.15041666666667,73.9270047545433L201.61177083333334,74.45800495147706L202.073125,75.52000534534454L202.53447916666667,73.98599696159364L202.9958333333333,72.51099836826326L203.4571875,73.63200855255128L203.91854166666667,75.46099555492403L204.3798958333333,73.21899276971817L204.84125,74.87100315093996L205.30260416666667,75.16599935293198L205.76395833333333,76.0510055422783L206.2253125,73.21899276971817L206.68666666666667,75.34299355745317L207.14802083333333,73.63200855255128L207.609375,73.21899276971817L208.07072916666667,75.46099555492403L208.53208333333333,73.33699476718903L208.9934375,75.52000534534454L209.45479166666667,74.92999535799026L209.91614583333333,71.9799981713295L210.3775,77.52600413560869L210.8388541666667,74.57600694894792L211.30020833333333,73.9270047545433L211.7615625,77.99799454212189L212.2229166666667,73.6910007596016L212.68427083333333,74.16300874948502L213.145625,73.63200855255128L213.60697916666666,72.57000815868378L214.06833333333333,73.33699476718903L214.5296875,74.22200095653535L214.99104166666666,76.16900753974916L215.45239583333333,74.51699715852739L215.91375,75.87399375438692L216.37510416666666,73.57299876213074L216.83645833333333,74.28099316358568L217.29781250000002,77.23100793361664L217.75916666666666,72.98300635814668L218.22052083333332,74.22200095653535L218.68187500000002,73.39600455760957L219.14322916666666,72.45200616121292L219.60458333333332,71.86199617385864L220.06593750000002,72.57000815868378L220.52729166666666,81.41999971866608L220.98864583333332,72.33400416374207L221.45000000000002,71.92100596427919L221.91135416666665,73.51400655508043L222.37270833333335,80.23999732732774L222.83406250000002,72.3929963707924L223.29541666666665,73.86799496412279L223.75677083333335,72.92399656772615L224.21812500000001,73.21899276971817L224.67947916666665,73.6910007596016L225.14083333333335,76.0510055422783L225.60218749999999,72.15699237585069L226.06354166666665,74.51699715852739L226.52489583333335,72.45200616121292L226.98624999999998,74.63499915599824L227.44760416666665,72.62900036573411L227.90895833333335,72.33400416374207L228.37031249999998,72.98300635814668L228.83166666666668,72.03900796175004L229.29302083333334,72.51099836826326L229.75437499999998,73.98599696159364L230.21572916666668,72.57000815868378L230.67708333333334,73.16000056266786L231.13843749999998,71.92100596427919L231.59979166666668,73.6910007596016L232.06114583333334,72.51099836826326L232.52249999999998,71.68500196933748L232.98385416666667,74.57600694894792L233.44520833333334,72.09800016880035L233.9065625,72.21600216627121L234.36791666666667,73.39600455760957L234.82927083333334,72.33400416374207L235.290625,71.86199617385864L235.75197916666667,78.58800452947617L236.21333333333334,72.33400416374207L236.6746875,72.33400416374207L237.13604166666667,71.92100596427919L237.5973958333333,70.79999577999116L238.05875,74.69399136304855L238.52010416666667,79.35500872135164L238.9814583333333,72.8059945702553L239.4428125,74.98900514841081L239.90416666666667,72.8059945702553L240.36552083333333,73.98599696159364L240.826875,73.16000056266786L241.28822916666667,72.45200616121292L241.74958333333333,73.10100835561754L242.2109375,72.98300635814668L242.67229166666667,72.09800016880035L243.13364583333333,73.6910007596016L243.595,72.33400416374207L244.05635416666667,71.86199617385864L244.51770833333333,73.21899276971817L244.9790625,73.39600455760957L245.4404166666667,71.74399417638779L245.90177083333333,75.04799735546112L246.363125,71.92100596427919L246.8244791666667,71.74399417638779L247.28583333333333,73.39600455760957L247.7471875,73.16000056266786L248.20854166666666,72.86500436067583L248.66989583333333,73.51400655508043L249.13125,71.74399417638779L249.59260416666666,72.15699237585069L250.05395833333333,72.51099836826326L250.5153125,72.62900036573411L250.97666666666666,76.7000077366829L251.43802083333333,71.74399417638779L251.89937500000002,72.03900796175004L252.36072916666666,72.15699237585069L252.82208333333332,78.58800452947617L253.28343750000002,72.8059945702553L253.74479166666666,72.92399656772615" style="fill: none;" fill="none"></path></g><g><path stroke="rgb(204, 51, 17)" stroke-width="2px" d="M29.526666666666667,177.5162477493286L29.988020833333334,171.33599203824997L30.449375,167.25024980306625L30.910729166666666,161.74850118160248L31.372083333333332,158.01674735546112L31.833437500000002,154.2555062174797L32.29479166666667,150.6859941482544L32.756145833333335,147.1164996623993L33.2175,143.47324293851852L33.67885416666667,141.03949350118637L34.140208333333334,137.3962543606758L34.6015625,135.33124577999115L35.062916666666666,132.764741897583L35.52427083333333,130.72925579547882L35.985625,127.88250815868378L36.446979166666665,125.75850737094879L36.90833333333333,123.5902492403984L37.369687500000005,121.11224246025085L37.831041666666664,119.65199631452562L38.29239583333334,117.85249662399292L38.753750000000004,115.74324828386307L39.21510416666666,113.79624170064926L39.676458333333336,111.59849625825882L40.137812499999995,110.09399276971818L40.59916666666667,109.31225371360779L41.060520833333335,107.74875801801683L41.521875,105.91975343227388L41.98322916666667,104.47424215078355L42.44458333333333,102.35024136304855L42.9059375,101.31774586439134L43.36729166666667,99.85749971866609L43.82864583333333,98.61850512027742L44.29,97.01075208187105L44.751354166666665,96.4797518849373L45.21270833333333,94.78350174427034L45.674062500000005,92.83649516105653L46.135416666666664,92.98400205373765L46.59677083333333,90.93374592065813L47.058125000000004,89.88649797439577L47.51947916666666,89.70950376987459L47.98083333333334,87.86574673652649L48.442187499999996,87.08400768041612L48.90354166666667,86.06624704599382L49.364895833333335,85.6827537417412L49.82625,84.34049201011659L50.28760416666667,83.86850160360336L50.74895833333333,81.77400571107864L51.2103125,81.75925326347352L51.67166666666667,80.80050241947174L52.13302083333333,80.52025866508485L52.594375,79.59099513292313L53.05572916666667,79.04524248838425L53.51708333333333,77.86525768041612L53.9784375,77.45224189758301L54.439791666666665,76.58200573921205L54.90114583333333,76.16900753974916L55.362500000000004,75.25449645519258L55.82385416666666,74.39899516105653L56.28520833333334,73.21899276971817L56.746562499999996,72.9535014629364L57.20791666666667,72.79124212265015L57.669270833333336,72.0684952735901L58.130624999999995,71.4637504220009L58.59197916666667,70.69674623012543L59.053333333333335,70.03299158811569L59.5146875,70.29850047826768L59.97604166666667,69.16275542974473L60.43739583333333,68.72025233507156L60.89875,68.14499479532243L61.36010416666667,67.8499985933304L61.82145833333333,66.93550509214401L62.2828125,66.8322555422783L62.744166666666665,65.91774445772174L63.20552083333333,65.68175804615022L63.666875000000005,65.35725694894792L64.12822916666667,64.11824476718904L64.58958333333334,63.92649811506273L65.0509375,63.646254360675826L65.51229166666667,63.5430048108101L65.97364583333334,63.51349991559985L66.435,62.14175087213518L66.89635416666667,62.25975286960603L67.35770833333333,61.5959982275963L67.8190625,60.88800382614137L68.28041666666667,60.68150472640994L68.74177083333333,59.76699364185335L69.203125,59.94400542974475L69.66447916666667,59.6047518849373L70.12583333333333,59.41300523281099L70.5871875,58.6312485933304L71.04854166666667,58.6312485933304L71.50989583333335,58.527999043464675L71.97125,58.0707435011864L72.43260416666666,57.02349555492404L72.89395833333333,57.36274909973146L73.3553125,56.50724780559541L73.81666666666666,56.66950714588167L74.27802083333333,56.04999226331714L74.73937500000001,55.57800185680391L75.20072916666666,55.26825320720674L75.66208333333333,55.09124141931535L76.12343750000001,54.94375211000444L76.58479166666667,54.604498565197005L77.04614583333333,54.16199547052385L77.50750000000001,53.69000506401065L77.96885416666667,53.36550396680833L78.43020833333333,52.8345037698746L78.89156249999999,53.09999507665637L79.35291666666667,52.53950756788255L79.81427083333334,52.05274713039401L80.27562499999999,52.49525022506715L80.73697916666667,51.34475272893907L81.19833333333334,51.093996286392226L81.65968749999999,51.388992488384275L82.12104166666667,50.47449898719789L82.58239583333334,50.931754529476194L83.04375,50.23849499225618L83.50510416666667,49.76650458574298L83.96645833333334,49.82549679279329L84.4278125,49.14700728654864L84.88916666666665,49.64850258827212L85.35052083333333,49.27974414825441L85.811875,48.63074195384982L86.27322916666667,48.23249620199206L86.73458333333333,47.84900289773944L87.1959375,47.99649220705035L87.65729166666667,47.80474555492404L88.11864583333335,47.06724625825885L88.58,47.87850779294968L89.04135416666666,46.83124226331714L89.50270833333333,46.89025205373767L89.9640625,46.329746961593656L90.42541666666666,45.6070001125336L90.88677083333333,45.84300410747531L91.34812500000001,45.6070001125336L91.80947916666666,45.6070001125336L92.27083333333333,45.636505007743864L92.73218750000001,45.326756358146696L93.19354166666666,45.312003910541534L93.65489583333333,45.046495020389585L94.11625000000001,44.264755964279175L94.57760416666667,44.087744176387815L95.03895833333333,44.45650261640549L95.50031249999999,44.05825686454776L95.96166666666667,44.132001519203214L96.42302083333333,44.087744176387815L96.88437499999999,43.24699532985687L97.34572916666667,43.586248874664335L97.80708333333334,43.30600512027743L98.26843749999999,43.217508018016815L98.72979166666667,43.11425846815112L99.19114583333334,42.583258271217375L99.6525,42.583258271217375L100.11385416666667,42.391494035720825L100.57520833333334,42.09649783372882L101.0365625,42.214499831199674L101.49791666666665,41.72775697708133L101.95927083333333,41.87524628639224L102.420625,41.72775697708133L102.88197916666667,41.09350723028186L103.34333333333333,41.300006330013304L103.8046875,40.76900613307953L104.26604166666667,41.06400233507159L104.72739583333333,40.577241897583036L105.18875,40.51824969053271L105.65010416666667,40.42975258827212L106.11145833333335,40.621499240398435L106.5728125,40.35600793361667L107.03416666666666,39.92825728654864L107.49552083333333,40.0020019412041L107.956875,39.60375618934631L108.41822916666666,39.47100174427035L108.87958333333333,39.44149684906006L109.34093750000001,39.54474639892581L109.80229166666666,39.50050663948062L110.26364583333333,39.3087424039841L110.72500000000001,39.22024530172351L111.18635416666667,39.10224330425265L111.64770833333333,39.161253094673185L112.10906250000001,38.4385062456131L112.57041666666667,38.42375379800799L113.03177083333333,39.058003544807434L113.49312499999999,38.21725469827655L113.95447916666667,38.615500450134306L114.41583333333334,38.08450025320053L114.87718749999999,37.86324870586398L115.33854166666667,38.05499535799029L115.79989583333334,37.98125070333484L116.26124999999999,37.98125070333484L116.72260416666667,37.59775739908221L117.18395833333334,37.84849625825882L117.6453125,37.58300495147705L118.10666666666667,37.55350005626681L118.56802083333334,37.228998959064484L119.029375,37.08149206638339L119.49072916666665,36.87499296665192L119.95208333333333,37.11099696159363L120.4134375,37.332248508930235L120.87479166666667,36.56524431705475L121.33614583333333,36.59474921226504L121.7975,36.62425410747531L122.25885416666667,36.56524431705475L122.72020833333335,36.47674721479419L123.1815625,36.417755007743835L123.64291666666666,36.3439927697182L124.10427083333333,36.12274122238162L124.565625,35.82774502038956L125.02697916666666,35.960499465465574L125.48833333333333,35.81299257278445L125.94968750000001,36.048996567726164L126.41104166666666,35.99000436067581L126.87239583333333,35.635998368263245L127.33375000000001,35.39999437332153L127.79510416666666,35.503243923187284L128.25645833333334,35.7982577085495L128.7178125,35.29674482345584L129.17916666666667,35.01650106906891L129.64052083333334,35.35575461387637L130.101875,35.0460059642792L130.56322916666667,34.81000196933749L131.02458333333334,34.7215048670769L131.4859375,34.854241728782654L131.94729166666667,34.57399797439578L132.40864583333334,34.42650866508487L132.87,34.736257314682035L133.33135416666667,34.44124352931979L133.79270833333334,34.633007764816284L134.2540625,34.633007764816284L134.71541666666667,34.26424932479861L135.17677083333334,34.691999971866636L135.638125,34.17575222253802L136.09947916666667,33.954500675201444L136.56083333333333,34.24949687719348L137.0221875,34.042997777462006L137.48354166666667,33.51199758052829L137.94489583333333,33.88075602054599L138.40625,33.98400557041171L138.86760416666667,33.42350047826767L139.32895833333333,33.954500675201444L139.7903125,33.65950447320938L140.25166666666667,33.954500675201444L140.71302083333333,33.364508271217375L141.174375,33.55625492334369L141.6357291666667,33.585742235183744L142.09708333333333,33.585742235183744L142.5584375,33.71849668025973L143.0197916666667,32.98099738359454L143.48114583333333,33.24650627374652L143.9425,33.39399558305743L144.40385416666666,32.95149248838425L144.86520833333333,33.21700137853625L145.3265625,32.804003179073334L145.78791666666666,33.084246933460264L146.24927083333333,32.93675762414935L146.710625,32.93675762414935L147.17197916666666,32.67124873399737L147.63333333333333,32.65649628639224L148.09468750000002,32.73025852441788L148.55604166666666,32.55324673652652L149.01739583333332,32.804003179073334L149.47875000000002,32.538494288921385L149.94010416666666,32.67124873399737L150.40145833333332,32.804003179073334L150.86281250000002,32.273002982139616L151.32416666666666,32.24349808692935L151.78552083333332,32.52374184131622L152.24687500000002,31.97800678014758L152.70822916666665,31.963254332542448L153.16958333333335,32.42049229145053L153.63093750000002,32.56799918413162L154.09229166666665,31.889492094516783L154.55364583333335,32.19925832748416L155.01500000000001,32.00749409198764L155.47635416666665,32.081256330013304L155.93770833333335,32.036998987197904L156.39906249999999,31.860004782676725L156.86041666666665,32.361500084400205L157.32177083333335,31.756755232810974L157.78312499999998,31.800994992256193L158.24447916666665,32.125496089458494L158.70583333333335,32.125496089458494L159.16718749999998,31.535503685474424L159.62854166666668,31.756755232810974L160.08989583333334,31.505998790264158L160.55124999999998,31.727250337600736L161.01260416666668,31.402749240398407L161.47395833333334,31.65350568294528L161.93531249999998,31.447006583213806L162.39666666666668,31.37324434518817L162.85802083333334,31.505998790264158L163.31937499999998,31.491246342659025L163.78072916666667,31.299499690532713L164.24208333333334,31.727250337600736L164.7034375,31.727250337600736L165.16479166666667,31.343757033348112L165.62614583333334,31.491246342659025L166.0875,31.299499690532713L166.54885416666667,31.387996792793302L167.01020833333334,31.211002588272095L167.4715625,31.137257933616638L167.93291666666667,31.314252138137846L168.3942708333333,31.078248143196134L168.855625,31.1077530384064L169.31697916666667,31.225755035877256L169.7783333333333,31.137257933616638L170.2396875,31.04874324798584L170.70104166666667,30.738994598388672L171.16239583333333,31.137257933616638L171.62375,31.520751237869263L172.08510416666667,30.78325194120407L172.54645833333333,31.15199279785159L173.0078125,30.945493698120146L173.46916666666667,30.738994598388672L173.93052083333333,30.78325194120407L174.391875,31.04874324798584L174.85322916666667,30.724242150783567L175.31458333333333,30.82749170064929L175.7759375,31.019255936145782L176.2372916666667,30.738994598388672L176.69864583333333,30.82749170064929L177.16,30.635745048522978L177.6213541666667,30.724242150783567L178.08270833333333,30.886501491069822L178.5440625,31.122505486011534L179.00541666666666,30.665249943733215L179.46677083333333,30.59150528907776L179.928125,30.768499493598966L180.38947916666666,30.620992600917816L180.85083333333333,30.753747045993833L181.3121875,30.429245948791504L181.77354166666666,30.78325194120407L182.23489583333333,30.856996595859528L182.69625000000002,30.78325194120407L183.15760416666666,30.532495498657255L183.61895833333332,30.429245948791504L184.08031250000002,30.87174904346469L184.54166666666666,30.429245948791504L185.00302083333332,30.473503291606903L185.46437500000002,30.23749929666519L185.92572916666666,31.181497693061857L186.38708333333332,30.031000196933775L186.84843750000002,30.28175663948059L187.30979166666665,30.60625773668292L187.77114583333335,30.488255739212065L188.23250000000002,30.222746849060087L188.69385416666665,30.252251744270353L189.15520833333335,30.503008186817198L189.61656250000001,30.355501294136047L190.07791666666665,30.32599639892581L190.53927083333335,30.620992600917816L191.00062499999999,30.222746849060087L191.46197916666665,30.37025374174121L191.92333333333335,30.443998396396665L192.38468749999998,30.163754642009735L192.84604166666665,30.119497299194336L193.30739583333335,30.207994401454954L193.76874999999998,30.56200039386752L194.23010416666668,30.075257539749174L194.69145833333334,30.222746849060087L195.15281249999998,30.680002391338377L195.61416666666668,29.986742854118376L196.07552083333334,30.267004191875486L196.53687499999998,30.04575264453888L196.99822916666668,30.193241953849792L197.45958333333334,30.59150528907776L197.92093749999998,29.91299819946292L198.38229166666667,30.28175663948059L198.84364583333334,30.355501294136047L199.305,30.385006189346342L199.76635416666667,30.01624774932864L200.22770833333334,30.429245948791504L200.6890625,30.4587508440018L201.15041666666667,29.78024375438693L201.61177083333334,30.311243951320648L202.073125,30.119497299194336L202.53447916666667,31.04874324798584L202.9958333333333,29.76549130678177L203.4571875,30.01624774932864L203.91854166666667,29.898245751857786L204.3798958333333,30.930741250514984L204.84125,29.986742854118376L205.30260416666667,30.0899924039841L205.76395833333333,29.854005992412567L206.2253125,30.119497299194336L206.68666666666667,29.898245751857786L207.14802083333333,30.473503291606903L207.609375,30.14900219440463L208.07072916666667,30.856996595859528L208.53208333333333,29.86875844001773L208.9934375,29.82450109720233L209.45479166666667,30.340748846530943L209.91614583333333,29.750756442546873L210.3775,30.075257539749174L210.8388541666667,30.532495498657255L211.30020833333333,29.898245751857786L211.7615625,29.854005992412567L212.2229166666667,29.78024375438693L212.68427083333333,30.856996595859528L213.145625,30.503008186817198L213.60697916666666,29.662241756916075L214.06833333333333,29.632754445076017L214.5296875,29.883493304252625L214.99104166666666,29.91299819946292L215.45239583333333,30.031000196933775L215.91375,30.32599639892581L216.37510416666666,30.10474485158923L216.83645833333333,29.662241756916075L217.29781250000002,30.10474485158923L217.75916666666666,30.355501294136047L218.22052083333332,29.691746652126312L218.68187500000002,30.812756836414366L219.14322916666666,30.0899924039841L219.60458333333332,29.632754445076017L220.06593750000002,29.64750689268115L220.52729166666666,30.193241953849792L220.98864583333332,31.550256133079557L221.45000000000002,29.618001997470856L221.91135416666665,29.662241756916075L222.37270833333335,30.78325194120407L222.83406250000002,30.10474485158923L223.29541666666665,29.60324954986575L223.75677083333335,31.255242347717314L224.21812500000001,29.588497102260618L224.67947916666665,29.5442573428154L225.14083333333335,31.63875323534012L225.60218749999999,29.662241756916075L226.06354166666665,29.632754445076017L226.52489583333335,29.558992207050352L226.98624999999998,30.620992600917816L227.44760416666665,29.898245751857786L227.90895833333335,29.60324954986575L228.37031249999998,29.618001997470856L228.83166666666668,31.181497693061857L229.29302083333334,29.558992207050352L229.75437499999998,29.573744654655457L230.21572916666668,31.063495695591L230.67708333333334,29.588497102260618L231.13843749999998,29.573744654655457L231.59979166666668,31.343757033348112L232.06114583333334,29.721251547336607L232.52249999999998,29.558992207050352L232.98385416666667,30.532495498657255L233.44520833333334,29.618001997470856L233.9065625,29.662241756916075L234.36791666666667,30.798004388809233L234.82927083333334,29.73600399494171L235.290625,29.573744654655457L235.75197916666667,30.56200039386752L236.21333333333334,29.942503094673185L236.6746875,29.558992207050352L237.13604166666667,30.82749170064929L237.5973958333333,29.573744654655457L238.05875,29.618001997470856L238.52010416666667,30.930741250514984L238.9814583333333,29.898245751857786L239.4428125,29.573744654655457L239.90416666666667,29.662241756916075L240.36552083333333,30.886501491069822L240.826875,29.529504895210295L241.28822916666667,29.51475244760516L241.74958333333333,29.558992207050352L242.2109375,31.255242347717314L242.67229166666667,29.51475244760516L243.13364583333333,29.573744654655457L243.595,30.945493698120146L244.05635416666667,29.5442573428154L244.51770833333333,29.60324954986575L244.9790625,31.28474724292755L245.4404166666667,29.51475244760516L245.90177083333333,30.10474485158923L246.363125,30.0899924039841L246.8244791666667,29.51475244760516L247.28583333333333,29.60324954986575L247.7471875,31.69774544239047L248.20854166666666,29.51475244760516L248.66989583333333,29.5L249.13125,31.800994992256193L249.59260416666666,29.51475244760516L250.05395833333333,29.5L250.5153125,29.51475244760516L250.97666666666666,30.974998593330383L251.43802083333333,30.355501294136047L251.89937500000002,29.5L252.36072916666666,29.5L252.82208333333332,30.532495498657255L253.28343750000002,29.76549130678177L253.74479166666666,29.5442573428154" style="fill: none;" fill="none"></path></g></g></g></g></g></g><g transform="translate(53, 177)" clip-path="url(#clip_1)"><clipPath id="clip_1"><rect width="276" height="22"></rect></clipPath><g><g><line x1="0" y1="0" x2="0" y2="5" style="visibility: inherit;" fill="rgb(0, 0, 0)" stroke="rgb(204, 204, 204)" stroke-width="1px"></line><line x1="23.067708333333332" y1="0" x2="23.067708333333332" y2="5" style="visibility: inherit;" fill="rgb(0, 0, 0)" stroke="rgb(204, 204, 204)" stroke-width="1px"></line><line x1="46.135416666666664" y1="0" x2="46.135416666666664" y2="5" style="visibility: inherit;" fill="rgb(0, 0, 0)" stroke="rgb(204, 204, 204)" stroke-width="1px"></line><line x1="69.203125" y1="0" x2="69.203125" y2="5" style="visibility: inherit;" fill="rgb(0, 0, 0)" stroke="rgb(204, 204, 204)" stroke-width="1px"></line><line x1="92.27083333333333" y1="0" x2="92.27083333333333" y2="5" style="visibility: inherit;" fill="rgb(0, 0, 0)" stroke="rgb(204, 204, 204)" stroke-width="1px"></line><line x1="115.33854166666667" y1="0" x2="115.33854166666667" y2="5" style="visibility: inherit;" fill="rgb(0, 0, 0)" stroke="rgb(204, 204, 204)" stroke-width="1px"></line><line x1="138.40625" y1="0" x2="138.40625" y2="5" style="visibility: inherit;" fill="rgb(0, 0, 0)" stroke="rgb(204, 204, 204)" stroke-width="1px"></line><line x1="161.47395833333334" y1="0" x2="161.47395833333334" y2="5" style="visibility: inherit;" fill="rgb(0, 0, 0)" stroke="rgb(204, 204, 204)" stroke-width="1px"></line><line x1="184.54166666666666" y1="0" x2="184.54166666666666" y2="5" style="visibility: inherit;" fill="rgb(0, 0, 0)" stroke="rgb(204, 204, 204)" stroke-width="1px"></line><line x1="207.609375" y1="0" x2="207.609375" y2="5" style="visibility: inherit;" fill="rgb(0, 0, 0)" stroke="rgb(204, 204, 204)" stroke-width="1px"></line><line x1="230.67708333333334" y1="0" x2="230.67708333333334" y2="5" style="visibility: inherit;" fill="rgb(0, 0, 0)" stroke="rgb(204, 204, 204)" stroke-width="1px"></line><line x1="253.74479166666666" y1="0" x2="253.74479166666666" y2="5" style="visibility: inherit;" fill="rgb(0, 0, 0)" stroke="rgb(204, 204, 204)" stroke-width="1px"></line><line x1="276.8125" y1="0" x2="276.8125" y2="5" style="visibility: inherit;" fill="rgb(0, 0, 0)" stroke="rgb(204, 204, 204)" stroke-width="1px"></line></g><g transform="translate(0, 8)"><text x="0" y="0" dx="0em" dy="0.95em" style="text-anchor: middle; visibility: hidden; font-family: &quot;Helvetica Neue&quot;, sans-serif; font-size: 12px; font-weight: 200;" fill="rgb(50, 49, 63)" stroke="none" stroke-width="1px">-50</text><text x="23.067708333333332" y="0" dx="0em" dy="0.95em" style="text-anchor: middle; visibility: inherit; font-family: &quot;Helvetica Neue&quot;, sans-serif; font-size: 12px; font-weight: 200;" fill="rgb(50, 49, 63)" stroke="none" stroke-width="1px">0</text><text x="46.135416666666664" y="0" dx="0em" dy="0.95em" style="text-anchor: middle; visibility: hidden; font-family: &quot;Helvetica Neue&quot;, sans-serif; font-size: 12px; font-weight: 200;" fill="rgb(50, 49, 63)" stroke="none" stroke-width="1px">50</text><text x="69.203125" y="0" dx="0em" dy="0.95em" style="text-anchor: middle; visibility: inherit; font-family: &quot;Helvetica Neue&quot;, sans-serif; font-size: 12px; font-weight: 200;" fill="rgb(50, 49, 63)" stroke="none" stroke-width="1px">100</text><text x="92.27083333333333" y="0" dx="0em" dy="0.95em" style="text-anchor: middle; visibility: hidden; font-family: &quot;Helvetica Neue&quot;, sans-serif; font-size: 12px; font-weight: 200;" fill="rgb(50, 49, 63)" stroke="none" stroke-width="1px">150</text><text x="115.33854166666667" y="0" dx="0em" dy="0.95em" style="text-anchor: middle; visibility: inherit; font-family: &quot;Helvetica Neue&quot;, sans-serif; font-size: 12px; font-weight: 200;" fill="rgb(50, 49, 63)" stroke="none" stroke-width="1px">200</text><text x="138.40625" y="0" dx="0em" dy="0.95em" style="text-anchor: middle; visibility: hidden; font-family: &quot;Helvetica Neue&quot;, sans-serif; font-size: 12px; font-weight: 200;" fill="rgb(50, 49, 63)" stroke="none" stroke-width="1px">250</text><text x="161.47395833333334" y="0" dx="0em" dy="0.95em" style="text-anchor: middle; visibility: inherit; font-family: &quot;Helvetica Neue&quot;, sans-serif; font-size: 12px; font-weight: 200;" fill="rgb(50, 49, 63)" stroke="none" stroke-width="1px">300</text><text x="184.54166666666666" y="0" dx="0em" dy="0.95em" style="text-anchor: middle; visibility: hidden; font-family: &quot;Helvetica Neue&quot;, sans-serif; font-size: 12px; font-weight: 200;" fill="rgb(50, 49, 63)" stroke="none" stroke-width="1px">350</text><text x="207.609375" y="0" dx="0em" dy="0.95em" style="text-anchor: middle; visibility: inherit; font-family: &quot;Helvetica Neue&quot;, sans-serif; font-size: 12px; font-weight: 200;" fill="rgb(50, 49, 63)" stroke="none" stroke-width="1px">400</text><text x="230.67708333333334" y="0" dx="0em" dy="0.95em" style="text-anchor: middle; visibility: hidden; font-family: &quot;Helvetica Neue&quot;, sans-serif; font-size: 12px; font-weight: 200;" fill="rgb(50, 49, 63)" stroke="none" stroke-width="1px">450</text><text x="253.74479166666666" y="0" dx="0em" dy="0.95em" style="text-anchor: middle; visibility: inherit; font-family: &quot;Helvetica Neue&quot;, sans-serif; font-size: 12px; font-weight: 200;" fill="rgb(50, 49, 63)" stroke="none" stroke-width="1px">500</text><text x="276.8125" y="0" dx="0em" dy="0.95em" style="text-anchor: middle; visibility: hidden; font-family: &quot;Helvetica Neue&quot;, sans-serif; font-size: 12px; font-weight: 200;" fill="rgb(50, 49, 63)" stroke="none" stroke-width="1px">550</text></g><line x1="0" y1="0" x2="276.8125" y2="0" fill="rgb(0, 0, 0)" stroke="rgb(204, 204, 204)" stroke-width="1px"></line></g></g></g></g></svg>